<svg width="734" height="277" viewBox="0 0 734 277" fill="none" xmlns="http://www.w3.org/2000/svg">
<path fill-rule="evenodd" clip-rule="evenodd" d="M729 0C731.761 -1.20706e-07 734 2.23858 734 5V267C734 272.523 729.523 277 724 277H579C576.239 277 574 274.761 574 272C574 269.239 576.239 267 579 267H724V5C724 2.23858 726.239 1.20706e-07 729 0Z" fill="#31073A"/>
<path d="M0.500061 267L0.500061 277H585V267H0.500061Z" fill="#31073A"/>
<path d="M724.999 162.656L618 269.655L625.071 276.726L732.07 169.727L724.999 162.656Z" fill="#31073A"/>
<path d="M724.121 207.534L663.466 268.189L670.538 275.26L731.192 214.605L724.121 207.534Z" fill="#31073A"/>
</svg>
