<svg width="1256" height="1178" viewBox="0 0 1256 1178" fill="none" xmlns="http://www.w3.org/2000/svg">
<path fill-rule="evenodd" clip-rule="evenodd" d="M979 565C979 567.761 981.239 570 984 570H1246C1251.52 570 1256 565.523 1256 560V415C1256 412.239 1253.76 410 1251 410C1248.24 410 1246 412.239 1246 415V560H984C981.239 560 979 562.239 979 565Z" fill="#31073A"/>
<path d="M1246 0H1256V421H1246V0Z" fill="#31073A"/>
<path d="M1141.66 560.999L1248.66 454L1255.73 461.071L1148.73 568.07L1141.66 560.999Z" fill="#31073A"/>
<path d="M1186.53 560.121L1247.19 499.466L1254.26 506.538L1193.61 567.192L1186.53 560.121Z" fill="#31073A"/>
<rect x="5" y="565" width="978" height="608" rx="5" stroke="#31073A" stroke-width="10"/>
</svg>
