<svg width="1256" height="1178" fill="none" xmlns="http://www.w3.org/2000/svg"><path fill-rule="evenodd" clip-rule="evenodd" d="M979 565a5 5 0 005 5h262c5.52 0 10-4.477 10-10V415a5.001 5.001 0 00-10 0v145H984a5 5 0 00-5 5z" fill="#31073A"/><path d="M1246 0h10v421h-10V0zm-104.34 560.999l107-106.999 7.07 7.071-107 106.999-7.07-7.071zm44.87-.878l60.66-60.655 7.07 7.072-60.65 60.654-7.08-7.071z" fill="#31073A"/><rect x="5" y="565" width="978" height="608" rx="5" stroke="#31073A" stroke-width="10"/></svg>