<svg width="32" height="32" viewBox="0 0 32 32" fill="none" xmlns="http://www.w3.org/2000/svg">
<g filter="url(#filter0_i_112_17414)">
<path d="M16.5172 25.9194H14.9716C13.8831 25.9194 12.9985 26.804 12.9985 27.8925V30.0267C12.9985 31.1152 13.8831 31.9998 14.9716 31.9998H16.5172C17.6057 31.9998 18.4903 31.1152 18.4903 30.0267V27.8925C18.4903 26.8008 17.6057 25.9194 16.5172 25.9194Z" fill="#2937F9"/>
<path d="M5.61944 9.39842L8.47053 9.75357C9.37486 9.86538 10.2331 9.3458 10.5587 8.49409C10.9698 7.41876 11.542 6.57034 12.2753 5.95211C13.3145 5.07738 14.6068 4.63673 16.1524 4.63673C17.7539 4.63673 19.0298 5.05765 19.9769 5.89621C20.9239 6.73805 21.3942 7.74432 21.3942 8.92488C21.3942 9.7733 21.1278 10.5494 20.5951 11.2531C20.2498 11.7003 19.1876 12.6408 17.4151 14.0779C15.6394 15.515 14.4588 16.8106 13.8669 17.9615C13.2619 19.1388 13.0514 20.4443 12.9988 21.7532C12.9528 22.8745 13.8472 23.8084 14.9718 23.8084H16.5832C17.6092 23.8084 18.4576 23.0225 18.5497 22.0031C18.6155 21.2698 18.7371 20.714 18.9213 20.3359C19.2304 19.688 20.0295 18.833 21.312 17.7676C23.7948 15.7123 25.4127 14.0878 26.1723 12.8908C26.9287 11.6971 27.3101 10.431 27.3101 9.09259C27.3101 6.67557 26.2809 4.55452 24.219 2.73271C22.1604 0.910903 19.385 0 15.8992 0C12.5844 0 9.91091 0.897749 7.87207 2.69654C6.13576 4.22896 5.08016 6.04419 4.70857 8.13894C4.59344 8.75059 5.01107 9.32278 5.61944 9.39842Z" fill="#2937F9"/>
</g>
<defs>
<filter id="filter0_i_112_17414" x="-0.4875" y="0" width="32.4875" height="32.4875" filterUnits="userSpaceOnUse" color-interpolation-filters="sRGB">
<feFlood flood-opacity="0" result="BackgroundImageFix"/>
<feBlend mode="normal" in="SourceGraphic" in2="BackgroundImageFix" result="shape"/>
<feColorMatrix in="SourceAlpha" type="matrix" values="0 0 0 0 0 0 0 0 0 0 0 0 0 0 0 0 0 0 127 0" result="hardAlpha"/>
<feOffset dx="-0.4875" dy="0.975"/>
<feGaussianBlur stdDeviation="0.24375"/>
<feComposite in2="hardAlpha" operator="arithmetic" k2="-1" k3="1"/>
<feColorMatrix type="matrix" values="0 0 0 0 1 0 0 0 0 1 0 0 0 0 1 0 0 0 0.5 0"/>
<feBlend mode="normal" in2="shape" result="effect1_innerShadow_112_17414"/>
</filter>
</defs>
</svg>
