<svg width="32" height="32" viewBox="0 0 32 32" fill="none" xmlns="http://www.w3.org/2000/svg">
<g filter="url(#filter0_i_112_17437)">
<path d="M21.2859 11.4291C21.2861 10.3836 20.9762 9.36149 20.3955 8.49208C19.8148 7.62267 18.9893 6.94499 18.0234 6.54475C17.0576 6.14451 15.9947 6.03969 14.9692 6.24354C13.9438 6.44739 13.0018 6.95075 12.2625 7.68997C11.5231 8.42919 11.0196 9.37107 10.8155 10.3965C10.6115 11.4219 10.7161 12.4848 11.1161 13.4507C11.5162 14.4167 12.1937 15.2423 13.063 15.8232C13.9323 16.404 14.9544 16.7141 15.9999 16.7141C17.4011 16.7125 18.7446 16.1552 19.7355 15.1645C20.7265 14.1737 21.284 12.8304 21.2859 11.4291ZM12.7139 11.4291C12.7137 10.7791 12.9062 10.1437 13.2672 9.60322C13.6281 9.0627 14.1413 8.64137 14.7417 8.39251C15.3421 8.14365 16.0028 8.07843 16.6403 8.20511C17.2778 8.33179 17.8634 8.64467 18.3231 9.10419C18.7827 9.5637 19.0958 10.1492 19.2227 10.7867C19.3495 11.4241 19.2845 12.0849 19.0358 12.6854C18.7872 13.2859 18.366 13.7991 17.8256 14.1602C17.2852 14.5213 16.6498 14.7141 15.9999 14.7141C15.1289 14.713 14.2938 14.3666 13.6778 13.7508C13.0619 13.135 12.7152 12.3001 12.7139 11.4291Z" fill="#C41DE5"/>
<path d="M20.9379 21.5441L21.1859 21.2441C21.7639 20.5331 22.4149 19.8381 23.0449 19.1661L23.6649 18.5001C25.0434 17.0102 25.9575 15.1508 26.2953 13.1493C26.6332 11.1479 26.3801 9.09139 25.5671 7.23159C24.7541 5.37179 23.4164 3.7894 21.7179 2.67817C20.0193 1.56694 18.0336 0.975098 16.0039 0.975098C13.9742 0.975098 11.9885 1.56694 10.2899 2.67817C8.59139 3.7894 7.25373 5.37179 6.44073 7.23159C5.62772 9.09139 5.37465 11.1479 5.7125 13.1493C6.05035 15.1508 6.96446 17.0102 8.3429 18.5001L8.9809 19.1911C9.6349 19.8911 10.3109 20.6211 10.9169 21.3681L11.0639 21.5481C7.5299 22.3581 5.3999 24.0001 5.3999 26.0001C5.3999 29.2481 10.8609 31.0001 15.9999 31.0001C21.1389 31.0001 26.5999 29.2481 26.5999 26.0001C26.5999 24.0001 24.4709 22.3591 20.9379 21.5441ZM10.4469 17.8251L9.8139 17.1411C8.75683 16.0024 8.03576 14.5932 7.73067 13.0698C7.42558 11.5463 7.54837 9.96813 8.08544 8.5102C8.62251 7.05226 9.55286 5.77156 10.7733 4.81008C11.9938 3.84861 13.4568 3.24394 14.9999 3.06312C15.3371 3.02251 15.6763 3.00147 16.0159 3.00012C18.0801 2.99376 20.0732 3.75385 21.6089 5.13312C22.4437 5.87723 23.1221 6.78013 23.6043 7.78914C24.0865 8.79815 24.363 9.89309 24.4177 11.0101C24.4723 12.1271 24.304 13.2438 23.9225 14.295C23.5411 15.3463 22.9541 16.3111 22.1959 17.1331L21.5849 17.7881C20.9319 18.4881 20.2569 19.2061 19.6369 19.9681L15.9999 24.4201L12.4659 20.1001C11.8209 19.3051 11.1229 18.5531 10.4469 17.8251ZM15.9999 29.0001C10.7499 29.0001 7.3999 27.2231 7.3999 26.0001C7.3999 25.0701 9.3069 23.8541 12.5049 23.3061L15.2259 26.6331C15.3197 26.7478 15.4378 26.8402 15.5716 26.9036C15.7055 26.967 15.8518 26.9999 15.9999 26.9999C16.148 26.9999 16.2943 26.967 16.4282 26.9036C16.562 26.8402 16.6801 26.7478 16.7739 26.6331L19.4999 23.3061C22.6999 23.8541 24.5999 25.0701 24.5999 26.0001C24.5999 27.2231 21.2499 29.0001 15.9999 29.0001Z" fill="#2937F9"/>
</g>
<defs>
<filter id="filter0_i_112_17437" x="-0.4875" y="0" width="32.4875" height="32.4875" filterUnits="userSpaceOnUse" color-interpolation-filters="sRGB">
<feFlood flood-opacity="0" result="BackgroundImageFix"/>
<feBlend mode="normal" in="SourceGraphic" in2="BackgroundImageFix" result="shape"/>
<feColorMatrix in="SourceAlpha" type="matrix" values="0 0 0 0 0 0 0 0 0 0 0 0 0 0 0 0 0 0 127 0" result="hardAlpha"/>
<feOffset dx="-0.4875" dy="0.975"/>
<feGaussianBlur stdDeviation="0.24375"/>
<feComposite in2="hardAlpha" operator="arithmetic" k2="-1" k3="1"/>
<feColorMatrix type="matrix" values="0 0 0 0 1 0 0 0 0 1 0 0 0 0 1 0 0 0 0.5 0"/>
<feBlend mode="normal" in2="shape" result="effect1_innerShadow_112_17437"/>
</filter>
</defs>
</svg>
