<svg width="50" height="52" viewBox="0 0 50 52" fill="none" xmlns="http://www.w3.org/2000/svg">
<g clip-path="url(#clip0_170_2290)" filter="url(#filter0_f_170_2290)">
<g style="mix-blend-mode:hard-light" filter="url(#filter1_f_170_2290)">
<ellipse cx="25.5" cy="26.5" rx="22.5" ry="25.5" fill="#FF3780" fill-opacity="0.2"/>
</g>
<path d="M36.6406 33.7031C36.2051 33.2661 35.6876 32.9194 35.1178 32.6828C34.5481 32.4462 33.9372 32.3244 33.3203 32.3244C32.7033 32.3244 32.0924 32.4462 31.5227 32.6828C30.9529 32.9194 30.4354 33.2661 29.9999 33.7031L27.7343 35.9688C25.1834 34.3498 22.82 32.4528 20.6874 30.3125C18.5517 28.1759 16.6551 25.813 15.0312 23.2656L17.2968 21C17.7338 20.5645 18.0806 20.0471 18.3171 19.4773C18.5537 18.9075 18.6755 18.2966 18.6755 17.6797C18.6755 17.0628 18.5537 16.4519 18.3171 15.8821C18.0806 15.3123 17.7338 14.7949 17.2968 14.3594L12.8749 9.95314C12.4456 9.51469 11.9325 9.16703 11.3662 8.93082C10.7998 8.69461 10.1917 8.57467 9.57807 8.57814C8.96008 8.57662 8.34788 8.69733 7.77671 8.9333C7.20554 9.16928 6.68667 9.51587 6.24995 9.95314L4.12495 12.0625C3.11209 13.1515 2.35615 14.4537 1.91271 15.8733C1.46926 17.2928 1.34957 18.7937 1.56245 20.2656C2.06245 26.125 5.9062 33.1719 11.8281 39.1094C17.7499 45.0469 24.8749 48.875 30.7343 49.4375C31.1715 49.4609 31.6096 49.4609 32.0468 49.4375C33.3081 49.4905 34.5673 49.2911 35.7505 48.8511C36.9338 48.411 38.0172 47.7392 38.9374 46.875L41.0468 44.75C41.4841 44.3133 41.8307 43.7944 42.0667 43.2233C42.3026 42.6521 42.4233 42.0399 42.4218 41.4219C42.4253 40.8083 42.3053 40.2002 42.0691 39.6338C41.8329 39.0674 41.4853 38.5543 41.0468 38.125L36.6406 33.7031ZM38.8437 42.5469L36.7187 44.6563C35.933 45.3111 35.0158 45.7895 34.0291 46.059C33.0425 46.3286 32.0095 46.3831 30.9999 46.2188C25.9218 45.7813 19.4531 42.1875 14.1093 36.8438C8.76557 31.5 5.17182 25.0781 4.68745 20C4.51895 18.9905 4.57138 17.9565 4.84113 16.9692C5.11088 15.9819 5.59153 15.0648 6.24995 14.2813L8.45307 12.1563C8.59907 12.0114 8.77222 11.8969 8.96259 11.8191C9.15297 11.7414 9.35681 11.7019 9.56245 11.7031C9.76808 11.7019 9.97193 11.7414 10.1623 11.8191C10.3527 11.8969 10.5258 12.0114 10.6718 12.1563L15.0937 16.625C15.3847 16.9178 15.5481 17.3138 15.5481 17.7266C15.5481 18.1394 15.3847 18.5354 15.0937 18.8281L11.9687 21.9531C11.7242 22.1965 11.567 22.5139 11.5218 22.8559C11.4766 23.1979 11.5458 23.5452 11.7187 23.8438C13.5896 27.0288 15.8636 29.9593 18.4843 32.5625C21.0876 35.1832 24.018 37.4572 27.2031 39.3281C27.5016 39.501 27.8489 39.5703 28.1909 39.525C28.5329 39.4798 28.8504 39.3227 29.0937 39.0781L32.2187 35.9531C32.5115 35.6621 32.9075 35.4988 33.3203 35.4988C33.7331 35.4988 34.1291 35.6621 34.4218 35.9531L38.8437 40.375C38.9885 40.521 39.1031 40.6942 39.1808 40.8845C39.2586 41.0749 39.298 41.2788 39.2968 41.4844C39.287 41.8834 39.1249 42.2636 38.8437 42.5469Z" fill="#C41DE5"/>
<g style="mix-blend-mode:hard-light" filter="url(#filter2_f_170_2290)">
<path d="M39.2575 42.7976L39.2546 42.8005L37.1296 44.9099L37.1125 44.9269L37.094 44.9423C36.2473 45.6479 35.2589 46.1634 34.1957 46.4539C33.1393 46.7426 32.0335 46.8023 30.9523 46.6294C25.6972 46.1685 19.1236 42.4815 13.738 37.0959C8.35226 31.7102 4.66664 25.1845 4.15819 19.9322C3.98039 18.8498 4.03797 17.7417 4.32712 16.6835C4.61798 15.6189 5.13626 14.6301 5.84622 13.7851L5.86489 13.7629L5.88577 13.7428L8.08632 11.6203C8.28348 11.4255 8.51698 11.2713 8.77358 11.1665C9.03047 11.0616 9.30548 11.0082 9.58296 11.0094M39.2575 42.7976L9.58296 11.5635M39.2575 42.7976C39.6384 42.4139 39.858 41.8989 39.8713 41.3583L39.8714 41.3583L39.8714 41.3479C39.8731 41.0694 39.8197 40.7932 39.7143 40.5354C39.609 40.2775 39.4538 40.0429 39.2576 39.8451L39.256 39.8435L34.8342 35.4217L34.833 35.4205C34.4364 35.0263 33.9 34.805 33.3408 34.805C32.7816 34.805 32.2451 35.0263 31.8486 35.4205L31.8474 35.4217L28.7224 38.5467L28.7214 38.5476C28.5644 38.7055 28.3595 38.8069 28.1388 38.836C27.9186 38.8652 27.695 38.8208 27.5027 38.7098C24.3593 36.8632 21.4672 34.6189 18.898 32.0324L18.8953 32.0297C16.3088 29.4605 14.0645 26.5684 12.2179 23.425M39.2575 42.7976L18.5048 32.4229C15.8841 29.8196 13.6101 26.8892 11.7392 23.7041M9.58296 11.0094C9.58402 11.0094 9.58509 11.0094 9.58616 11.0094L9.58296 11.5635M9.58296 11.0094C9.58189 11.0094 9.58082 11.0094 9.57975 11.0094L9.58296 11.5635M9.58296 11.0094C9.86043 11.0082 10.1354 11.0616 10.3923 11.1665C10.6502 11.2718 10.8848 11.427 11.0826 11.6232L11.0862 11.6268L11.0862 11.6269L15.5072 16.0947L15.1143 16.4853L15.5081 16.0956L15.5077 16.0953C15.9016 16.4918 16.1227 17.028 16.1227 17.5869C16.1227 18.1461 15.9014 18.6826 15.5072 19.0791L15.506 19.0803L12.381 22.2053L12.3801 22.2063C12.2222 22.3633 12.1208 22.5682 12.0917 22.7889C12.0625 23.0091 12.1069 23.2327 12.2179 23.425M9.58296 11.5635C9.78859 11.5623 9.99244 11.6017 10.1828 11.6795C10.3732 11.7572 10.5463 11.8718 10.6923 12.0166L15.1142 16.4854C15.4052 16.7781 15.5686 17.1741 15.5686 17.5869C15.5686 17.9997 15.4052 18.3957 15.1142 18.6885L11.9892 21.8135C11.7447 22.0568 11.5875 22.3742 11.5423 22.7162C11.4971 23.0582 11.5663 23.4056 11.7392 23.7041M12.2179 23.425C12.2176 23.4245 12.2173 23.424 12.217 23.4235L11.7392 23.7041M12.2179 23.425C12.2182 23.4255 12.2184 23.426 12.2187 23.4264L11.7392 23.7041M30.4123 33.9553L30.413 33.9546C30.797 33.5693 31.2533 33.2635 31.7557 33.0549C32.2581 32.8463 32.7968 32.7389 33.3408 32.7389C33.8848 32.7389 34.4234 32.8463 34.9259 33.0549C35.4283 33.2635 35.8846 33.5693 36.2686 33.9546L40.6748 38.3765L40.6748 38.3765L40.6796 38.3813C41.065 38.7586 41.3706 39.2096 41.5782 39.7075C41.7858 40.2053 41.8913 40.7397 41.8882 41.2791L41.8882 41.2836C41.8895 41.8285 41.7831 42.3684 41.575 42.872C41.367 43.3757 41.0613 43.8332 40.6758 44.2183L40.6741 44.22L38.5716 46.338C37.7067 47.1486 36.689 47.7788 35.5779 48.192C34.4638 48.6064 33.2782 48.7941 32.0906 48.7442L32.0642 48.7431L32.0378 48.7445C31.6242 48.7666 31.2097 48.7668 30.7961 48.7452C25.108 48.1949 18.1017 44.4547 12.2409 38.5784C6.37228 32.6943 2.62006 25.7623 2.13507 20.0789L2.13369 20.0627L2.13137 20.0467C1.93034 18.6567 2.04337 17.2394 2.46213 15.8988C2.8798 14.5617 3.59105 13.335 4.54379 12.3082L6.66083 10.2068L6.66083 10.2068L6.66252 10.2051C7.04761 9.81949 7.50515 9.51387 8.0088 9.30579C8.51245 9.0977 9.05228 8.99127 9.59722 8.99262L9.60171 8.9926C10.1411 8.98955 10.6755 9.09497 11.1734 9.30259C11.6712 9.51021 12.1222 9.81579 12.4995 10.2012L12.4995 10.2012L12.5043 10.206L16.9262 14.6122C16.9262 14.6122 16.9262 14.6122 16.9262 14.6123C17.3115 14.9963 17.6173 15.4525 17.8259 15.955C18.0345 16.4574 18.1419 16.996 18.1419 17.5401C18.1419 18.0841 18.0345 18.6227 17.8259 19.1251C17.6173 19.6276 17.3115 20.0839 16.9262 20.4679L16.9255 20.4685L14.6599 22.7342L14.3453 23.0487L14.5845 23.4239C16.2298 26.0049 18.1515 28.3991 20.3154 30.564C22.4769 32.7333 24.8724 34.656 27.4579 36.297L27.8327 36.5348L28.1467 36.2209L30.4123 33.9553Z" stroke="#F32E7C" stroke-width="1.10824"/>
</g>
<g style="mix-blend-mode:hard-light" filter="url(#filter3_f_170_2290)">
<path d="M30.5328 34.0759L30.5337 34.075C30.9019 33.7055 31.3394 33.4124 31.8211 33.2124C32.3028 33.0124 32.8192 32.9094 33.3408 32.9094C33.8623 32.9094 34.3788 33.0124 34.8605 33.2124C35.3422 33.4124 35.7796 33.7055 36.1478 34.075L40.554 38.4968L40.554 38.4969L40.5604 38.5031C40.9294 38.8645 41.222 39.2964 41.4209 39.7731C41.6197 40.2498 41.7206 40.7616 41.7177 41.2782L41.7177 41.284C41.719 41.8065 41.617 42.324 41.4175 42.8069C41.218 43.2898 40.9249 43.7285 40.5553 44.0977L40.5531 44.0999L38.4528 46.2157C37.6049 47.0098 36.6074 47.6273 35.5185 48.0322C34.4256 48.4386 33.2627 48.6228 32.0977 48.5739L32.0632 48.5724L32.0287 48.5743C31.6223 48.596 31.2151 48.5963 30.8087 48.5751C25.1734 48.0286 18.2036 44.3154 12.3616 38.458C6.50938 32.5903 2.78532 25.6937 2.30495 20.0644L2.30315 20.0433L2.30011 20.0223C2.10273 18.6575 2.21371 17.2659 2.62487 15.9497C3.03462 14.638 3.73213 13.4344 4.6664 12.4268L6.78094 10.3278L6.78095 10.3278L6.78316 10.3255C7.15236 9.95588 7.59103 9.66286 8.0739 9.46337C8.55678 9.26387 9.07434 9.16182 9.59681 9.1631V9.16313L9.60267 9.16309C10.1192 9.16018 10.631 9.26113 11.1077 9.45995C11.5845 9.65878 12.0163 9.95141 12.3777 10.3205L12.3777 10.3205L12.384 10.3268L16.8058 14.733C16.8058 14.733 16.8059 14.733 16.8059 14.733C17.1753 15.1012 17.4684 15.5387 17.6684 16.0203C17.8685 16.502 17.9714 17.0185 17.9714 17.5401C17.9714 18.0616 17.8685 18.5781 17.6684 19.0598C17.4684 19.5415 17.1753 19.9789 16.8058 20.3471L16.8049 20.348L14.5393 22.6136L14.128 23.025L14.4407 23.5155C16.0928 26.1071 18.0223 28.5111 20.1951 30.6848C22.3654 32.8628 24.7706 34.7933 27.3665 36.4409L27.8567 36.752L28.2672 36.3415L30.5328 34.0759ZM39.3747 42.9215L39.3785 42.9177C39.7901 42.5031 40.0274 41.9466 40.0417 41.3625H40.0419L40.0419 41.3489C40.0437 41.0479 39.986 40.7495 39.8722 40.4709C39.7584 40.1922 39.5906 39.9388 39.3787 39.7251L39.3766 39.723L34.9547 35.3011L34.9532 35.2996C34.5247 34.8736 33.945 34.6345 33.3408 34.6345C32.7365 34.6345 32.1569 34.8736 31.7284 35.2996L31.7268 35.3011L28.6018 38.4261L28.6006 38.4274C28.4701 38.5585 28.2999 38.6428 28.1165 38.667C27.9337 38.6912 27.748 38.6544 27.5883 38.5624C24.4578 36.7232 21.5776 34.4881 19.0189 31.9122L19.0155 31.9088C16.4396 29.35 14.2044 26.4698 12.3653 23.3393C12.2733 23.1796 12.2365 22.994 12.2607 22.8112C12.2849 22.6278 12.3692 22.4576 12.5003 22.3271L12.5016 22.3259L15.6266 19.2009L15.6281 19.1993C16.0541 18.7708 16.2932 18.1911 16.2932 17.5869C16.2932 16.983 16.0543 16.4035 15.6287 15.9751C15.6285 15.9749 15.6283 15.9747 15.6281 15.9745L11.2074 11.5069L11.2074 11.5069L11.2026 11.5021C10.9889 11.2902 10.7355 11.1225 10.4568 11.0087C10.1794 10.8954 9.88253 10.8377 9.58296 10.8389C9.28338 10.8377 8.98647 10.8954 8.70911 11.0087C8.43216 11.1218 8.18012 11.2881 7.96724 11.4982L5.76741 13.6201L5.7401 13.6464L5.71569 13.6755C4.98987 14.5393 4.46001 15.5502 4.16265 16.6385C3.86754 17.7186 3.80837 18.8495 3.98903 19.9542C4.50482 25.26 8.21869 31.8177 13.6174 37.2165C19.016 42.6151 25.622 46.3307 30.9313 46.7987C32.0346 46.9743 33.1627 46.9129 34.2406 46.6184C35.3274 46.3215 36.3377 45.7945 37.2031 45.0733L37.2273 45.0531L37.2497 45.0309L39.3747 42.9215Z" stroke="#FF26C2" stroke-width="1.44923"/>
</g>
<g style="mix-blend-mode:hard-light" filter="url(#filter4_ddi_170_2290)">
<path d="M39.2575 42.7976L39.2546 42.8005L37.1296 44.9099L37.1125 44.9269L37.094 44.9423C36.2473 45.6479 35.2589 46.1634 34.1957 46.4539C33.1393 46.7426 32.0335 46.8023 30.9523 46.6294C25.6972 46.1685 19.1236 42.4815 13.738 37.0959C8.35226 31.7102 4.66664 25.1845 4.15819 19.9322C3.98039 18.8498 4.03797 17.7417 4.32712 16.6835C4.61798 15.6189 5.13626 14.6301 5.84622 13.7851L5.86489 13.7629L5.88577 13.7428L8.08632 11.6203C8.28348 11.4255 8.51698 11.2713 8.77358 11.1665C9.03047 11.0616 9.30548 11.0082 9.58296 11.0094M39.2575 42.7976L9.58296 11.5635M39.2575 42.7976C39.6384 42.4139 39.858 41.8989 39.8713 41.3583L39.8714 41.3583L39.8714 41.3479C39.8731 41.0694 39.8197 40.7932 39.7143 40.5354C39.609 40.2775 39.4538 40.0429 39.2576 39.8451L39.256 39.8435L34.8342 35.4217L34.833 35.4205C34.4364 35.0263 33.9 34.805 33.3408 34.805C32.7816 34.805 32.2451 35.0263 31.8486 35.4205L31.8474 35.4217L28.7224 38.5467L28.7214 38.5476C28.5644 38.7055 28.3595 38.8069 28.1388 38.836C27.9186 38.8652 27.695 38.8208 27.5027 38.7098C24.3593 36.8632 21.4672 34.6189 18.898 32.0324L18.8953 32.0297C16.3088 29.4605 14.0645 26.5684 12.2179 23.425M39.2575 42.7976L18.5048 32.4229C15.8841 29.8196 13.6101 26.8892 11.7392 23.7041M9.58296 11.0094C9.58402 11.0094 9.58509 11.0094 9.58616 11.0094L9.58296 11.5635M9.58296 11.0094C9.58189 11.0094 9.58082 11.0094 9.57975 11.0094L9.58296 11.5635M9.58296 11.0094C9.86043 11.0082 10.1354 11.0616 10.3923 11.1665C10.6502 11.2718 10.8848 11.427 11.0826 11.6232L11.0862 11.6268L11.0862 11.6269L15.5072 16.0947L15.1143 16.4853L15.5081 16.0956L15.5077 16.0953C15.9016 16.4918 16.1227 17.028 16.1227 17.5869C16.1227 18.1461 15.9014 18.6826 15.5072 19.0791L15.506 19.0803L12.381 22.2053L12.3801 22.2063C12.2222 22.3633 12.1208 22.5682 12.0917 22.7889C12.0625 23.0091 12.1069 23.2327 12.2179 23.425M9.58296 11.5635C9.78859 11.5623 9.99244 11.6017 10.1828 11.6795C10.3732 11.7572 10.5463 11.8718 10.6923 12.0166L15.1142 16.4854C15.4052 16.7781 15.5686 17.1741 15.5686 17.5869C15.5686 17.9997 15.4052 18.3957 15.1142 18.6885L11.9892 21.8135C11.7447 22.0568 11.5875 22.3742 11.5423 22.7162C11.4971 23.0582 11.5663 23.4056 11.7392 23.7041M12.2179 23.425C12.2176 23.4245 12.2173 23.424 12.217 23.4235L11.7392 23.7041M12.2179 23.425C12.2182 23.4255 12.2184 23.426 12.2187 23.4264L11.7392 23.7041M30.4123 33.9553L30.413 33.9546C30.797 33.5693 31.2533 33.2635 31.7557 33.0549C32.2581 32.8463 32.7968 32.7389 33.3408 32.7389C33.8848 32.7389 34.4234 32.8463 34.9259 33.0549C35.4283 33.2635 35.8846 33.5693 36.2686 33.9546L40.6748 38.3765L40.6748 38.3765L40.6796 38.3813C41.065 38.7586 41.3706 39.2096 41.5782 39.7075C41.7858 40.2053 41.8913 40.7397 41.8882 41.2791L41.8882 41.2836C41.8895 41.8285 41.7831 42.3684 41.575 42.872C41.367 43.3757 41.0613 43.8332 40.6758 44.2183L40.6741 44.22L38.5716 46.338C37.7067 47.1486 36.689 47.7788 35.5779 48.192C34.4638 48.6064 33.2782 48.7941 32.0906 48.7442L32.0642 48.7431L32.0378 48.7445C31.6242 48.7666 31.2097 48.7668 30.7961 48.7452C25.108 48.1949 18.1017 44.4547 12.2409 38.5784C6.37228 32.6943 2.62006 25.7623 2.13507 20.0789L2.13369 20.0627L2.13137 20.0467C1.93034 18.6567 2.04337 17.2394 2.46213 15.8988C2.8798 14.5617 3.59105 13.335 4.54379 12.3082L6.66083 10.2068L6.66083 10.2068L6.66252 10.2051C7.04761 9.81949 7.50515 9.51387 8.0088 9.30579C8.51245 9.0977 9.05228 8.99127 9.59722 8.99262L9.60171 8.9926C10.1411 8.98955 10.6755 9.09497 11.1734 9.30259C11.6712 9.51021 12.1222 9.81579 12.4995 10.2012L12.4995 10.2012L12.5043 10.206L16.9262 14.6122C16.9262 14.6122 16.9262 14.6122 16.9262 14.6123C17.3115 14.9963 17.6173 15.4525 17.8259 15.955C18.0345 16.4574 18.1419 16.996 18.1419 17.5401C18.1419 18.0841 18.0345 18.6227 17.8259 19.1251C17.6173 19.6276 17.3115 20.0839 16.9262 20.4679L16.9255 20.4685L14.6599 22.7342L14.3453 23.0487L14.5845 23.4239C16.2298 26.0049 18.1515 28.3991 20.3154 30.564C22.4769 32.7333 24.8724 34.656 27.4579 36.297L27.8327 36.5348L28.1467 36.2209L30.4123 33.9553Z" stroke="#FB37FF" stroke-opacity="0.2" stroke-width="1.10824"/>
</g>
<g filter="url(#filter5_f_170_2290)">
<path d="M9.58296 11.2225C9.33311 11.2213 9.08547 11.2693 8.85416 11.3638C8.62302 11.4582 8.41271 11.5972 8.23522 11.7728L6.03373 13.8962L6.02088 13.9086L6.00939 13.9222C5.31926 14.7436 4.81545 15.7048 4.5327 16.7396C4.25101 17.7706 4.19541 18.8502 4.36964 19.9046C4.86886 25.09 8.51916 31.5757 13.8887 36.9452C19.2582 42.3147 25.7914 45.9658 30.9784 46.4177C32.0321 46.5874 33.1099 46.5296 34.1395 46.2483C35.1733 45.9659 36.1343 45.4647 36.9575 44.7786L36.9689 44.7691L36.9794 44.7586L39.1044 42.6493L39.1062 42.6475C39.4488 42.3024 39.6463 41.8392 39.6582 41.3531L39.6583 41.3531L39.6583 41.3467C39.6598 41.0962 39.6118 40.8479 39.517 40.6159C39.4223 40.384 39.2827 40.1731 39.1063 39.9952L39.1053 39.9942L34.6835 35.5724L34.6827 35.5717C34.3261 35.2171 33.8436 35.0181 33.3408 35.0181C32.8379 35.0181 32.3554 35.2171 31.9988 35.5717L31.9981 35.5724L28.8731 38.6974L28.8725 38.698C28.6823 38.8891 28.4341 39.012 28.1668 39.0473C27.8998 39.0826 27.6287 39.0287 27.3956 38.8941C24.2361 37.0381 21.3291 34.7823 18.7468 32.1825L18.7451 32.1809C16.1455 29.5986 13.8898 26.6918 12.0338 23.5324C11.899 23.2992 11.8451 23.028 11.8804 22.7609C11.9157 22.4936 12.0386 22.2454 12.2297 22.0552L12.2303 22.0546L15.3553 18.9296L15.356 18.9289C15.7106 18.5722 15.9096 18.0898 15.9096 17.5869C15.9096 17.0842 15.7107 16.6019 15.3564 16.2453C15.3563 16.2452 15.3562 16.2451 15.356 16.245L10.9347 11.7768L10.9347 11.7768L10.9325 11.7745C10.7546 11.5981 10.5437 11.4585 10.3117 11.3638C10.0804 11.2693 9.8328 11.2213 9.58296 11.2225ZM9.58296 11.2225C9.5823 11.2225 9.58164 11.2225 9.58099 11.2225L9.58296 11.5635L9.58493 11.2225C9.58427 11.2225 9.58361 11.2225 9.58296 11.2225ZM30.2616 33.8046L30.262 33.8042C30.6658 33.399 31.1456 33.0775 31.6739 32.8581C32.2023 32.6387 32.7687 32.5258 33.3408 32.5258C33.9128 32.5258 34.4793 32.6387 35.0076 32.8581C35.5359 33.0775 36.0157 33.399 36.4195 33.8042L40.8258 38.2261L40.8288 38.229C41.2345 38.6264 41.5563 39.1012 41.7749 39.6254C41.9935 40.1496 42.1045 40.7124 42.1013 41.2803L42.1013 41.2831C42.1027 41.8561 41.9908 42.4238 41.772 42.9534C41.5532 43.483 41.2318 43.9641 40.8264 44.3691L40.8253 44.3701L38.7202 46.4909C37.834 47.3221 36.791 47.9683 35.6522 48.3918C34.5115 48.816 33.2976 49.0082 32.0816 48.9572L32.0654 48.9565L32.0491 48.9574C31.6265 48.9799 31.2029 48.9801 30.7802 48.9577C25.0263 48.4028 17.9743 44.6288 12.09 38.7289C6.20091 32.8243 2.41348 25.8481 1.92272 20.097L1.92187 20.0871L1.92044 20.0772C1.71486 18.6557 1.83044 17.2062 2.2587 15.8353C2.68628 14.4665 3.41471 13.2107 4.39056 12.16L6.51069 10.0555L6.51173 10.0545C6.91668 9.649 7.3978 9.32762 7.92742 9.10881C8.45704 8.89 9.02471 8.77808 9.59775 8.77949L9.60051 8.77948C10.1684 8.77627 10.7312 8.88728 11.2554 9.10589C11.7796 9.32451 12.2545 9.64627 12.6518 10.0521L12.6518 10.0521L12.6548 10.055L17.0766 14.4613C17.4818 14.8651 17.8034 15.3449 18.0227 15.8732C18.2421 16.4016 18.355 16.968 18.355 17.5401C18.355 18.1121 18.2421 18.6785 18.0227 19.2069C17.8034 19.7352 17.4818 20.215 17.0766 20.6188L17.0762 20.6192L14.8106 22.8849L14.617 23.0784L14.7642 23.3093C16.4013 25.8774 18.3133 28.2596 20.4664 30.4135C22.6167 32.5717 24.9999 34.4845 27.5721 36.117L27.8028 36.2634L27.996 36.0702L30.2616 33.8046Z" stroke="#FB37FF" stroke-width="0.681991"/>
</g>
<g filter="url(#filter6_f_170_2290)">
<path d="M31.0811 34.6242L31.083 34.6223C31.3791 34.3251 31.731 34.0894 32.1184 33.9285C32.5058 33.7676 32.9212 33.6848 33.3408 33.6848C33.7603 33.6848 34.1757 33.7676 34.5631 33.9285C34.9506 34.0894 35.3025 34.3251 35.5986 34.6223L40.0048 39.0441L40.0113 39.0507L40.0179 39.0571C40.3127 39.3458 40.5464 39.6908 40.7052 40.0715C40.864 40.4524 40.9447 40.8612 40.9424 41.2738H40.9423L40.9423 41.2859C40.9434 41.7062 40.8613 42.1224 40.7008 42.5108C40.5404 42.8992 40.3047 43.2521 40.0073 43.549L40.0028 43.5536L37.9127 45.6592C37.142 46.3784 36.2364 46.938 35.2482 47.3055C34.2521 47.6759 33.1921 47.8438 32.1302 47.7992L32.0587 47.7962L31.9873 47.8C31.6139 47.82 31.2397 47.8205 30.8662 47.8016C25.4701 47.272 18.6668 43.6818 12.9106 37.9105C7.13287 32.1175 3.53689 25.3817 3.07752 19.9985L3.07379 19.9547L3.06751 19.9113C2.88672 18.6612 2.98837 17.3865 3.36498 16.1809C3.73875 14.9844 4.3739 13.8861 5.22431 12.9655L7.3272 10.8781L7.32721 10.8781L7.33178 10.8735C7.62875 10.5761 7.98158 10.3405 8.36998 10.18C8.75838 10.0195 9.17467 9.93745 9.59491 9.93848V9.93853L9.60705 9.93846C10.0196 9.93614 10.4285 10.0168 10.8093 10.1756C11.1901 10.3344 11.5351 10.5682 11.8237 10.863L11.8302 10.8695L11.8367 10.876L16.2585 15.2822C16.2585 15.2823 16.2585 15.2823 16.2585 15.2823C16.5557 15.5784 16.7915 15.9303 16.9523 16.3177C17.1132 16.7051 17.196 17.1205 17.196 17.5401C17.196 17.9596 17.1132 18.375 16.9523 18.7624C16.7915 19.1499 16.5557 19.5017 16.2585 19.7979L16.2567 19.7997L13.991 22.0653L13.1395 22.9169L13.7869 23.9323C15.4691 26.5713 17.4339 29.0191 19.6464 31.2326C21.8569 33.451 24.3068 35.4174 26.9511 37.0956L27.9657 37.7395L28.8155 36.8898L31.0811 34.6242ZM39.921 43.4718L39.9288 43.464C40.4799 42.9087 40.7977 42.1636 40.8169 41.3815L40.8172 41.3675L40.8173 41.3534C40.8196 40.9504 40.7424 40.5508 40.59 40.1777C40.4376 39.8046 40.213 39.4652 39.9292 39.179L39.9249 39.1747L35.503 34.7528L35.4998 34.7497C34.926 34.1793 34.1498 33.8591 33.3408 33.8591C32.5317 33.8591 31.7555 34.1793 31.1817 34.7497L31.1785 34.7528L28.0535 37.8778L28.0509 37.8805C28.0412 37.8902 28.0285 37.8965 28.0148 37.8983C28.0016 37.9001 27.9883 37.8976 27.9767 37.8912C24.9054 36.0864 22.0796 33.8931 19.569 31.3658L19.5691 31.3657L19.5619 31.3587C17.0346 28.8481 14.8413 26.0223 13.0365 22.951C13.0301 22.9394 13.0276 22.926 13.0294 22.9129C13.0312 22.8992 13.0375 22.8865 13.0472 22.8768L13.0499 22.8741L16.1749 19.7492L16.178 19.746C16.7484 19.1722 17.0686 18.396 17.0686 17.5869C17.0686 16.7785 16.7489 16.0028 16.1793 15.4292C16.1789 15.4287 16.1784 15.4283 16.178 15.4279L11.7586 10.9616L11.7586 10.9615L11.7487 10.9516C11.4625 10.6678 11.1231 10.4432 10.75 10.2908C10.3795 10.1395 9.98306 10.0623 9.58296 10.0635C9.18285 10.0623 8.78637 10.1395 8.41592 10.2908C8.04657 10.4417 7.71029 10.6633 7.42597 10.943L5.22911 13.062L5.17258 13.1165L5.12205 13.1766C4.32411 14.1263 3.74159 15.2377 3.41468 16.4342C3.09249 17.6134 3.02611 18.8476 3.21973 20.0542C3.76864 25.6026 7.61078 32.3064 13.0692 37.7648C18.5272 43.2228 25.2807 47.0686 30.8365 47.5687C32.0399 47.7564 33.2697 47.6875 34.445 47.3664C35.6389 47.0401 36.7488 46.4613 37.6995 45.6689L37.7496 45.6271L37.7959 45.5812L39.9209 43.4718L39.921 43.4718Z" stroke="white" stroke-width="3"/>
</g>
<path d="M41.5625 9.42186C39.391 7.24213 36.8096 5.5138 33.9669 4.33652C31.1243 3.15924 28.0768 2.55631 25 2.56249C24.5856 2.56249 24.1882 2.72711 23.8951 3.02013C23.6021 3.31316 23.4375 3.71059 23.4375 4.12499C23.4375 4.53939 23.6021 4.93681 23.8951 5.22984C24.1882 5.52287 24.5856 5.68749 25 5.68749C27.682 5.68739 30.3375 6.21843 32.8132 7.24996C35.2889 8.28149 37.5358 9.79308 39.4242 11.6975C41.3127 13.602 42.8053 15.8615 43.8159 18.3458C44.8265 20.8301 45.3352 23.49 45.3125 26.1719C45.3125 26.5863 45.4771 26.9837 45.7701 27.2767C46.0632 27.5697 46.4606 27.7344 46.875 27.7344C47.2894 27.7344 47.6868 27.5697 47.9799 27.2767C48.2729 26.9837 48.4375 26.5863 48.4375 26.1719C48.4674 23.0624 47.8745 19.9784 46.6938 17.1016C45.513 14.2249 43.7683 11.6137 41.5625 9.42186Z" fill="#C41DE5"/>
<g style="mix-blend-mode:hard-light" filter="url(#filter7_f_170_2290)">
<path d="M41.3856 9.68628L41.3843 9.68506C39.2445 7.53709 36.7007 5.83394 33.8995 4.67382C31.0983 3.5137 28.0951 2.91955 25.0632 2.92564L25.0625 2.92564C24.7382 2.92564 24.4272 3.05447 24.1979 3.28378C23.9685 3.5131 23.8397 3.82412 23.8397 4.14842C23.8397 4.47273 23.9685 4.78375 24.1979 5.01306C24.4272 5.24238 24.7382 5.37121 25.0625 5.37121L41.3856 9.68628ZM41.3856 9.68628C43.5592 11.8461 45.2785 14.4193 46.442 17.2541C47.6056 20.0889 48.1898 23.1279 48.1603 26.192H48.1603M41.3856 9.68628L48.1603 26.192M48.1603 26.192V26.1953M48.1603 26.192V26.1953M48.1603 26.1953C48.1603 26.5196 48.0315 26.8306 47.8021 27.0599C47.5728 27.2893 47.2618 27.4181 46.9375 27.4181C46.6132 27.4181 46.3022 27.2893 46.0729 27.0599C45.8439 26.831 45.7151 26.5205 45.7147 26.1967C45.7376 23.4705 45.2204 20.7666 44.1931 18.2412C43.1656 15.7154 41.648 13.418 39.7279 11.4818C37.8079 9.54547 35.5234 8.0086 33.0063 6.95981C30.4892 5.91103 27.7894 5.37111 25.0625 5.37121L48.1603 26.1953Z" stroke="#F32E7C" stroke-width="0.679426"/>
</g>
<g style="mix-blend-mode:hard-light" filter="url(#filter8_f_170_2290)">
<path d="M25.0625 5.26668C24.7659 5.26668 24.4815 5.14887 24.2718 4.93915C24.0621 4.72944 23.9442 4.445 23.9442 4.14842C23.9442 3.85184 24.0621 3.56741 24.2718 3.35769C24.4815 3.14798 24.7659 3.03016 25.0625 3.03016L25.0634 3.03016C28.0815 3.02411 31.071 3.61555 33.8595 4.77039C36.6479 5.92523 39.1802 7.62063 41.3103 9.75883L41.3119 9.76042C43.4756 11.9104 45.1871 14.4719 46.3453 17.2938C47.5036 20.1156 48.0851 23.1408 48.0558 26.191L48.0558 26.191V26.1953C48.0558 26.4919 47.9379 26.7763 47.7282 26.986C47.5185 27.1957 47.2341 27.3136 46.9375 27.3136C46.6409 27.3136 46.3565 27.1957 46.1468 26.986C45.9374 26.7767 45.8197 26.4929 45.8192 26.1969M25.0625 5.26668V5.71092M25.0625 5.26668V5.71092M25.0625 5.26668C27.8032 5.26659 30.5167 5.80924 33.0465 6.86333C35.5764 7.91742 37.8724 9.46207 39.8022 11.4082C41.7319 13.3542 43.2572 15.6632 44.2899 18.2018C45.3224 20.7398 45.8421 23.4571 45.8192 26.1969M25.0625 5.71092C27.7445 5.71083 30.4 6.24187 32.8757 7.2734C35.3514 8.30493 37.5983 9.81652 39.4867 11.721C41.3752 13.6254 42.8678 15.8849 43.8784 18.3692C44.889 20.8535 45.3977 23.5134 45.375 26.1953M25.0625 5.71092C24.6481 5.71092 24.2507 5.5463 23.9576 5.25328C23.6646 4.96025 23.5 4.56282 23.5 4.14842C23.5 3.73402 23.6646 3.33659 23.9576 3.04357C24.2507 2.75054 24.6481 2.58592 25.0625 2.58592C28.1393 2.57975 31.1868 3.18268 34.0294 4.35996C36.8721 5.53723 39.4535 7.26556 41.625 9.4453L48.5 26.1953C48.5 26.6097 48.3354 27.0071 48.0424 27.3002C47.7493 27.5932 47.3519 27.7578 46.9375 27.7578C46.5231 27.7578 46.1257 27.5932 45.8326 27.3002C45.5396 27.0071 45.375 26.6097 45.375 26.1953M45.8192 26.1969C45.8192 26.1976 45.8192 26.1983 45.8192 26.1991L45.375 26.1953M45.8192 26.1969C45.8192 26.1964 45.8192 26.1958 45.8192 26.1953H45.375" stroke="#FF26C2" stroke-width="0.88848"/>
</g>
<g style="mix-blend-mode:hard-light" filter="url(#filter9_ddi_170_2290)">
<path d="M41.3856 9.68628L41.3843 9.68506C39.2445 7.53709 36.7007 5.83394 33.8995 4.67382C31.0983 3.5137 28.0951 2.91955 25.0632 2.92564L25.0625 2.92564C24.7382 2.92564 24.4272 3.05447 24.1979 3.28378C23.9685 3.5131 23.8397 3.82412 23.8397 4.14842C23.8397 4.47273 23.9685 4.78375 24.1979 5.01306C24.4272 5.24238 24.7382 5.37121 25.0625 5.37121L41.3856 9.68628ZM41.3856 9.68628C43.5592 11.8461 45.2785 14.4193 46.442 17.2541C47.6056 20.0889 48.1898 23.1279 48.1603 26.192H48.1603M41.3856 9.68628L48.1603 26.192M48.1603 26.192V26.1953M48.1603 26.192V26.1953M48.1603 26.1953C48.1603 26.5196 48.0315 26.8306 47.8021 27.0599C47.5728 27.2893 47.2618 27.4181 46.9375 27.4181C46.6132 27.4181 46.3022 27.2893 46.0729 27.0599C45.8439 26.831 45.7151 26.5205 45.7147 26.1967C45.7376 23.4705 45.2204 20.7666 44.1931 18.2412C43.1656 15.7154 41.648 13.418 39.7279 11.4818C37.8079 9.54547 35.5234 8.0086 33.0063 6.95981C30.4892 5.91103 27.7894 5.37111 25.0625 5.37121L48.1603 26.1953Z" stroke="#FB37FF" stroke-opacity="0.2" stroke-width="0.679426"/>
</g>
<g filter="url(#filter10_f_170_2290)">
<path d="M41.4776 9.59359L41.4769 9.59284C39.3249 7.43265 36.7666 5.71982 33.9494 4.5531C31.1323 3.38638 28.1121 2.78886 25.0629 2.79498L25.0625 2.79498C24.7035 2.79498 24.3593 2.93757 24.1055 3.19139C23.8516 3.44521 23.7091 3.78947 23.7091 4.14842C23.7091 4.50738 23.8516 4.85163 24.1055 5.10545C24.3593 5.35927 24.7035 5.50187 25.0625 5.50187L41.4776 9.59359ZM41.4776 9.59359C43.6637 11.7657 45.3927 14.3535 46.5629 17.2045C47.733 20.0554 48.3206 23.1117 48.2909 26.1933V26.1953M41.4776 9.59359L48.2909 26.1953M48.2909 26.1953C48.2909 26.5543 48.1484 26.8985 47.8945 27.1523C47.6407 27.4061 47.2965 27.5487 46.9375 27.5487C46.5785 27.5487 46.2343 27.4061 45.9805 27.1523C45.7268 26.8987 45.5843 26.5548 45.5841 26.1961C45.6069 23.4869 45.093 20.8001 44.0721 18.2905C43.051 15.7806 41.5431 13.4978 39.6352 11.5738C37.7273 9.64972 35.4572 8.12257 32.9561 7.08042C30.4549 6.03828 27.7721 5.50177 25.0625 5.50187L48.2909 26.1953Z" stroke="#FB37FF" stroke-width="0.418108"/>
</g>
<g filter="url(#filter11_f_170_2290)">
<path d="M40.5677 10.5093L40.5623 10.504L40.5623 10.5039C38.5306 8.46446 36.1152 6.84733 33.4555 5.74581C30.7958 4.64428 27.9443 4.08014 25.0655 4.08592L25.0625 4.08593C25.0459 4.08592 25.03 4.09251 25.0183 4.10423C25.0066 4.11595 25 4.13185 25 4.14842C25 4.165 25.0066 4.1809 25.0183 4.19262L23.9576 5.25328L25.0183 4.19262C25.03 4.20434 25.0459 4.21092 25.0625 4.21092M40.5677 10.5093L45.375 26.1953M40.5677 10.5093C42.6315 12.56 44.2639 15.0031 45.3686 17.6946C46.4734 20.3862 47.0281 23.2716 47.0001 26.1809L47 26.1881V26.1953C47 26.2119 46.9934 26.2278 46.9817 26.2395L48.0424 27.3002M40.5677 10.5093L48.0424 27.3002M25.0625 4.21092V5.71092V4.21092ZM25.0625 4.21092C27.9426 4.21082 30.7941 4.78107 33.4526 5.88878C36.1111 6.99648 38.5239 8.6197 40.5518 10.6648C42.5797 12.7098 44.1826 15.1363 45.2678 17.804C46.3518 20.4685 46.898 23.321 46.875 26.1974M46.875 26.1974C46.875 26.2009 46.875 26.2044 46.8749 26.208L45.375 26.1953M46.875 26.1974C46.875 26.1967 46.875 26.196 46.875 26.1953H45.375M46.875 26.1974C46.8756 26.2132 46.8821 26.2283 46.8933 26.2395L45.8326 27.3002M45.375 26.1953C45.375 26.6097 45.5396 27.0071 45.8326 27.3002M45.8326 27.3002L46.8933 26.2395C46.905 26.2512 46.9209 26.2578 46.9375 26.2578C46.9541 26.2578 46.97 26.2512 46.9817 26.2395L48.0424 27.3002M45.8326 27.3002H48.0424" stroke="white" stroke-width="3"/>
</g>
<path d="M33.1719 17.9218C34.0586 18.8032 34.7601 19.853 35.2351 21.0096C35.71 22.1661 35.9489 23.406 35.9375 24.6562C35.9375 25.0706 36.1021 25.468 36.3951 25.761C36.6882 26.0541 37.0856 26.2187 37.5 26.2187C37.9144 26.2187 38.3118 26.0541 38.6049 25.761C38.8979 25.468 39.0625 25.0706 39.0625 24.6562C39.0832 23.0016 38.7751 21.3593 38.1562 19.8246C37.5373 18.29 36.6198 16.8935 35.457 15.7162C34.2942 14.5388 32.9093 13.6041 31.3824 12.9662C29.8556 12.3282 28.2173 11.9998 26.5625 11.9999C26.1481 11.9999 25.7507 12.1646 25.4576 12.4576C25.1646 12.7506 25 13.148 25 13.5624C25 13.9768 25.1646 14.3743 25.4576 14.6673C25.7507 14.9603 26.1481 15.1249 26.5625 15.1249C27.7939 15.1342 29.0114 15.386 30.1454 15.8659C31.2795 16.3458 32.3079 17.0444 33.1719 17.9218Z" fill="#C41DE5"/>
<g style="mix-blend-mode:hard-light" filter="url(#filter12_f_170_2290)">
<path d="M35.9375 24.6563C35.9375 25.0707 36.1021 25.4681 36.3951 25.7611C36.6882 26.0541 37.0856 26.2188 37.5 26.2188C37.9144 26.2188 38.3118 26.0541 38.6049 25.7611C38.8979 25.4681 39.0625 25.0707 39.0625 24.6563L36.129 24.6571M35.9375 24.6563L36.129 24.658C36.129 24.6577 36.129 24.6574 36.129 24.6571M35.9375 24.6563C35.9489 23.406 35.71 22.1662 35.2351 21.0096C34.7601 19.8531 34.0586 18.8033 33.1719 17.9219L35.9375 24.6563ZM36.129 24.6571C36.1292 25.0204 36.2736 25.3688 36.5306 25.6257C36.7877 25.8828 37.1364 26.0273 37.5 26.0273C37.8636 26.0273 38.2123 25.8828 38.4694 25.6257C38.7266 25.3686 38.871 25.0199 38.871 24.6563V24.6539H38.871C38.8914 23.0246 38.5881 21.4075 37.9786 19.8963C37.3692 18.3852 36.4658 17.0101 35.3208 15.8508C34.1758 14.6915 32.812 13.7711 31.3086 13.1429C29.8051 12.5148 28.1919 12.1914 26.5625 12.1915H26.5625C26.1989 12.1915 25.8502 12.3359 25.5931 12.5931C25.3359 12.8502 25.1915 13.1989 25.1915 13.5625C25.1915 13.9261 25.3359 14.2748 25.5931 14.5319C25.8502 14.7891 26.1989 14.9335 26.5625 14.9335H26.5639L26.5639 14.9335C27.8205 14.943 29.0628 15.1999 30.22 15.6896C31.3769 16.1792 32.4261 16.8918 33.3076 17.7868C34.2121 18.686 34.9277 19.7571 35.4122 20.9369C35.8968 22.1168 36.1405 23.3817 36.129 24.6571Z" stroke="#F32E7C" stroke-width="0.382988"/>
</g>
<g style="mix-blend-mode:hard-light" filter="url(#filter13_f_170_2290)">
<path d="M38.8121 24.6531H38.8121V24.6563C38.8121 25.0042 38.6738 25.338 38.4278 25.584C38.1817 25.8301 37.848 25.9683 37.5 25.9683C37.152 25.9683 36.8183 25.8301 36.5722 25.584C36.3264 25.3382 36.1882 25.0049 36.1879 24.6573C36.1994 23.3741 35.9542 22.1016 35.4667 20.9145C34.9792 19.7275 34.2593 18.6499 33.3494 17.7452C32.4625 16.8448 31.4069 16.1279 30.243 15.6353C29.0787 15.1426 27.8287 14.8841 26.5644 14.8746V14.8746H26.5625C26.2145 14.8746 25.8808 14.7363 25.6347 14.4903C25.3887 14.2442 25.2504 13.9105 25.2504 13.5625C25.2504 13.2145 25.3887 12.8808 25.6347 12.6347C25.8808 12.3887 26.2145 12.2504 26.5625 12.2504H26.5625C28.1841 12.2503 29.7896 12.5721 31.2859 13.1973C32.7821 13.8224 34.1394 14.7385 35.2789 15.8922C36.4184 17.0459 37.3175 18.4145 37.924 19.9184C38.5305 21.4223 38.8324 23.0316 38.8121 24.6531Z" stroke="#FF26C2" stroke-width="0.500831"/>
</g>
<g style="mix-blend-mode:hard-light" filter="url(#filter14_ddi_170_2290)">
<path d="M35.9375 24.6563C35.9375 25.0707 36.1021 25.4681 36.3951 25.7611C36.6882 26.0541 37.0856 26.2188 37.5 26.2188C37.9144 26.2188 38.3118 26.0541 38.6049 25.7611C38.8979 25.4681 39.0625 25.0707 39.0625 24.6563L36.129 24.6571M35.9375 24.6563L36.129 24.658C36.129 24.6577 36.129 24.6574 36.129 24.6571M35.9375 24.6563C35.9489 23.406 35.71 22.1662 35.2351 21.0096C34.7601 19.8531 34.0586 18.8033 33.1719 17.9219L35.9375 24.6563ZM36.129 24.6571C36.1292 25.0204 36.2736 25.3688 36.5306 25.6257C36.7877 25.8828 37.1364 26.0273 37.5 26.0273C37.8636 26.0273 38.2123 25.8828 38.4694 25.6257C38.7266 25.3686 38.871 25.0199 38.871 24.6563V24.6539H38.871C38.8914 23.0246 38.5881 21.4075 37.9786 19.8963C37.3692 18.3852 36.4658 17.0101 35.3208 15.8508C34.1758 14.6915 32.812 13.7711 31.3086 13.1429C29.8051 12.5148 28.1919 12.1914 26.5625 12.1915H26.5625C26.1989 12.1915 25.8502 12.3359 25.5931 12.5931C25.3359 12.8502 25.1915 13.1989 25.1915 13.5625C25.1915 13.9261 25.3359 14.2748 25.5931 14.5319C25.8502 14.7891 26.1989 14.9335 26.5625 14.9335H26.5639L26.5639 14.9335C27.8205 14.943 29.0628 15.1999 30.22 15.6896C31.3769 16.1792 32.4261 16.8918 33.3076 17.7868C34.2121 18.686 34.9277 19.7571 35.4122 20.9369C35.8968 22.1168 36.1405 23.3817 36.129 24.6571Z" stroke="#FB37FF" stroke-opacity="0.2" stroke-width="0.382988"/>
</g>
<g filter="url(#filter15_f_170_2290)">
<path d="M38.9447 24.6548H38.9447V24.6563C38.9447 25.0394 38.7925 25.4069 38.5215 25.6778C38.2506 25.9487 37.8831 26.1009 37.5 26.1009C37.1169 26.1009 36.7494 25.9487 36.4785 25.6778C36.2077 25.407 36.0555 25.0397 36.0553 24.6568C36.0668 23.391 35.8249 22.1358 35.3441 20.9649C34.8632 19.794 34.1531 18.7311 33.2554 17.8387C32.3806 16.9505 31.3395 16.2433 30.1913 15.7574C29.043 15.2715 27.8102 15.0166 26.5634 15.0072V15.0072H26.5625C26.1794 15.0072 25.8119 14.855 25.541 14.584C25.27 14.3131 25.1178 13.9456 25.1178 13.5625C25.1178 13.1794 25.27 12.8119 25.541 12.541C25.8119 12.27 26.1794 12.1178 26.5625 12.1178H26.5625C28.2017 12.1177 29.8245 12.443 31.337 13.075C32.8494 13.7069 34.2214 14.6328 35.3732 15.799C36.525 16.9653 37.4338 18.3486 38.0469 19.8688C38.66 21.389 38.9652 23.0158 38.9447 24.6548Z" stroke="#FB37FF" stroke-width="0.235685"/>
</g>
<g filter="url(#filter16_f_170_2290)">
<path d="M37.5626 24.6375L37.5625 24.6469V24.6563C37.5625 24.6728 37.5559 24.6887 37.5442 24.7004C37.5325 24.7122 37.5166 24.7188 37.5 24.7188C37.4834 24.7188 37.4675 24.7122 37.4558 24.7004C37.4446 24.6892 37.4381 24.6742 37.4375 24.6584C37.4491 23.212 37.1721 21.7779 36.6226 20.4398C36.0727 19.1007 35.2609 17.8849 34.235 16.8637C33.2339 15.8486 32.043 15.0402 30.73 14.4845C29.4145 13.9279 28.0022 13.6358 26.5738 13.625L26.5738 13.625H26.5625C26.5459 13.625 26.53 13.6184 26.5183 13.6067C26.5066 13.595 26.5 13.5791 26.5 13.5625C26.5 13.5459 26.5066 13.53 26.5183 13.5183C26.53 13.5066 26.5459 13.5 26.5625 13.5H26.5626C28.0188 13.4999 29.4605 13.7889 30.8041 14.3503C32.1478 14.9117 33.3665 15.7342 34.3898 16.7703C35.4131 17.8063 36.2204 19.0353 36.7651 20.3857C37.3097 21.7362 37.5808 23.1814 37.5626 24.6375Z" stroke="white" stroke-width="3"/>
</g>
</g>
<defs>
<filter id="filter0_f_170_2290" x="-0.130215" y="0.869785" width="50.2604" height="50.2604" filterUnits="userSpaceOnUse" color-interpolation-filters="sRGB">
<feFlood flood-opacity="0" result="BackgroundImageFix"/>
<feBlend mode="normal" in="SourceGraphic" in2="BackgroundImageFix" result="shape"/>
<feGaussianBlur stdDeviation="0.0651073" result="effect1_foregroundBlur_170_2290"/>
</filter>
<filter id="filter1_f_170_2290" x="-12" y="-14" width="75" height="81" filterUnits="userSpaceOnUse" color-interpolation-filters="sRGB">
<feFlood flood-opacity="0" result="BackgroundImageFix"/>
<feBlend mode="normal" in="SourceGraphic" in2="BackgroundImageFix" result="shape"/>
<feGaussianBlur stdDeviation="7.5" result="effect1_foregroundBlur_170_2290"/>
</filter>
<filter id="filter2_f_170_2290" x="-3.63446" y="3.32348" width="51.1918" height="51.1068" filterUnits="userSpaceOnUse" color-interpolation-filters="sRGB">
<feFlood flood-opacity="0" result="BackgroundImageFix"/>
<feBlend mode="normal" in="SourceGraphic" in2="BackgroundImageFix" result="shape"/>
<feGaussianBlur stdDeviation="2.55747" result="effect1_foregroundBlur_170_2290"/>
</filter>
<filter id="filter3_f_170_2290" x="-0.224509" y="6.73344" width="44.3719" height="44.2869" filterUnits="userSpaceOnUse" color-interpolation-filters="sRGB">
<feFlood flood-opacity="0" result="BackgroundImageFix"/>
<feBlend mode="normal" in="SourceGraphic" in2="BackgroundImageFix" result="shape"/>
<feGaussianBlur stdDeviation="0.852489" result="effect1_foregroundBlur_170_2290"/>
</filter>
<filter id="filter4_ddi_170_2290" x="-0.736002" y="7.92692" width="45.3949" height="45.3099" filterUnits="userSpaceOnUse" color-interpolation-filters="sRGB">
<feFlood flood-opacity="0" result="BackgroundImageFix"/>
<feColorMatrix in="SourceAlpha" type="matrix" values="0 0 0 0 0 0 0 0 0 0 0 0 0 0 0 0 0 0 127 0" result="hardAlpha"/>
<feOffset dy="1.10824"/>
<feGaussianBlur stdDeviation="0.426244"/>
<feColorMatrix type="matrix" values="0 0 0 0 0.3 0 0 0 0 0 0 0 0 0 0.26 0 0 0 0.7 0"/>
<feBlend mode="multiply" in2="BackgroundImageFix" result="effect1_dropShadow_170_2290"/>
<feColorMatrix in="SourceAlpha" type="matrix" values="0 0 0 0 0 0 0 0 0 0 0 0 0 0 0 0 0 0 127 0" result="hardAlpha"/>
<feOffset dy="1.70498"/>
<feGaussianBlur stdDeviation="1.10824"/>
<feColorMatrix type="matrix" values="0 0 0 0 0.6 0 0 0 0 0 0 0 0 0 0.6 0 0 0 1 0"/>
<feBlend mode="color-dodge" in2="effect1_dropShadow_170_2290" result="effect2_dropShadow_170_2290"/>
<feBlend mode="normal" in="SourceGraphic" in2="effect2_dropShadow_170_2290" result="shape"/>
<feColorMatrix in="SourceAlpha" type="matrix" values="0 0 0 0 0 0 0 0 0 0 0 0 0 0 0 0 0 0 127 0" result="hardAlpha"/>
<feOffset dx="-0.110824" dy="0.221647"/>
<feGaussianBlur stdDeviation="0.0554118"/>
<feComposite in2="hardAlpha" operator="arithmetic" k2="-1" k3="1"/>
<feColorMatrix type="matrix" values="0 0 0 0 1 0 0 0 0 1 0 0 0 0 1 0 0 0 0.5 0"/>
<feBlend mode="normal" in2="shape" result="effect3_innerShadow_170_2290"/>
</filter>
<filter id="filter5_f_170_2290" x="1.30997" y="8.26792" width="41.3029" height="41.2179" filterUnits="userSpaceOnUse" color-interpolation-filters="sRGB">
<feFlood flood-opacity="0" result="BackgroundImageFix"/>
<feBlend mode="normal" in="SourceGraphic" in2="BackgroundImageFix" result="shape"/>
<feGaussianBlur stdDeviation="0.0852489" result="effect1_foregroundBlur_170_2290"/>
</filter>
<filter id="filter6_f_170_2290" x="1.3668" y="8.32475" width="41.1892" height="41.1043" filterUnits="userSpaceOnUse" color-interpolation-filters="sRGB">
<feFlood flood-opacity="0" result="BackgroundImageFix"/>
<feBlend mode="normal" in="SourceGraphic" in2="BackgroundImageFix" result="shape"/>
<feGaussianBlur stdDeviation="0.0568326" result="effect1_foregroundBlur_170_2290"/>
</filter>
<filter id="filter7_f_170_2290" x="20.3642" y="-0.549936" width="31.2726" height="31.4436" filterUnits="userSpaceOnUse" color-interpolation-filters="sRGB">
<feFlood flood-opacity="0" result="BackgroundImageFix"/>
<feBlend mode="normal" in="SourceGraphic" in2="BackgroundImageFix" result="shape"/>
<feGaussianBlur stdDeviation="1.56791" result="effect1_foregroundBlur_170_2290"/>
</filter>
<filter id="filter8_f_170_2290" x="22.4547" y="1.54061" width="27.0915" height="27.2625" filterUnits="userSpaceOnUse" color-interpolation-filters="sRGB">
<feFlood flood-opacity="0" result="BackgroundImageFix"/>
<feBlend mode="normal" in="SourceGraphic" in2="BackgroundImageFix" result="shape"/>
<feGaussianBlur stdDeviation="0.522635" result="effect1_foregroundBlur_170_2290"/>
</filter>
<filter id="filter9_ddi_170_2290" x="22.1411" y="2.2723" width="27.7187" height="27.8896" filterUnits="userSpaceOnUse" color-interpolation-filters="sRGB">
<feFlood flood-opacity="0" result="BackgroundImageFix"/>
<feColorMatrix in="SourceAlpha" type="matrix" values="0 0 0 0 0 0 0 0 0 0 0 0 0 0 0 0 0 0 127 0" result="hardAlpha"/>
<feOffset dy="0.679426"/>
<feGaussianBlur stdDeviation="0.261318"/>
<feColorMatrix type="matrix" values="0 0 0 0 0.3 0 0 0 0 0 0 0 0 0 0.26 0 0 0 0.7 0"/>
<feBlend mode="multiply" in2="BackgroundImageFix" result="effect1_dropShadow_170_2290"/>
<feColorMatrix in="SourceAlpha" type="matrix" values="0 0 0 0 0 0 0 0 0 0 0 0 0 0 0 0 0 0 127 0" result="hardAlpha"/>
<feOffset dy="1.04527"/>
<feGaussianBlur stdDeviation="0.679426"/>
<feColorMatrix type="matrix" values="0 0 0 0 0.6 0 0 0 0 0 0 0 0 0 0.6 0 0 0 1 0"/>
<feBlend mode="color-dodge" in2="effect1_dropShadow_170_2290" result="effect2_dropShadow_170_2290"/>
<feBlend mode="normal" in="SourceGraphic" in2="effect2_dropShadow_170_2290" result="shape"/>
<feColorMatrix in="SourceAlpha" type="matrix" values="0 0 0 0 0 0 0 0 0 0 0 0 0 0 0 0 0 0 127 0" result="hardAlpha"/>
<feOffset dx="-0.0679426" dy="0.135885"/>
<feGaussianBlur stdDeviation="0.0339713"/>
<feComposite in2="hardAlpha" operator="arithmetic" k2="-1" k3="1"/>
<feColorMatrix type="matrix" values="0 0 0 0 1 0 0 0 0 1 0 0 0 0 1 0 0 0 0.5 0"/>
<feBlend mode="normal" in2="shape" result="effect3_innerShadow_170_2290"/>
</filter>
<filter id="filter10_f_170_2290" x="23.3955" y="2.48135" width="25.21" height="25.381" filterUnits="userSpaceOnUse" color-interpolation-filters="sRGB">
<feFlood flood-opacity="0" result="BackgroundImageFix"/>
<feBlend mode="normal" in="SourceGraphic" in2="BackgroundImageFix" result="shape"/>
<feGaussianBlur stdDeviation="0.0522635" result="effect1_foregroundBlur_170_2290"/>
</filter>
<filter id="filter11_f_170_2290" x="23.4303" y="2.51619" width="25.1403" height="25.3113" filterUnits="userSpaceOnUse" color-interpolation-filters="sRGB">
<feFlood flood-opacity="0" result="BackgroundImageFix"/>
<feBlend mode="normal" in="SourceGraphic" in2="BackgroundImageFix" result="shape"/>
<feGaussianBlur stdDeviation="0.0348424" result="effect1_foregroundBlur_170_2290"/>
</filter>
<filter id="filter12_f_170_2290" x="23.2324" y="10.2324" width="17.5988" height="17.754" filterUnits="userSpaceOnUse" color-interpolation-filters="sRGB">
<feFlood flood-opacity="0" result="BackgroundImageFix"/>
<feBlend mode="normal" in="SourceGraphic" in2="BackgroundImageFix" result="shape"/>
<feGaussianBlur stdDeviation="0.88382" result="effect1_foregroundBlur_170_2290"/>
</filter>
<filter id="filter13_f_170_2290" x="24.4108" y="11.4108" width="15.2419" height="15.3972" filterUnits="userSpaceOnUse" color-interpolation-filters="sRGB">
<feFlood flood-opacity="0" result="BackgroundImageFix"/>
<feBlend mode="normal" in="SourceGraphic" in2="BackgroundImageFix" result="shape"/>
<feGaussianBlur stdDeviation="0.294607" result="effect1_foregroundBlur_170_2290"/>
</filter>
<filter id="filter14_ddi_170_2290" x="24.234" y="11.8232" width="15.5954" height="15.7507" filterUnits="userSpaceOnUse" color-interpolation-filters="sRGB">
<feFlood flood-opacity="0" result="BackgroundImageFix"/>
<feColorMatrix in="SourceAlpha" type="matrix" values="0 0 0 0 0 0 0 0 0 0 0 0 0 0 0 0 0 0 127 0" result="hardAlpha"/>
<feOffset dy="0.382988"/>
<feGaussianBlur stdDeviation="0.147303"/>
<feColorMatrix type="matrix" values="0 0 0 0 0.3 0 0 0 0 0 0 0 0 0 0.26 0 0 0 0.7 0"/>
<feBlend mode="multiply" in2="BackgroundImageFix" result="effect1_dropShadow_170_2290"/>
<feColorMatrix in="SourceAlpha" type="matrix" values="0 0 0 0 0 0 0 0 0 0 0 0 0 0 0 0 0 0 127 0" result="hardAlpha"/>
<feOffset dy="0.589213"/>
<feGaussianBlur stdDeviation="0.382988"/>
<feColorMatrix type="matrix" values="0 0 0 0 0.6 0 0 0 0 0 0 0 0 0 0.6 0 0 0 1 0"/>
<feBlend mode="color-dodge" in2="effect1_dropShadow_170_2290" result="effect2_dropShadow_170_2290"/>
<feBlend mode="normal" in="SourceGraphic" in2="effect2_dropShadow_170_2290" result="shape"/>
<feColorMatrix in="SourceAlpha" type="matrix" values="0 0 0 0 0 0 0 0 0 0 0 0 0 0 0 0 0 0 127 0" result="hardAlpha"/>
<feOffset dx="-0.0382988" dy="0.0765977"/>
<feGaussianBlur stdDeviation="0.0191494"/>
<feComposite in2="hardAlpha" operator="arithmetic" k2="-1" k3="1"/>
<feColorMatrix type="matrix" values="0 0 0 0 1 0 0 0 0 1 0 0 0 0 1 0 0 0 0.5 0"/>
<feBlend mode="normal" in2="shape" result="effect3_innerShadow_170_2290"/>
</filter>
<filter id="filter15_f_170_2290" x="24.9411" y="11.9411" width="14.1813" height="14.3366" filterUnits="userSpaceOnUse" color-interpolation-filters="sRGB">
<feFlood flood-opacity="0" result="BackgroundImageFix"/>
<feBlend mode="normal" in="SourceGraphic" in2="BackgroundImageFix" result="shape"/>
<feGaussianBlur stdDeviation="0.0294607" result="effect1_foregroundBlur_170_2290"/>
</filter>
<filter id="filter16_f_170_2290" x="24.9607" y="11.9607" width="14.142" height="14.2973" filterUnits="userSpaceOnUse" color-interpolation-filters="sRGB">
<feFlood flood-opacity="0" result="BackgroundImageFix"/>
<feBlend mode="normal" in="SourceGraphic" in2="BackgroundImageFix" result="shape"/>
<feGaussianBlur stdDeviation="0.0196404" result="effect1_foregroundBlur_170_2290"/>
</filter>
<clipPath id="clip0_170_2290">
<rect width="50" height="50" fill="white" transform="translate(0 1)"/>
</clipPath>
</defs>
</svg>
