<svg width="50" height="50" viewBox="0 0 50 50" fill="none" xmlns="http://www.w3.org/2000/svg">
<g clip-path="url(#clip0_112_17428)">
<path d="M6.3711 23.4595L15.8087 28.163C16.1737 28.3431 16.6046 28.3302 16.9536 28.126L25.354 23.2424L20.2694 27.7481C20.0105 27.9781 19.8625 28.3061 19.8625 28.6518V39.6267C19.8625 40.7845 21.3403 41.2717 22.0334 40.3519L26.113 34.928L36.2018 40.6735C36.9093 41.0803 37.8162 40.6719 37.9803 39.8631L44.2725 8.50637C44.4606 7.56406 43.5232 6.79542 42.6516 7.14597L6.47079 21.2565C5.49954 21.636 5.43683 22.9948 6.3711 23.4595ZM41.4745 10.1948L35.9445 37.7517L26.3847 32.3069C25.8637 32.0094 25.1932 32.1413 24.8233 32.6301L22.2746 36.0183V29.1938L36.0249 17.0113C37.1135 16.0481 35.8625 14.3355 34.6195 15.0655L16.3039 25.714L9.88465 22.5156L41.4745 10.1948Z" fill="#C41DE5"/>
<g style="mix-blend-mode:hard-light" filter="url(#filter0_f_112_17428)">
<path d="M6.65235 22.8316L6.65279 22.8318L16.0881 27.5342C16.0883 27.5343 16.0886 27.5344 16.0889 27.5346C16.2658 27.6215 16.4702 27.613 16.6315 27.5186L16.6331 27.5176L25.0334 22.634L25.7735 23.6579L20.6894 28.1632C20.6893 28.1633 20.6892 28.1634 20.6891 28.1635C20.5654 28.2735 20.4958 28.429 20.4958 28.5923V39.5671C20.4958 40.1101 21.1953 40.3478 21.5249 39.9103L25.6042 34.4869L25.9401 34.0403L26.4256 34.3168L36.5144 40.0623L36.5167 40.0636C36.8464 40.2532 37.2779 40.064 37.3565 39.6779C37.3566 39.6777 37.3566 39.6775 37.3567 39.6773L43.6485 8.32251L6.65235 22.8316ZM6.65235 22.8316C6.21316 22.6131 6.24011 21.9681 6.70022 21.7882M6.65235 22.8316L6.70022 21.7882M6.70035 21.7882L42.8808 7.67781L42.8808 7.67784L42.887 7.67534C43.2881 7.51403 43.7379 7.87235 43.6486 8.3219L6.70035 21.7882ZM6.70035 21.7882C6.70031 21.7882 6.70027 21.7882 6.70022 21.7882M6.70035 21.7882L6.70022 21.7882M42.0954 10.2601L42.3238 9.12204L41.2424 9.54383L9.65253 21.8646L8.31768 22.3852L9.6001 23.0242L16.0194 26.2226L16.3257 26.3752L16.6215 26.2032L34.9371 15.5548L34.9395 15.5533C35.5228 15.2108 36.1136 16.0243 35.6028 16.4763L35.6025 16.4766L21.8521 28.659L21.6383 28.8485V29.1342V35.9587V37.8585L22.7804 36.3403L25.3281 32.9536C25.3282 32.9534 25.3283 32.9532 25.3285 32.9531C25.5052 32.72 25.8237 32.6588 26.0685 32.7986L26.0691 32.7989L35.6289 38.2437L36.3925 38.6787L36.5654 37.817L42.0954 10.2601Z" stroke="#F32E7C" stroke-width="1.26959"/>
</g>
<g style="mix-blend-mode:hard-light" filter="url(#filter1_f_112_17428)">
<path d="M6.73991 22.657L6.73934 22.6567C6.45245 22.514 6.46843 22.0886 6.77135 21.9701C6.77138 21.9701 6.77141 21.9701 6.77144 21.9701L42.9518 7.85978L42.9518 7.85982L42.9599 7.85655C43.2164 7.75337 43.5165 7.98596 43.457 8.28426L37.1652 39.6385C37.1652 39.6389 37.1651 39.6392 37.165 39.6395C37.1125 39.8954 36.8275 40.017 36.6141 39.8943L36.6111 39.8926L26.5223 34.1471L25.8873 33.7855L25.4481 34.3695L21.3689 39.7928C21.1511 40.0819 20.6912 39.921 20.6912 39.5671V28.5923C20.6912 28.485 20.7367 28.3826 20.8188 28.3095C20.8189 28.3094 20.819 28.3093 20.8191 28.3092L25.903 23.8041L24.9353 22.4652L16.5349 27.3488L16.5328 27.35C16.4293 27.4106 16.2945 27.4178 16.1755 27.3595C16.1752 27.3593 16.1748 27.3592 16.1745 27.359L6.73991 22.657ZM42.2869 10.2986L42.5856 8.81029L41.1714 9.36186L9.58156 21.6826L7.83598 22.3634L9.51299 23.199L15.9323 26.3974L16.3328 26.597L16.7197 26.372L35.0352 15.7236L35.0384 15.7218C35.1615 15.6495 35.2452 15.6538 35.3023 15.6689C35.374 15.688 35.4576 15.7411 35.5234 15.8316C35.5891 15.9221 35.6134 16.0174 35.6091 16.091C35.6058 16.1495 35.5839 16.2322 35.4733 16.33L35.4729 16.3304L21.7226 28.5128L21.443 28.7606V29.1342V35.9587V38.4431L22.9365 36.4577L25.4838 33.0714C25.484 33.0712 25.4842 33.071 25.4843 33.0707C25.6017 32.9164 25.8119 32.877 25.9716 32.9682L25.9724 32.9687L35.5322 38.4135L36.5308 38.9822L36.7569 37.8555L42.2869 10.2986Z" stroke="#FF26C2" stroke-width="1.66024"/>
</g>
<g style="mix-blend-mode:hard-light" filter="url(#filter2_ddi_112_17428)">
<path d="M6.65235 22.8316L6.65279 22.8318L16.0881 27.5342C16.0883 27.5343 16.0886 27.5344 16.0889 27.5346C16.2658 27.6215 16.4702 27.613 16.6315 27.5186L16.6331 27.5176L25.0334 22.634L25.7735 23.6579L20.6894 28.1632C20.6893 28.1633 20.6892 28.1634 20.6891 28.1635C20.5654 28.2735 20.4958 28.429 20.4958 28.5923V39.5671C20.4958 40.1101 21.1953 40.3478 21.5249 39.9103L25.6042 34.4869L25.9401 34.0403L26.4256 34.3168L36.5144 40.0623L36.5167 40.0636C36.8464 40.2532 37.2779 40.064 37.3565 39.6779C37.3566 39.6777 37.3566 39.6775 37.3567 39.6773L43.6485 8.32251L6.65235 22.8316ZM6.65235 22.8316C6.21316 22.6131 6.24011 21.9681 6.70022 21.7882M6.65235 22.8316L6.70022 21.7882M6.70035 21.7882L42.8808 7.67781L42.8808 7.67784L42.887 7.67534C43.2881 7.51403 43.7379 7.87235 43.6486 8.3219L6.70035 21.7882ZM6.70035 21.7882C6.70031 21.7882 6.70027 21.7882 6.70022 21.7882M6.70035 21.7882L6.70022 21.7882M42.0954 10.2601L42.3238 9.12204L41.2424 9.54383L9.65253 21.8646L8.31768 22.3852L9.6001 23.0242L16.0194 26.2226L16.3257 26.3752L16.6215 26.2032L34.9371 15.5548L34.9395 15.5533C35.5228 15.2108 36.1136 16.0243 35.6028 16.4763L35.6025 16.4766L21.8521 28.659L21.6383 28.8485V29.1342V35.9587V37.8585L22.7804 36.3403L25.3281 32.9536C25.3282 32.9534 25.3283 32.9532 25.3285 32.9531C25.5052 32.72 25.8237 32.6588 26.0685 32.7986L26.0691 32.7989L35.6289 38.2437L36.3925 38.6787L36.5654 37.817L42.0954 10.2601Z" stroke="#FB37FF" stroke-opacity="0.2" stroke-width="1.26959"/>
</g>
<g filter="url(#filter3_f_112_17428)">
<path d="M6.54361 23.0502L6.54388 23.0503L15.98 27.7531C15.9803 27.7532 15.9805 27.7533 15.9807 27.7535C16.23 27.8761 16.5214 27.8659 16.7548 27.7293L16.7558 27.7287L25.1562 22.8451L25.6116 23.4752L20.5273 27.9806C20.5273 27.9806 20.5273 27.9806 20.5273 27.9807C20.3515 28.1368 20.2517 28.3587 20.2517 28.5923V39.5671C20.2517 40.3465 21.2502 40.6802 21.7197 40.0575L6.54361 23.0502ZM6.54361 23.0502C5.91398 22.737 5.95471 21.8174 6.6115 21.5608L42.7921 7.45034L42.7921 7.45036L42.7959 7.44882C43.378 7.21468 44.0156 7.73106 43.888 8.37031L37.5959 39.7259L6.54361 23.0502ZM25.7993 34.6336L21.7199 40.0573L37.5958 39.7266C37.484 40.2751 36.8699 40.5484 36.395 40.2753L36.3936 40.2745L26.3048 34.529L26.006 34.3588L25.7993 34.6336ZM41.8561 10.2121L41.9966 9.51173L41.3311 9.77129L9.74124 22.0921L8.9198 22.4124L9.70898 22.8057L16.1283 26.004L16.3168 26.098L16.4988 25.9921L34.8143 15.3437L34.8158 15.3428C35.6529 14.8512 36.4976 16.0105 35.7646 16.6591L35.7644 16.6593L22.0141 28.8418L21.8825 28.9584V29.1342V35.9587V37.1278L22.5853 36.1935L25.1334 32.8062C25.1335 32.8061 25.1337 32.8059 25.1338 32.8057C25.3849 32.4744 25.8386 32.3862 26.1895 32.5866L26.1899 32.5868L35.7497 38.0316L36.2196 38.2992L36.326 37.769L41.8561 10.2121Z" stroke="#FB37FF" stroke-width="0.781288"/>
</g>
<g filter="url(#filter4_f_112_17428)">
<path d="M6.45662 23.225L6.45676 23.2251L15.8936 27.9283C15.8937 27.9283 15.8938 27.9284 15.8939 27.9284C16.2011 28.0798 16.5623 28.0683 16.8535 27.8979L16.8539 27.8976L25.2543 23.014L25.482 23.329L20.3976 27.8346C20.1802 28.0276 20.0564 28.3026 20.0564 28.5923V39.5671C20.0564 40.5357 21.2947 40.9462 21.8759 40.1748L25.9554 34.751L26.0587 34.6136L26.2081 34.6987L36.297 40.4442L36.2977 40.4446C36.8889 40.7846 37.6494 40.4437 37.7873 39.7651L6.45662 23.225ZM6.45662 23.225C5.67467 22.8361 5.72639 21.6969 6.54041 21.3788L42.7211 7.26838L42.723 7.26761M6.45662 23.225L42.723 7.26761M42.723 7.26761C43.4498 6.97529 44.2373 7.61767 44.0795 8.40837L42.723 7.26761ZM44.0795 8.40855L37.7874 39.7647L44.0795 8.40855ZM41.6646 10.1737L41.7348 9.82348L41.4021 9.95326L9.81222 22.274L9.40149 22.4342L9.79608 22.6308L16.2154 25.8292L16.3096 25.8762L16.4006 25.8232L34.7162 15.1748L34.7169 15.1744C35.7569 14.5636 36.8048 15.9995 35.894 16.8054L35.8939 16.8055L22.1436 28.988L22.0778 29.0463V29.1342V35.9587V36.5432L22.4292 36.0761L24.9776 32.6884C24.9777 32.6883 24.9778 32.6882 24.9778 32.6881C25.2883 32.2781 25.8504 32.168 26.2864 32.417L26.2866 32.4171L35.8464 37.8619L36.0813 37.9957L36.1345 37.7306L41.6646 10.1737Z" stroke="white" stroke-width="0.390644"/>
</g>
</g>
<defs>
<filter id="filter0_f_112_17428" x="-0.156045" y="1.14034" width="50.3111" height="45.4928" filterUnits="userSpaceOnUse" color-interpolation-filters="sRGB">
<feFlood flood-opacity="0" result="BackgroundImageFix"/>
<feBlend mode="normal" in="SourceGraphic" in2="BackgroundImageFix" result="shape"/>
<feGaussianBlur stdDeviation="2.92983" result="effect1_foregroundBlur_112_17428"/>
</filter>
<filter id="filter1_f_112_17428" x="3.75039" y="5.04678" width="42.4982" height="37.6799" filterUnits="userSpaceOnUse" color-interpolation-filters="sRGB">
<feFlood flood-opacity="0" result="BackgroundImageFix"/>
<feBlend mode="normal" in="SourceGraphic" in2="BackgroundImageFix" result="shape"/>
<feGaussianBlur stdDeviation="0.97661" result="effect1_foregroundBlur_112_17428"/>
</filter>
<filter id="filter2_ddi_112_17428" x="3.16443" y="6.41403" width="43.6702" height="38.8518" filterUnits="userSpaceOnUse" color-interpolation-filters="sRGB">
<feFlood flood-opacity="0" result="BackgroundImageFix"/>
<feColorMatrix in="SourceAlpha" type="matrix" values="0 0 0 0 0 0 0 0 0 0 0 0 0 0 0 0 0 0 127 0" result="hardAlpha"/>
<feOffset dy="1.26959"/>
<feGaussianBlur stdDeviation="0.488305"/>
<feColorMatrix type="matrix" values="0 0 0 0 0.3 0 0 0 0 0 0 0 0 0 0.26 0 0 0 0.7 0"/>
<feBlend mode="multiply" in2="BackgroundImageFix" result="effect1_dropShadow_112_17428"/>
<feColorMatrix in="SourceAlpha" type="matrix" values="0 0 0 0 0 0 0 0 0 0 0 0 0 0 0 0 0 0 127 0" result="hardAlpha"/>
<feOffset dy="1.95322"/>
<feGaussianBlur stdDeviation="1.26959"/>
<feColorMatrix type="matrix" values="0 0 0 0 0.6 0 0 0 0 0 0 0 0 0 0.6 0 0 0 1 0"/>
<feBlend mode="color-dodge" in2="effect1_dropShadow_112_17428" result="effect2_dropShadow_112_17428"/>
<feBlend mode="normal" in="SourceGraphic" in2="effect2_dropShadow_112_17428" result="shape"/>
<feColorMatrix in="SourceAlpha" type="matrix" values="0 0 0 0 0 0 0 0 0 0 0 0 0 0 0 0 0 0 127 0" result="hardAlpha"/>
<feOffset dx="-0.126959" dy="0.253919"/>
<feGaussianBlur stdDeviation="0.0634796"/>
<feComposite in2="hardAlpha" operator="arithmetic" k2="-1" k3="1"/>
<feColorMatrix type="matrix" values="0 0 0 0 1 0 0 0 0 1 0 0 0 0 1 0 0 0 0.5 0"/>
<feBlend mode="normal" in2="shape" result="effect3_innerShadow_112_17428"/>
</filter>
<filter id="filter3_f_112_17428" x="5.50829" y="6.80468" width="38.9824" height="34.1641" filterUnits="userSpaceOnUse" color-interpolation-filters="sRGB">
<feFlood flood-opacity="0" result="BackgroundImageFix"/>
<feBlend mode="normal" in="SourceGraphic" in2="BackgroundImageFix" result="shape"/>
<feGaussianBlur stdDeviation="0.097661" result="effect1_foregroundBlur_112_17428"/>
</filter>
<filter id="filter4_f_112_17428" x="5.5734" y="6.86979" width="38.8522" height="34.0339" filterUnits="userSpaceOnUse" color-interpolation-filters="sRGB">
<feFlood flood-opacity="0" result="BackgroundImageFix"/>
<feBlend mode="normal" in="SourceGraphic" in2="BackgroundImageFix" result="shape"/>
<feGaussianBlur stdDeviation="0.0651073" result="effect1_foregroundBlur_112_17428"/>
</filter>
<clipPath id="clip0_112_17428">
<rect width="50" height="50" fill="white"/>
</clipPath>
</defs>
</svg>
