<svg width="32" height="32" viewBox="0 0 32 32" fill="none" xmlns="http://www.w3.org/2000/svg">
<g filter="url(#filter0_i_112_17441)">
<path d="M17.024 15.5758L17.0234 7.31298C17.0234 6.74724 16.5647 6.28906 15.9995 6.28906C15.4343 6.28906 14.9756 6.74724 14.9756 7.31298L14.9761 15.9995C14.9761 16.2713 15.0843 16.5314 15.2762 16.7239L20.6364 22.0841C20.8367 22.2838 21.0985 22.3836 21.3608 22.3836C21.6226 22.3836 21.8844 22.2843 22.0841 22.0841C22.484 21.6842 22.484 21.0364 22.0841 20.6359L17.024 15.5758Z" fill="#C41DE5"/>
<path d="M32 16.0002C32 15.9953 31.9993 15.9905 31.9993 15.9856C31.9913 7.1693 24.8173 0.000488281 15.9997 0.000488281C7.17731 0.000488281 0 7.1778 0 16.0002C0 24.8226 7.17731 31.9994 15.9997 31.9994C24.8173 31.9994 31.9913 24.8311 31.9993 16.0148C31.9993 16.0099 32 16.0051 32 16.0002ZM17.0236 29.9144V28.3225C17.0236 27.7568 16.565 27.2986 15.9997 27.2986C15.4345 27.2986 14.9758 27.7568 14.9758 28.3225V29.9144C8.09711 29.413 2.58683 23.9023 2.08553 17.0236H3.67744C4.24318 17.0236 4.70135 16.5659 4.70135 16.0002C4.70135 15.4345 4.24318 14.9763 3.67744 14.9763H2.08546C2.58658 8.09735 8.09692 2.58682 14.9758 2.08545V3.67736C14.9758 4.24254 15.4345 4.70128 15.9997 4.70128C16.5655 4.70128 17.0236 4.2426 17.0236 3.67736V2.08545C23.9028 2.58682 29.4126 8.09753 29.914 14.9763H28.3226C27.7569 14.9763 27.2981 15.4339 27.2981 15.9996C27.2981 16.5654 27.7568 17.0236 28.3226 17.0236H29.914C29.4129 23.9025 23.903 29.4131 17.0236 29.9144Z" fill="#2937F9"/>
</g>
<defs>
<filter id="filter0_i_112_17441" x="-0.4875" y="0" width="32.4875" height="32.4875" filterUnits="userSpaceOnUse" color-interpolation-filters="sRGB">
<feFlood flood-opacity="0" result="BackgroundImageFix"/>
<feBlend mode="normal" in="SourceGraphic" in2="BackgroundImageFix" result="shape"/>
<feColorMatrix in="SourceAlpha" type="matrix" values="0 0 0 0 0 0 0 0 0 0 0 0 0 0 0 0 0 0 127 0" result="hardAlpha"/>
<feOffset dx="-0.4875" dy="0.975"/>
<feGaussianBlur stdDeviation="0.24375"/>
<feComposite in2="hardAlpha" operator="arithmetic" k2="-1" k3="1"/>
<feColorMatrix type="matrix" values="0 0 0 0 1 0 0 0 0 1 0 0 0 0 1 0 0 0 0.5 0"/>
<feBlend mode="normal" in2="shape" result="effect1_innerShadow_112_17441"/>
</filter>
</defs>
</svg>
