<svg width="50" height="50" viewBox="0 0 50 50" fill="none" xmlns="http://www.w3.org/2000/svg">
<g clip-path="url(#clip0_112_17419)">
<path d="M25.2639 38.6251C31.5824 38.6251 29.3294 34.6251 29.8171 33.475C29.8099 32.616 29.8026 31.7898 29.8317 31.2875C30.2321 31.4003 31.1766 31.879 33.1274 33.7752C36.1392 36.8143 36.909 38.6251 39.3421 38.6251H43.8207C45.2402 38.6251 45.979 38.0373 46.3485 37.5441C46.7052 37.0673 47.0546 36.2302 46.6724 34.9272C45.6733 31.7898 39.8462 26.3722 39.4841 25.8007C39.5387 25.6952 39.626 25.5551 39.6715 25.4823H39.6679C40.818 23.9627 45.2074 17.3858 45.8535 14.7544C45.8553 14.7507 45.8571 14.7453 45.8571 14.7398C46.2065 13.5387 45.8862 12.7598 45.555 12.3194C45.0564 11.6607 44.2629 11.3276 43.1911 11.3276H38.7125C37.2129 11.3276 36.0755 12.0829 35.5005 13.4605C34.5378 15.9081 31.8335 20.9418 29.8062 22.7234C29.7443 20.1993 29.7862 18.2721 29.819 16.8399C29.8845 14.0465 30.0956 11.3276 27.1966 11.3276H20.1575C18.3413 11.3276 16.6034 13.3112 18.4851 15.6661C20.1302 17.7298 19.0765 18.8799 19.4314 24.6051C18.0483 23.1219 15.5879 19.1165 13.8481 13.9973C13.3604 12.6124 12.6216 11.3295 10.5415 11.3295H6.06292C4.24673 11.3295 3.16211 12.3194 3.16211 13.9773C3.16211 17.7007 11.4041 38.6251 25.2639 38.6251ZM10.5415 14.0592C10.9364 14.0592 10.9765 14.0592 11.2694 14.8909C13.0511 20.1374 17.0474 27.9008 19.9664 27.9008C22.1593 27.9008 22.1593 25.6533 22.1593 24.8071L22.1575 18.0701C22.0374 15.8408 21.2257 14.7307 20.6925 14.0574L27.0765 14.0647C27.0801 14.0956 27.0401 21.5169 27.0947 23.3148C27.0947 25.8681 29.122 27.3312 32.2866 24.1283C35.626 20.3594 37.9354 14.7253 38.0282 14.496C38.1647 14.1684 38.283 14.0574 38.7125 14.0574H43.1911H43.2093C43.2074 14.0628 43.2074 14.0683 43.2056 14.0738C42.7962 15.9846 38.7543 22.0737 37.4022 23.9645C37.3804 23.9936 37.3603 24.0246 37.3403 24.0555C36.7452 25.0273 36.2612 26.101 37.4222 27.6115H37.424C37.5296 27.7389 37.8044 28.0373 38.2047 28.4522C39.4495 29.737 43.7188 34.1301 44.0973 35.8771C43.8462 35.9172 43.5732 35.888 39.3421 35.8971C38.4413 35.8971 37.737 34.5505 35.0491 31.8389C32.6324 29.4877 31.0637 28.5268 29.6352 28.5268C26.8617 28.5268 27.0637 30.778 27.0892 33.5004C27.0983 36.4522 27.0801 35.5186 27.1001 35.7042C26.9382 35.7679 26.4741 35.8953 25.2639 35.8953C13.7171 35.8953 6.19758 17.5678 5.90823 14.0647C6.00832 14.0556 7.38593 14.061 10.5415 14.0592Z" fill="#C41DE5"/>
<g style="mix-blend-mode:hard-light" filter="url(#filter0_f_112_17419)">
<path d="M38.9796 25.7048H38.5615L39.2292 24.8226C39.7899 24.0818 41.1645 22.074 42.4803 19.9208C43.1373 18.8457 43.775 17.7418 44.2871 16.7476C44.7907 15.7697 45.1541 14.9328 45.307 14.3439V14.3338L45.3252 14.2712L45.3339 14.2358L45.3374 14.2287C45.6218 13.2213 45.346 12.6293 45.1156 12.3228C44.7505 11.8412 44.1459 11.5501 43.1911 11.5501H38.7125C37.4354 11.5501 36.4999 12.1714 36.0103 13.3397C35.5155 14.5963 34.586 16.4899 33.5269 18.2927C32.4749 20.0836 31.2547 21.8552 30.1694 22.809L29.2851 23.5861L29.2563 22.4092C29.194 19.8717 29.2362 17.9339 29.269 16.4997L29.269 16.4994C29.2719 16.3753 29.275 16.2526 29.278 16.1313C29.3107 14.8396 29.3392 13.7088 29.0915 12.8633C28.9622 12.4219 28.77 12.1104 28.5025 11.904C28.2365 11.6987 27.835 11.5501 27.1966 11.5501H20.1575C19.4361 11.5501 18.7419 11.9483 18.4187 12.5473C18.1177 13.1054 18.0826 13.9536 18.9148 14.995L18.9152 14.9955C19.3625 15.5566 19.6446 16.0797 19.8064 16.6507C19.9659 17.2138 19.9991 17.7918 19.9922 18.4408C19.9884 18.7923 19.9732 19.1686 19.9563 19.586C19.9102 20.724 19.8518 22.167 19.9805 24.2434L20.0754 25.7747L19.029 24.6527C17.5763 23.0948 15.0836 19.0135 13.3283 13.8496C13.0918 13.1789 12.8194 12.6122 12.4076 12.21C12.0157 11.8273 11.4541 11.552 10.5415 11.552H6.06292C5.25113 11.552 4.6725 11.7725 4.30232 12.1104C3.93868 12.4423 3.71224 12.9455 3.71224 13.6497C3.71224 14.0394 3.8247 14.7158 4.07419 15.6334C4.32023 16.5384 4.68923 17.6413 5.17761 18.8682C6.15459 21.3226 7.60088 24.2525 9.4735 27.0649C13.2412 32.7234 18.623 37.7473 25.2639 37.7473C26.7963 37.7473 27.731 37.5029 28.2986 37.1773C28.8408 36.8662 29.0823 36.462 29.1935 36.0195C29.3124 35.5469 29.2845 35.0241 29.2402 34.4821C29.2373 34.4475 29.2344 34.4125 29.2315 34.3772C29.2127 34.1518 29.193 33.9164 29.1905 33.7053C29.1882 33.5061 29.199 33.2741 29.2662 33.055C29.2593 32.2385 29.2532 31.4333 29.2825 30.928L29.3221 30.2447L29.9809 30.4304C30.522 30.5829 31.55 31.1471 33.5109 33.0531L33.5182 33.0603L33.5182 33.0603C34.2819 33.831 34.9029 34.5232 35.4371 35.1209L35.4822 35.1714C36.0008 35.7516 36.4261 36.2275 36.8314 36.614C37.6385 37.3837 38.3103 37.7473 39.3421 37.7473H43.8207C45.0598 37.7473 45.6382 37.2469 45.908 36.8869L38.9796 25.7048ZM38.9796 25.7048L39.0194 25.7676C39.0992 25.8936 39.2744 26.0847 39.4546 26.2769C39.6275 26.4613 39.8499 26.6924 40.1051 26.9577C40.1436 26.9978 40.183 27.0387 40.223 27.0803C40.8354 27.7172 41.6231 28.5399 42.4294 29.4409C43.2367 30.343 44.0561 31.3163 44.7328 32.2526C45.4143 33.1954 45.9227 34.0626 46.1463 34.7604C46.4735 35.8823 46.1676 36.5397 45.9082 36.8866L38.9796 25.7048ZM10.5415 13.1814H10.5412C9.41922 13.1821 8.52234 13.1818 7.82739 13.1816C7.54516 13.1815 7.29623 13.1814 7.07906 13.1814C6.70349 13.1814 6.42221 13.1817 6.22838 13.1825C6.0545 13.1832 5.91432 13.1841 5.85842 13.1891L5.31505 13.2385L5.35996 13.7823C5.43992 14.7504 5.99448 16.6208 6.92344 18.8385C7.86107 21.077 9.20509 23.7284 10.9073 26.272C14.2845 31.3184 19.1948 36.1178 25.2639 36.1178C26.501 36.1178 27.0454 35.9893 27.3015 35.8886L27.6921 35.735L27.6471 35.3176L27.6471 35.3173C27.6462 35.3091 27.6444 35.2923 27.6409 35.2713C27.6419 35.07 27.6436 34.5336 27.6394 33.1711L27.6393 33.1676C27.6378 33.0027 27.6356 32.8415 27.6336 32.6838C27.6268 32.1772 27.6206 31.7069 27.6361 31.2664C27.6563 30.6894 27.7131 30.2133 27.8359 29.8348C27.9554 29.4664 28.1291 29.2153 28.3744 29.0475C28.6254 28.8758 29.0129 28.7493 29.6352 28.7493C30.8171 28.7493 32.2392 29.5457 34.6619 31.9021C35.603 32.8517 36.2873 33.6198 36.8357 34.2355C37.0652 34.4933 37.271 34.7243 37.4618 34.9307C37.7762 35.2707 38.0648 35.5598 38.3483 35.7635C38.6414 35.9741 38.9649 36.1196 39.3421 36.1196L39.3433 36.1196C41.0823 36.1159 42.1517 36.1186 42.8267 36.1203C42.9723 36.1207 43.0996 36.121 43.2112 36.1212C43.8157 36.1223 44.0034 36.1215 44.1839 36.0928L44.7581 36.0012L44.635 35.433C44.5147 34.8779 44.1162 34.196 43.6431 33.5181C43.1551 32.819 42.5337 32.0501 41.893 31.305C40.6363 29.8435 39.2768 28.4404 38.6379 27.7811L38.6006 27.7426C38.6005 27.7425 38.6004 27.7423 38.6002 27.7422C38.1987 27.326 37.938 27.0419 37.8476 26.9328L37.8323 26.9143C37.3404 26.262 37.2353 25.7596 37.2708 25.3515C37.309 24.9112 37.5159 24.4953 37.8059 24.0211C37.8252 23.9913 37.8343 23.9776 37.8423 23.9669L37.8424 23.967L37.8497 23.9569C38.5332 23.0011 39.8886 20.9956 41.1258 18.9876C41.7444 17.9836 42.3373 16.9725 42.803 16.0881C43.2551 15.2295 43.617 14.4361 43.7403 13.8763L43.9725 13.1796H43.2093H43.1911H38.7125C38.4682 13.1796 38.1912 13.2069 37.9496 13.3723C37.7082 13.5376 37.5941 13.7797 37.5204 13.9567L37.5204 13.9567L37.5183 13.9619C37.4257 14.1906 35.15 19.7334 31.8848 23.4246C30.3416 24.9826 29.2581 25.2135 28.6694 25.0278C28.1054 24.85 27.6448 24.1628 27.6448 22.9872V22.9789L27.6446 22.9705C27.6176 22.0824 27.6139 19.7884 27.6166 17.7002C27.618 16.6588 27.6209 15.6724 27.6233 14.9444L27.6262 14.0713L27.6268 13.827L27.6268 13.76L27.6267 13.7389L27.6266 13.7279L27.6263 13.7172L27.6257 13.7054C27.6254 13.6997 27.624 13.6835 27.6228 13.6728L27.5658 13.1874L27.0771 13.1869L20.6931 13.1796L19.5541 13.1783L20.2612 14.0713C20.7519 14.6909 21.4928 15.6913 21.6074 17.7575L21.6092 24.4795C21.6092 24.4795 21.6092 24.4796 21.6092 24.4796C21.6092 24.9149 21.6033 25.5819 21.3763 26.1347C21.2672 26.4005 21.1163 26.6145 20.9109 26.7636C20.7097 26.9097 20.416 27.023 19.9664 27.023C19.4659 27.023 18.805 26.6755 18.0148 25.8884C17.2455 25.1221 16.4429 24.0288 15.6608 22.7488C14.0986 20.1921 12.6703 16.9775 11.7904 14.3863L11.7904 14.3863L11.7883 14.3804C11.7154 14.1733 11.6519 13.9998 11.5917 13.8621C11.5341 13.7303 11.4598 13.5835 11.3479 13.4623C11.0819 13.1743 10.7373 13.1789 10.5758 13.1811C10.5632 13.1813 10.5517 13.1814 10.5415 13.1814ZM27.2917 35.8638C27.2292 35.888 27.155 35.903 27.0686 35.8988C27.1433 35.8932 27.2213 35.8788 27.29 35.8594C27.304 35.8554 27.3177 35.8512 27.3308 35.8469C27.3183 35.8529 27.3053 35.8586 27.2917 35.8638Z" stroke="#F32E7C" stroke-width="1.10027"/>
</g>
<g style="mix-blend-mode:hard-light" filter="url(#filter1_f_112_17419)">
<path d="M36.1671 13.4034C35.6682 14.67 34.7348 16.5707 33.6729 18.3785C32.6202 20.1704 31.3885 21.963 30.2811 22.9362L29.1248 23.9524L29.087 22.4134C29.0247 19.8717 29.0669 17.9306 29.0997 16.4958L29.0998 16.4954C29.1026 16.3738 29.1056 16.2538 29.1086 16.1354C29.1412 14.8328 29.1689 13.7294 28.9291 12.9108C28.8064 12.492 28.6298 12.2161 28.399 12.038C28.1703 11.8615 27.8084 11.7194 27.1966 11.7194H20.1575C19.4935 11.7194 18.8591 12.0876 18.5677 12.6277C18.3052 13.1143 18.2483 13.8897 19.0471 14.8894L19.0476 14.89C19.506 15.465 19.8001 16.0078 19.9692 16.6046C20.1353 17.1909 20.1684 17.788 20.1614 18.4426C20.1576 18.8 20.1422 19.1799 20.1252 19.5998C20.0792 20.7366 20.0213 22.166 20.1494 24.233L20.2735 26.2354L18.9052 24.7681C17.4311 23.1873 14.9285 19.0827 13.1683 13.905C12.9342 13.2411 12.6723 12.7051 12.2893 12.3311C11.9325 11.9826 11.4149 11.7212 10.5415 11.7212H6.06292C5.28076 11.7212 4.74723 11.9334 4.41644 12.2354C4.09419 12.5295 3.88152 12.9839 3.88152 13.6497C3.88152 14.016 3.98895 14.6747 4.23753 15.589C4.48161 16.4868 4.84842 17.5835 5.33488 18.8056C6.30808 21.2506 7.74913 24.1697 9.6144 26.9711C13.3743 32.6179 18.712 37.578 25.2639 37.578C26.7818 37.578 27.6829 37.3354 28.2144 37.0305C28.7126 36.7446 28.9282 36.3809 29.0294 35.9783C29.1405 35.5361 29.1159 35.0396 29.0715 34.4959C29.0687 34.4618 29.0658 34.4271 29.0629 34.392C29.0441 34.1672 29.0238 33.9249 29.0213 33.7073C29.019 33.511 29.0284 33.2684 29.0967 33.0312C29.0899 32.2254 29.0841 31.425 29.1135 30.9182L29.1653 30.0247L30.0268 30.2674C30.6112 30.4321 31.6649 31.0227 33.6288 32.9317L33.6385 32.9411L33.6384 32.9412C34.4055 33.7152 35.0289 34.4102 35.5633 35.0081L35.6053 35.0551C36.1266 35.6383 36.5479 36.1097 36.9483 36.4915C37.7351 37.2419 38.3671 37.578 39.3421 37.578H43.8207C45.0043 37.578 45.5333 37.1046 45.7724 36.7855L36.1671 13.4034ZM36.1671 13.4034C36.6304 12.2995 37.5038 11.7194 38.7125 11.7194H43.1911C44.1104 11.7194 44.6571 11.9979 44.981 12.4254C45.1802 12.6909 45.4407 13.2242 45.1788 14.1675L45.174 14.177L45.1616 14.2274L45.1377 14.3097V14.3221C44.9868 14.8905 44.6334 15.7053 44.1366 16.6701C43.6271 17.6594 42.9916 18.7595 42.3358 19.8325C41.0219 21.9826 39.6505 23.9855 39.0942 24.7205L38.2211 25.874H38.8867C38.9806 26.0158 39.1622 26.2125 39.3312 26.3927C39.5049 26.5779 39.7281 26.81 39.9832 27.0752C40.0218 27.1153 40.061 27.1561 40.101 27.1976C40.7133 27.8344 41.4991 28.6552 42.3033 29.5538C43.1086 30.4537 43.9237 31.4222 44.5956 32.3517C45.2738 33.29 45.7691 34.1391 45.9846 34.8105C46.2946 35.8762 46.0022 36.4782 45.7727 36.7851L36.1671 13.4034ZM10.5415 13.0122L10.5411 13.0122C9.41924 13.0128 8.52252 13.0125 7.82759 13.0123C7.54531 13.0122 7.29632 13.0122 7.07906 13.0122C6.70352 13.0122 6.42191 13.0124 6.22768 13.0132C6.05955 13.0139 5.90849 13.0146 5.8431 13.0206L5.13253 13.0852L5.19127 13.7962C5.27357 14.7927 5.83746 16.684 6.76731 18.9039C7.70851 21.1509 9.05747 23.8122 10.7667 26.3662C14.1493 31.4207 19.1037 36.2871 25.2639 36.2871C26.5093 36.2871 27.0783 36.1582 27.3634 36.0461L27.8743 35.8452L27.8154 35.2995L27.8153 35.2985C27.8145 35.2915 27.813 35.2772 27.8103 35.2587C27.8113 35.0469 27.8127 34.5042 27.8086 33.1706L27.8086 33.1661C27.807 32.9993 27.8049 32.8369 27.8028 32.6785C27.7961 32.173 27.7899 31.7084 27.8052 31.2723C27.8253 30.7005 27.8814 30.243 27.9969 29.8871C28.1081 29.5442 28.2632 29.3287 28.4699 29.1872C28.6842 29.0407 29.0347 28.9186 29.6352 28.9186C30.7412 28.9186 32.1183 29.6644 34.5428 32.0224C35.4801 32.9681 36.1583 33.7296 36.7056 34.3441C36.9363 34.6031 37.1438 34.836 37.3376 35.0456C37.6525 35.3863 37.951 35.6865 38.2495 35.901C38.5606 36.1244 38.9181 36.2889 39.3421 36.2889L39.3437 36.2889C41.0822 36.2852 42.1511 36.2879 42.8261 36.2896C42.9718 36.29 43.0992 36.2903 43.2109 36.2905C43.808 36.2916 44.0131 36.2914 44.2106 36.2599L44.9614 36.1402L44.8004 35.3972C44.6723 34.8057 44.2551 34.0992 43.7819 33.4213C43.2893 32.7154 42.6638 31.9418 42.0214 31.1947C40.7613 29.7292 39.3989 28.3232 38.7599 27.6637L38.7224 27.6251C38.7223 27.6249 38.7222 27.6248 38.722 27.6246C38.3201 27.2081 38.0637 26.9283 37.978 26.8248L37.9652 26.8094C37.4953 26.1852 37.4083 25.7242 37.4394 25.3661C37.474 24.9683 37.6616 24.5816 37.9491 24.1113C37.9677 24.0826 37.9737 24.0739 37.9777 24.0685L37.9826 24.062L37.9874 24.0554C38.6732 23.0963 40.0308 21.0876 41.2699 19.0764C41.8895 18.0707 42.4846 17.0561 42.9528 16.167C43.4021 15.3137 43.773 14.5058 43.9037 13.9215L44.2074 13.0103H43.2093H43.1911H38.7125C38.4591 13.0103 38.139 13.0374 37.854 13.2326C37.5691 13.4277 37.4396 13.7106 37.3641 13.8916L37.3641 13.8916L37.3614 13.8984C37.2689 14.1269 35.0036 19.6416 31.7612 23.3089C30.2303 24.8531 29.2128 25.0217 28.7203 24.8664C28.2604 24.7214 27.8141 24.1317 27.8141 22.9872V22.9763L27.8138 22.9654C27.7869 22.0806 27.7831 19.7899 27.7859 17.7004C27.7872 16.6592 27.7902 15.673 27.7926 14.9449L27.7955 14.0718L27.7961 13.8273L27.7961 13.7596L27.796 13.7374L27.7958 13.7244L27.7954 13.7109L27.7947 13.6956C27.7942 13.6882 27.7925 13.667 27.791 13.653L27.7163 13.0183L27.0773 13.0176L20.6933 13.0103L19.2038 13.0086L20.1285 14.1764C20.6062 14.7795 21.3253 15.7461 21.4381 17.7623L21.4399 24.4795C21.4399 24.4795 21.4399 24.4796 21.4399 24.4797C21.4399 24.9187 21.4322 25.5529 21.2197 26.0704C21.1192 26.3152 20.9852 26.5005 20.8115 26.6267C20.6433 26.7488 20.3856 26.8538 19.9664 26.8538C19.5364 26.8538 18.9175 26.5486 18.1343 25.7685C17.3784 25.0156 16.5839 23.9349 15.8053 22.6606C14.2505 20.1161 12.8272 16.9132 11.9506 14.3319L11.9507 14.3319L11.948 14.3242C11.8751 14.1173 11.8098 13.9383 11.7468 13.7943C11.6872 13.658 11.6038 13.49 11.4722 13.3475C11.1521 13.0008 10.7326 13.0087 10.5739 13.0117C10.5614 13.012 10.5506 13.0122 10.5415 13.0122ZM5.91306 13.7901C5.91127 13.7721 5.90966 13.7544 5.90823 13.737L25.2639 35.5677C14.3594 35.5677 7.0466 19.2224 6.02308 14.4535C6.01881 14.4536 6.01482 14.4536 6.01112 14.4536C5.97558 14.454 5.96604 14.4541 5.97336 14.4535L5.91306 13.7901ZM27.0563 36.0677C27.0355 36.0666 27.0153 36.0646 26.9957 36.062C27.1111 36.0599 27.2387 36.0389 27.3485 36.0081C27.3855 35.9977 27.4206 35.9862 27.4524 35.974C27.4224 35.9914 27.3896 36.0077 27.3538 36.0216C27.2707 36.054 27.1717 36.0739 27.0563 36.0677Z" stroke="#FF26C2" stroke-width="1.43881"/>
</g>
<g style="mix-blend-mode:hard-light" filter="url(#filter2_ddi_112_17419)">
<path d="M38.9796 25.7048H38.5615L39.2292 24.8226C39.7899 24.0818 41.1645 22.074 42.4803 19.9208C43.1373 18.8457 43.775 17.7418 44.2871 16.7476C44.7907 15.7697 45.1541 14.9328 45.307 14.3439V14.3338L45.3252 14.2712L45.3339 14.2358L45.3374 14.2287C45.6218 13.2213 45.346 12.6293 45.1156 12.3228C44.7505 11.8412 44.1459 11.5501 43.1911 11.5501H38.7125C37.4354 11.5501 36.4999 12.1714 36.0103 13.3397C35.5155 14.5963 34.586 16.4899 33.5269 18.2927C32.4749 20.0836 31.2547 21.8552 30.1694 22.809L29.2851 23.5861L29.2563 22.4092C29.194 19.8717 29.2362 17.9339 29.269 16.4997L29.269 16.4994C29.2719 16.3753 29.275 16.2526 29.278 16.1313C29.3107 14.8396 29.3392 13.7088 29.0915 12.8633C28.9622 12.4219 28.77 12.1104 28.5025 11.904C28.2365 11.6987 27.835 11.5501 27.1966 11.5501H20.1575C19.4361 11.5501 18.7419 11.9483 18.4187 12.5473C18.1177 13.1054 18.0826 13.9536 18.9148 14.995L18.9152 14.9955C19.3625 15.5566 19.6446 16.0797 19.8064 16.6507C19.9659 17.2138 19.9991 17.7918 19.9922 18.4408C19.9884 18.7923 19.9732 19.1686 19.9563 19.586C19.9102 20.724 19.8518 22.167 19.9805 24.2434L20.0754 25.7747L19.029 24.6527C17.5763 23.0948 15.0836 19.0135 13.3283 13.8496C13.0918 13.1789 12.8194 12.6122 12.4076 12.21C12.0157 11.8273 11.4541 11.552 10.5415 11.552H6.06292C5.25113 11.552 4.6725 11.7725 4.30232 12.1104C3.93868 12.4423 3.71224 12.9455 3.71224 13.6497C3.71224 14.0394 3.8247 14.7158 4.07419 15.6334C4.32023 16.5384 4.68923 17.6413 5.17761 18.8682C6.15459 21.3226 7.60088 24.2525 9.4735 27.0649C13.2412 32.7234 18.623 37.7473 25.2639 37.7473C26.7963 37.7473 27.731 37.5029 28.2986 37.1773C28.8408 36.8662 29.0823 36.462 29.1935 36.0195C29.3124 35.5469 29.2845 35.0241 29.2402 34.4821C29.2373 34.4475 29.2344 34.4125 29.2315 34.3772C29.2127 34.1518 29.193 33.9164 29.1905 33.7053C29.1882 33.5061 29.199 33.2741 29.2662 33.055C29.2593 32.2385 29.2532 31.4333 29.2825 30.928L29.3221 30.2447L29.9809 30.4304C30.522 30.5829 31.55 31.1471 33.5109 33.0531L33.5182 33.0603L33.5182 33.0603C34.2819 33.831 34.9029 34.5232 35.4371 35.1209L35.4822 35.1714C36.0008 35.7516 36.4261 36.2275 36.8314 36.614C37.6385 37.3837 38.3103 37.7473 39.3421 37.7473H43.8207C45.0598 37.7473 45.6382 37.2469 45.908 36.8869L38.9796 25.7048ZM38.9796 25.7048L39.0194 25.7676C39.0992 25.8936 39.2744 26.0847 39.4546 26.2769C39.6275 26.4613 39.8499 26.6924 40.1051 26.9577C40.1436 26.9978 40.183 27.0387 40.223 27.0803C40.8354 27.7172 41.6231 28.5399 42.4294 29.4409C43.2367 30.343 44.0561 31.3163 44.7328 32.2526C45.4143 33.1954 45.9227 34.0626 46.1463 34.7604C46.4735 35.8823 46.1676 36.5397 45.9082 36.8866L38.9796 25.7048ZM10.5415 13.1814H10.5412C9.41922 13.1821 8.52234 13.1818 7.82739 13.1816C7.54516 13.1815 7.29623 13.1814 7.07906 13.1814C6.70349 13.1814 6.42221 13.1817 6.22838 13.1825C6.0545 13.1832 5.91432 13.1841 5.85842 13.1891L5.31505 13.2385L5.35996 13.7823C5.43992 14.7504 5.99448 16.6208 6.92344 18.8385C7.86107 21.077 9.20509 23.7284 10.9073 26.272C14.2845 31.3184 19.1948 36.1178 25.2639 36.1178C26.501 36.1178 27.0454 35.9893 27.3015 35.8886L27.6921 35.735L27.6471 35.3176L27.6471 35.3173C27.6462 35.3091 27.6444 35.2923 27.6409 35.2713C27.6419 35.07 27.6436 34.5336 27.6394 33.1711L27.6393 33.1676C27.6378 33.0027 27.6356 32.8415 27.6336 32.6838C27.6268 32.1772 27.6206 31.7069 27.6361 31.2664C27.6563 30.6894 27.7131 30.2133 27.8359 29.8348C27.9554 29.4664 28.1291 29.2153 28.3744 29.0475C28.6254 28.8758 29.0129 28.7493 29.6352 28.7493C30.8171 28.7493 32.2392 29.5457 34.6619 31.9021C35.603 32.8517 36.2873 33.6198 36.8357 34.2355C37.0652 34.4933 37.271 34.7243 37.4618 34.9307C37.7762 35.2707 38.0648 35.5598 38.3483 35.7635C38.6414 35.9741 38.9649 36.1196 39.3421 36.1196L39.3433 36.1196C41.0823 36.1159 42.1517 36.1186 42.8267 36.1203C42.9723 36.1207 43.0996 36.121 43.2112 36.1212C43.8157 36.1223 44.0034 36.1215 44.1839 36.0928L44.7581 36.0012L44.635 35.433C44.5147 34.8779 44.1162 34.196 43.6431 33.5181C43.1551 32.819 42.5337 32.0501 41.893 31.305C40.6363 29.8435 39.2768 28.4404 38.6379 27.7811L38.6006 27.7426C38.6005 27.7425 38.6004 27.7423 38.6002 27.7422C38.1987 27.326 37.938 27.0419 37.8476 26.9328L37.8323 26.9143C37.3404 26.262 37.2353 25.7596 37.2708 25.3515C37.309 24.9112 37.5159 24.4953 37.8059 24.0211C37.8252 23.9913 37.8343 23.9776 37.8423 23.9669L37.8424 23.967L37.8497 23.9569C38.5332 23.0011 39.8886 20.9956 41.1258 18.9876C41.7444 17.9836 42.3373 16.9725 42.803 16.0881C43.2551 15.2295 43.617 14.4361 43.7403 13.8763L43.9725 13.1796H43.2093H43.1911H38.7125C38.4682 13.1796 38.1912 13.2069 37.9496 13.3723C37.7082 13.5376 37.5941 13.7797 37.5204 13.9567L37.5204 13.9567L37.5183 13.9619C37.4257 14.1906 35.15 19.7334 31.8848 23.4246C30.3416 24.9826 29.2581 25.2135 28.6694 25.0278C28.1054 24.85 27.6448 24.1628 27.6448 22.9872V22.9789L27.6446 22.9705C27.6176 22.0824 27.6139 19.7884 27.6166 17.7002C27.618 16.6588 27.6209 15.6724 27.6233 14.9444L27.6262 14.0713L27.6268 13.827L27.6268 13.76L27.6267 13.7389L27.6266 13.7279L27.6263 13.7172L27.6257 13.7054C27.6254 13.6997 27.624 13.6835 27.6228 13.6728L27.5658 13.1874L27.0771 13.1869L20.6931 13.1796L19.5541 13.1783L20.2612 14.0713C20.7519 14.6909 21.4928 15.6913 21.6074 17.7575L21.6092 24.4795C21.6092 24.4795 21.6092 24.4796 21.6092 24.4796C21.6092 24.9149 21.6033 25.5819 21.3763 26.1347C21.2672 26.4005 21.1163 26.6145 20.9109 26.7636C20.7097 26.9097 20.416 27.023 19.9664 27.023C19.4659 27.023 18.805 26.6755 18.0148 25.8884C17.2455 25.1221 16.4429 24.0288 15.6608 22.7488C14.0986 20.1921 12.6703 16.9775 11.7904 14.3863L11.7904 14.3863L11.7883 14.3804C11.7154 14.1733 11.6519 13.9998 11.5917 13.8621C11.5341 13.7303 11.4598 13.5835 11.3479 13.4623C11.0819 13.1743 10.7373 13.1789 10.5758 13.1811C10.5632 13.1813 10.5517 13.1814 10.5415 13.1814ZM27.2917 35.8638C27.2292 35.888 27.155 35.903 27.0686 35.8988C27.1433 35.8932 27.2213 35.8788 27.29 35.8594C27.304 35.8554 27.3177 35.8512 27.3308 35.8469C27.3183 35.8529 27.3053 35.8586 27.2917 35.8638Z" stroke="#FB37FF" stroke-opacity="0.2" stroke-width="1.10027"/>
</g>
<g filter="url(#filter3_f_112_17419)">
<path d="M38.9871 25.4932H39.096L39.1981 25.6543C39.2647 25.7593 39.4227 25.9336 39.609 26.1322C39.7807 26.3153 40.0018 26.5452 40.2569 26.8104C40.2957 26.8507 40.3352 26.8918 40.3755 26.9336C40.9881 27.5707 41.778 28.3957 42.5871 29.2998C43.3967 30.2046 44.2215 31.184 44.9043 32.1286C45.59 33.0774 46.115 33.9675 46.3486 34.6985C46.6971 35.8903 46.3742 36.6169 46.0774 37.0137C45.7693 37.4249 45.1292 37.9589 43.8207 37.9589H39.3421C38.2392 37.9589 37.5179 37.561 36.6854 36.7672C36.2738 36.3747 35.8435 35.8931 35.3283 35.3167L35.2793 35.2619C34.7453 34.6644 34.1275 33.9758 33.3679 33.2093L33.3679 33.2092L33.3634 33.2048C31.4063 31.3026 30.4105 30.7713 29.9235 30.634L29.5181 30.5198L29.4937 30.9403C29.4645 31.444 29.471 32.2561 29.4781 33.0873C29.4126 33.281 29.3997 33.4985 29.4021 33.7028C29.4045 33.9056 29.4234 34.1324 29.4423 34.3586C29.4452 34.3941 29.4482 34.4295 29.4511 34.4648C29.4952 35.0048 29.5272 35.5603 29.3987 36.0711C29.275 36.5633 29.001 37.0182 28.4039 37.3608C27.7912 37.7123 26.8145 37.9589 25.2639 37.9589C18.5119 37.9589 13.0748 32.8553 9.29738 27.1822C7.41558 24.356 5.96272 21.4128 4.98102 18.9465C4.49024 17.7135 4.11852 16.603 3.87001 15.6889C3.61939 14.7671 3.50065 14.0685 3.50065 13.6497C3.50065 12.8975 3.74429 12.3332 4.15968 11.9541C4.57909 11.5713 5.21409 11.3404 6.06292 11.3404H10.5415C11.5031 11.3404 12.1198 11.6332 12.5554 12.0586C13.0033 12.496 13.2889 13.1013 13.5282 13.7804C15.2776 18.9271 17.7579 22.9792 19.1838 24.5084L19.8277 25.1989L19.7693 24.2565C19.6398 22.1682 19.699 20.7081 19.7451 19.5687C19.7619 19.1545 19.7769 18.7827 19.7806 18.4385C19.7874 17.7967 19.7541 17.2424 19.6028 16.7084C19.4501 16.1695 19.1832 15.6712 18.7498 15.1274L18.7495 15.1271C17.8755 14.0334 17.8833 13.0943 18.2325 12.4469C18.5953 11.7743 19.3643 11.3385 20.1575 11.3385H27.1966C27.8682 11.3385 28.3193 11.4954 28.6317 11.7365C28.9451 11.9783 29.157 12.3343 29.2946 12.8038C29.5522 13.6831 29.5225 14.8484 29.4898 16.1278C29.4867 16.2522 29.4835 16.3778 29.4805 16.5043L29.4805 16.5045C29.4477 17.938 29.4057 19.8717 29.4678 22.4041L29.4855 23.1283L30.0297 22.6501C31.0874 21.7205 32.2933 19.9749 33.3445 18.1856C34.4 16.3888 35.3246 14.5042 35.8142 13.2601C36.3367 12.0113 37.3498 11.3385 38.7125 11.3385H43.1911C44.1913 11.3385 44.8687 11.646 45.285 12.1961C45.5545 12.5547 45.8477 13.2202 45.5355 14.3057L45.5337 14.3092L45.5296 14.326L45.5186 14.3639V14.3706C45.3632 14.9859 44.9869 15.8507 44.4752 16.8444C43.96 17.8449 43.3193 18.9536 42.6608 20.0311C41.3427 22.1881 39.9642 24.2022 39.3979 24.9503L38.9871 25.4932ZM10.5415 13.393H10.5413C9.41925 13.3937 8.52219 13.3934 7.82722 13.3932C7.54502 13.3931 7.29615 13.393 7.07906 13.393C6.70345 13.393 6.42258 13.3932 6.22925 13.394C6.0482 13.3948 5.9216 13.3959 5.87758 13.3999L5.5432 13.4303L5.57084 13.7649C5.64786 14.6975 6.19075 16.5417 7.1186 18.7568C8.05179 20.9846 9.3896 23.6237 11.0832 26.1543C14.4535 31.1905 19.3085 35.9062 25.2639 35.9062C26.4907 35.9062 27.0041 35.7781 27.224 35.6917L27.4644 35.5971L27.4367 35.3403C27.4356 35.33 27.4335 35.3108 27.4293 35.2895C27.4302 35.1051 27.4321 34.5801 27.4278 33.1717L27.4277 33.1696C27.4262 33.007 27.4241 32.8473 27.422 32.6904C27.4153 32.1825 27.409 31.7051 27.4246 31.259C27.445 30.6755 27.5027 30.1761 27.6346 29.7695C27.7645 29.3691 27.9614 29.0737 28.2549 28.8729C28.552 28.6697 28.9855 28.5377 29.6352 28.5377C30.9119 28.5377 32.3904 29.3973 34.8109 31.7518C35.7568 32.7062 36.4485 33.4827 36.9982 34.0998C37.2263 34.3559 37.43 34.5846 37.6172 34.7871C37.9308 35.1262 38.207 35.4015 38.4718 35.5917C38.7424 35.7861 39.0234 35.9081 39.3421 35.9081L39.3429 35.908C41.0826 35.9043 42.1525 35.907 42.8274 35.9087C42.9729 35.9091 43.1001 35.9094 43.2116 35.9096C43.8254 35.9108 43.9912 35.9092 44.1506 35.8838L44.504 35.8275L44.4282 35.4778C44.3178 34.9682 43.9426 34.317 43.4696 33.6392C42.9874 32.9484 42.3711 32.1856 41.7326 31.443C40.48 29.9862 39.124 28.5869 38.4853 27.9277L38.4484 27.8895C38.0471 27.4737 37.7809 27.184 37.6847 27.0678L37.6663 27.0456C37.1469 26.3582 37.0191 25.804 37.06 25.3332C37.1028 24.8398 37.3338 24.3872 37.6268 23.9083C37.6467 23.8776 37.6599 23.8575 37.673 23.84L37.6731 23.8401L37.6776 23.8338C38.3582 22.882 39.711 20.8806 40.9456 18.8766C41.563 17.8746 42.1532 16.8681 42.6158 15.9895C43.07 15.127 43.4195 14.3543 43.5348 13.8258C43.5354 13.8233 43.5359 13.821 43.5364 13.8188L43.679 13.3912H43.2093H43.1911H38.7125C38.4795 13.3912 38.2564 13.4186 38.0692 13.5469C37.882 13.675 37.7873 13.8662 37.7157 14.0381L37.7144 14.0413C37.6217 14.2702 35.3331 19.8482 32.0394 23.5692C30.4809 25.1442 29.315 25.4533 28.6057 25.2296C27.9116 25.0107 27.4332 24.2016 27.4332 22.9872H27.4334L27.4331 22.9769C27.406 22.0847 27.4023 19.7865 27.405 17.6999C27.4064 16.6583 27.4093 15.6718 27.4117 14.9437L27.4146 14.0707L27.4152 13.8267L27.4152 13.7604L27.4151 13.7408L27.415 13.7322L27.4148 13.7251L27.4145 13.7177C27.4144 13.7161 27.4142 13.7132 27.4139 13.71C27.4135 13.7059 27.4131 13.7011 27.4127 13.6975L27.3776 13.3988L27.0769 13.3985L20.6929 13.3912L19.992 13.3904L20.4271 13.9399C20.9342 14.5802 21.7022 15.6227 21.8189 17.7517L21.8208 24.4795C21.8208 24.4795 21.8208 24.4795 21.8208 24.4796C21.8208 24.9102 21.8171 25.6181 21.572 26.2151C21.4522 26.507 21.2803 26.7569 21.0353 26.9348C20.7928 27.1109 20.4539 27.2346 19.9664 27.2346C19.3777 27.2346 18.6645 26.8342 17.8655 26.0383C17.0794 25.2553 16.2667 24.1462 15.4803 22.8591C13.9086 20.287 12.4741 17.0579 11.59 14.4544L11.59 14.4544L11.5888 14.4507C11.5157 14.2433 11.4545 14.0765 11.3978 13.9468C11.3427 13.8208 11.2798 13.7004 11.1924 13.6058C10.9931 13.3899 10.7403 13.3917 10.5749 13.3929C10.5633 13.3929 10.5522 13.393 10.5415 13.393ZM5.91306 13.7901C5.91127 13.7721 5.90966 13.7544 5.90823 13.737L26.7632 35.4658C26.481 35.5184 26.0169 35.5677 25.2639 35.5677C14.048 35.5677 6.63184 18.2755 5.95084 14.0739C5.94746 14.074 5.94483 14.0741 5.94289 14.0741C5.93877 14.0743 5.93769 14.0743 5.93888 14.0742L5.91306 13.7901Z" stroke="#FB37FF" stroke-width="0.677088"/>
</g>
<g filter="url(#filter4_f_112_17419)">
<path d="M39.3275 25.3239H39.3724C39.3586 25.3485 39.3455 25.3726 39.3337 25.3953L39.2891 25.4816L39.3411 25.5637C39.397 25.6519 39.5414 25.8126 39.7325 26.0164C39.9034 26.1987 40.1237 26.4277 40.379 26.6931C40.4177 26.7333 40.4572 26.7744 40.4975 26.8163C41.1102 27.4535 41.902 28.2804 42.7132 29.187C43.5248 30.0938 44.3539 31.0781 45.0415 32.0295C45.7306 32.9829 46.2689 33.8914 46.5105 34.6491C46.8758 35.8964 46.5397 36.6782 46.213 37.115C45.8743 37.5672 45.1848 38.1282 43.8207 38.1282H39.3421C38.1824 38.1282 37.4214 37.7029 36.5686 36.8897C36.152 36.4924 35.7176 36.0064 35.2049 35.4327L35.1531 35.3747C34.6192 34.7774 34.0039 34.0916 33.2476 33.3284L33.2454 33.3262C31.2914 31.4269 30.3213 30.922 29.8776 30.797L29.6749 30.7398L29.6627 30.9501C29.6336 31.4529 29.6404 32.2713 29.6476 33.1157C29.584 33.2863 29.5689 33.4904 29.5714 33.7008C29.5737 33.8971 29.592 34.117 29.6109 34.3439C29.6139 34.3795 29.6168 34.4152 29.6198 34.451C29.6638 34.9894 29.699 35.571 29.5629 36.1124C29.4291 36.6444 29.1292 37.1399 28.4881 37.5076C27.8393 37.8799 26.829 38.1282 25.2639 38.1282C18.423 38.1282 12.9417 32.9608 9.15649 27.276C7.26734 24.4388 5.80922 21.4848 4.82375 19.0091C4.33105 17.7713 3.95714 16.6546 3.70667 15.7334C3.45514 14.8082 3.33138 14.0918 3.33138 13.6497C3.33138 12.8591 3.58878 12.246 4.04556 11.8291C4.50435 11.4103 5.18445 11.1711 6.06292 11.1711H10.5415C11.5423 11.1711 12.203 11.4779 12.6737 11.9375C13.1505 12.4031 13.4466 13.0392 13.6882 13.725C15.4327 18.858 17.9031 22.8868 19.3076 24.3929L19.6295 24.7382L19.6003 24.267C19.4703 22.169 19.53 20.6953 19.5762 19.5548C19.5928 19.1433 19.6077 18.7751 19.6113 18.4367C19.6181 17.8005 19.5846 17.2653 19.4399 16.7546C19.2945 16.2414 19.0398 15.7628 18.6174 15.233L18.6173 15.2328C17.7099 14.0972 17.6958 13.0853 18.0835 12.3665C18.4781 11.6351 19.3068 11.1693 20.1575 11.1693H27.1966C27.8948 11.1693 28.3855 11.3326 28.7351 11.6025C29.0853 11.8727 29.3129 12.2642 29.457 12.7562C29.7226 13.6626 29.6919 14.8558 29.6593 16.126C29.656 16.2527 29.6527 16.3802 29.6497 16.5083L29.6497 16.5084C29.617 17.9412 29.575 19.8717 29.637 22.3999L29.6459 22.762L29.918 22.5229C30.9537 21.6127 32.148 19.888 33.1985 18.0998C34.2512 16.3079 35.1718 14.4305 35.6573 13.1966C36.2061 11.8833 37.2814 11.1693 38.7125 11.1693H43.1911C44.2269 11.1693 44.9622 11.4894 45.4197 12.0935C45.7206 12.4936 46.0283 13.2177 45.6946 14.3649L45.6938 14.3676L45.6936 14.368L45.6931 14.3699L45.6878 14.3881V14.3914C45.5306 15.0284 45.1438 15.9159 44.6257 16.9219C44.1079 17.9273 43.465 19.0398 42.8053 20.1194C41.4853 22.2794 40.1035 24.2985 39.5329 25.0525L39.3275 25.3239ZM10.5415 13.5623H10.5414C9.41928 13.5629 8.52207 13.5627 7.82709 13.5625C7.54492 13.5624 7.29608 13.5623 7.07906 13.5623C6.70342 13.5623 6.42288 13.5625 6.22995 13.5633C6.04316 13.5641 5.92743 13.5653 5.89291 13.5684L5.72571 13.5836L5.73953 13.751C5.81422 14.6551 6.34777 16.4784 7.27473 18.6914C8.20436 20.9107 9.53722 23.5399 11.2239 26.0602C14.5887 31.0881 19.3995 35.737 25.2639 35.737C26.4824 35.737 26.9712 35.6092 27.1621 35.5341L27.2823 35.4869L27.2684 35.3585C27.2671 35.3464 27.2652 35.3299 27.2615 35.3146L27.2615 35.3144C27.2613 35.3137 27.2608 35.3114 27.2599 35.308C27.2608 35.143 27.263 34.6333 27.2585 33.1723L27.2585 33.1712C27.257 33.0104 27.2549 32.8518 27.2528 32.6956C27.246 32.1867 27.2396 31.7037 27.2554 31.2531C27.2761 30.6644 27.3344 30.1464 27.4736 29.7173C27.6118 29.2913 27.8272 28.9604 28.1593 28.7332C28.4932 28.5048 28.9637 28.3685 29.6352 28.3685C30.9878 28.3685 32.5114 29.2787 34.93 31.6316C35.8798 32.5898 36.5776 33.3731 37.1283 33.9913C37.3552 34.2461 37.5572 34.4728 37.7415 34.6721C38.0545 35.0106 38.3208 35.2748 38.5705 35.4542C38.8232 35.6357 39.0702 35.7388 39.3421 35.7388H39.3425C41.0827 35.735 42.153 35.7378 42.828 35.7395C42.9734 35.7398 43.1005 35.7402 43.2119 35.7404C43.833 35.7415 43.9815 35.7394 44.124 35.7167L44.3007 35.6885L44.2628 35.5136C44.1603 35.0405 43.8038 34.4138 43.3308 33.7361C42.8532 33.0519 42.2411 32.294 41.6042 31.5533C40.355 30.1005 39.002 28.7041 38.3633 28.045L38.3265 28.0071C37.9258 27.5917 37.6553 27.2976 37.5544 27.1758L37.5336 27.1508C36.9922 26.4354 36.8461 25.8397 36.8913 25.3185C36.9379 24.7825 37.1882 24.3005 37.4836 23.8181C37.5036 23.7871 37.5202 23.7617 37.5376 23.7384L37.5376 23.7385L37.5399 23.7354C38.2182 22.7867 39.5689 20.7885 40.8015 18.7878C41.4179 17.7874 42.0059 16.7845 42.466 15.9107C42.9216 15.0455 43.2609 14.2901 43.37 13.7868C43.371 13.7829 43.3718 13.7795 43.3724 13.7766C43.3726 13.7757 43.3728 13.7749 43.3729 13.7741L43.4441 13.5605H43.2093H43.1911H38.7125C38.4886 13.5605 38.3086 13.5881 38.1648 13.6865C38.0211 13.785 37.9419 13.9354 37.872 14.1032L37.8713 14.1048C37.7786 14.3339 35.4796 19.94 32.163 23.685C30.5925 25.2732 29.3606 25.6451 28.5548 25.3911C27.7565 25.1393 27.2639 24.2327 27.2639 22.9872H27.264L27.2639 22.9821C27.2367 22.0864 27.233 19.7849 27.2357 17.6997C27.2371 16.6579 27.2401 15.6713 27.2425 14.9431L27.2453 14.0701L27.246 13.8265L27.246 13.7608L27.2459 13.7423L27.2458 13.7356L27.2457 13.7314L27.2455 13.7275L27.2446 13.7172L27.227 13.5679L27.0767 13.5678L20.6927 13.5605L20.3422 13.5601L20.5598 13.8348C21.0799 14.4916 21.8698 15.5679 21.9882 17.7471L21.99 24.4795C21.99 24.4795 21.99 24.4795 21.99 24.4795C21.99 24.9064 21.9882 25.647 21.7286 26.2794C21.6001 26.5922 21.4114 26.8709 21.1347 27.0718C20.8593 27.2718 20.4843 27.4039 19.9664 27.4039C19.3072 27.4039 18.552 26.9611 17.746 26.1582C16.9465 25.3618 16.1257 24.2401 15.3358 22.9474C13.7567 20.363 12.3172 17.1222 11.4297 14.5088L11.4297 14.5088L11.4291 14.507C11.3559 14.2993 11.2966 14.138 11.2427 14.0146C11.1896 13.8931 11.1357 13.794 11.0681 13.7207C10.921 13.5614 10.7404 13.5618 10.568 13.5622C10.5591 13.5623 10.5503 13.5623 10.5415 13.5623ZM39.3421 35.5695C38.7609 35.5695 38.2615 35.0089 37.2584 33.8828C36.7068 33.2636 36.0028 32.4733 35.0491 31.5113C32.6324 29.1601 31.0637 28.1992 29.6352 28.1992C27.0238 28.1992 27.0503 30.195 27.0836 32.7008C27.0856 32.8563 27.0877 33.0137 27.0892 33.1728C27.0929 34.3687 27.0921 34.9269 27.0912 35.18L39.3421 35.5695ZM43.9274 35.5654C43.929 35.5721 43.9305 35.5787 43.9319 35.5853L44.0973 35.5495L44.0707 35.3823C44.0648 35.3833 44.0589 35.3842 44.0529 35.385C43.4708 33.5595 39.4918 29.4529 38.2413 28.1623L38.2047 28.1246C37.8044 27.7097 37.5296 27.4112 37.424 27.2838L43.9274 35.5654ZM5.91306 13.7901C5.91127 13.7721 5.90966 13.7544 5.90823 13.737L26.929 35.4299C26.6774 35.4934 26.1884 35.5677 25.2639 35.5677C13.8912 35.5677 6.42521 17.7886 5.92624 13.9054C5.92425 13.9056 5.92341 13.9056 5.92341 13.9056C5.92341 13.9056 5.92346 13.9056 5.92356 13.9056L5.91306 13.7901Z" stroke="white" stroke-width="0.338544"/>
</g>
</g>
<defs>
<filter id="filter0_f_112_17419" x="-1.91605" y="5.92184" width="53.8326" height="37.4537" filterUnits="userSpaceOnUse" color-interpolation-filters="sRGB">
<feFlood flood-opacity="0" result="BackgroundImageFix"/>
<feBlend mode="normal" in="SourceGraphic" in2="BackgroundImageFix" result="shape"/>
<feGaussianBlur stdDeviation="2.53908" result="effect1_foregroundBlur_112_17419"/>
</filter>
<filter id="filter1_f_112_17419" x="1.46939" y="9.30728" width="47.0617" height="30.6828" filterUnits="userSpaceOnUse" color-interpolation-filters="sRGB">
<feFlood flood-opacity="0" result="BackgroundImageFix"/>
<feBlend mode="normal" in="SourceGraphic" in2="BackgroundImageFix" result="shape"/>
<feGaussianBlur stdDeviation="0.84636" result="effect1_foregroundBlur_112_17419"/>
</filter>
<filter id="filter2_ddi_112_17419" x="0.961574" y="10.4922" width="48.0773" height="31.6984" filterUnits="userSpaceOnUse" color-interpolation-filters="sRGB">
<feFlood flood-opacity="0" result="BackgroundImageFix"/>
<feColorMatrix in="SourceAlpha" type="matrix" values="0 0 0 0 0 0 0 0 0 0 0 0 0 0 0 0 0 0 127 0" result="hardAlpha"/>
<feOffset dy="1.10027"/>
<feGaussianBlur stdDeviation="0.42318"/>
<feColorMatrix type="matrix" values="0 0 0 0 0.3 0 0 0 0 0 0 0 0 0 0.26 0 0 0 0.7 0"/>
<feBlend mode="multiply" in2="BackgroundImageFix" result="effect1_dropShadow_112_17419"/>
<feColorMatrix in="SourceAlpha" type="matrix" values="0 0 0 0 0 0 0 0 0 0 0 0 0 0 0 0 0 0 127 0" result="hardAlpha"/>
<feOffset dy="1.69272"/>
<feGaussianBlur stdDeviation="1.10027"/>
<feColorMatrix type="matrix" values="0 0 0 0 0.6 0 0 0 0 0 0 0 0 0 0.6 0 0 0 1 0"/>
<feBlend mode="color-dodge" in2="effect1_dropShadow_112_17419" result="effect2_dropShadow_112_17419"/>
<feBlend mode="normal" in="SourceGraphic" in2="effect2_dropShadow_112_17419" result="shape"/>
<feColorMatrix in="SourceAlpha" type="matrix" values="0 0 0 0 0 0 0 0 0 0 0 0 0 0 0 0 0 0 127 0" result="hardAlpha"/>
<feOffset dx="-0.110027" dy="0.220054"/>
<feGaussianBlur stdDeviation="0.0550134"/>
<feComposite in2="hardAlpha" operator="arithmetic" k2="-1" k3="1"/>
<feColorMatrix type="matrix" values="0 0 0 0 1 0 0 0 0 1 0 0 0 0 1 0 0 0 0.5 0"/>
<feBlend mode="normal" in2="shape" result="effect3_innerShadow_112_17419"/>
</filter>
<filter id="filter3_f_112_17419" x="2.99284" y="10.8307" width="44.0148" height="27.6359" filterUnits="userSpaceOnUse" color-interpolation-filters="sRGB">
<feFlood flood-opacity="0" result="BackgroundImageFix"/>
<feBlend mode="normal" in="SourceGraphic" in2="BackgroundImageFix" result="shape"/>
<feGaussianBlur stdDeviation="0.084636" result="effect1_foregroundBlur_112_17419"/>
</filter>
<filter id="filter4_f_112_17419" x="3.04926" y="10.8872" width="43.902" height="27.5231" filterUnits="userSpaceOnUse" color-interpolation-filters="sRGB">
<feFlood flood-opacity="0" result="BackgroundImageFix"/>
<feBlend mode="normal" in="SourceGraphic" in2="BackgroundImageFix" result="shape"/>
<feGaussianBlur stdDeviation="0.056424" result="effect1_foregroundBlur_112_17419"/>
</filter>
<clipPath id="clip0_112_17419">
<rect width="50" height="50" fill="white"/>
</clipPath>
</defs>
</svg>
