<svg width="32" height="32" fill="none" xmlns="http://www.w3.org/2000/svg"><g filter="url(#filter0_i_112_17414)" fill="#2937F9"><path d="M16.517 25.92h-1.545a1.975 1.975 0 00-1.973 1.972v2.135c0 1.088.884 1.973 1.973 1.973h1.545a1.975 1.975 0 001.973-1.973v-2.135a1.973 1.973 0 00-1.973-1.973zM5.62 9.398l2.85.356a1.974 1.974 0 002.089-1.26c.41-1.075.983-1.924 1.716-2.542 1.04-.875 2.332-1.315 3.877-1.315 1.602 0 2.878.42 3.825 1.26.947.841 1.417 1.847 1.417 3.028 0 .848-.266 1.624-.799 2.328-.345.447-1.407 1.388-3.18 2.825-1.776 1.437-2.956 2.733-3.548 3.884-.605 1.177-.816 2.482-.868 3.791a1.973 1.973 0 001.973 2.055h1.611a1.977 1.977 0 001.967-1.805c.066-.733.187-1.289.371-1.667.31-.648 1.108-1.503 2.391-2.568 2.483-2.056 4.1-3.68 4.86-4.877.757-1.194 1.138-2.46 1.138-3.798 0-2.417-1.03-4.538-3.091-6.36C22.16.91 19.385 0 15.899 0c-3.315 0-5.988.898-8.027 2.697C6.136 4.229 5.08 6.044 4.71 8.139a1.063 1.063 0 00.91 1.26z"/></g><defs><filter id="filter0_i_112_17414" x="-.487" y="0" width="32.487" height="32.487" filterUnits="userSpaceOnUse" color-interpolation-filters="sRGB"><feFlood flood-opacity="0" result="BackgroundImageFix"/><feBlend in="SourceGraphic" in2="BackgroundImageFix" result="shape"/><feColorMatrix in="SourceAlpha" values="0 0 0 0 0 0 0 0 0 0 0 0 0 0 0 0 0 0 127 0" result="hardAlpha"/><feOffset dx="-.487" dy=".975"/><feGaussianBlur stdDeviation=".244"/><feComposite in2="hardAlpha" operator="arithmetic" k2="-1" k3="1"/><feColorMatrix values="0 0 0 0 1 0 0 0 0 1 0 0 0 0 1 0 0 0 0.5 0"/><feBlend in2="shape" result="effect1_innerShadow_112_17414"/></filter></defs></svg>