<svg width="32" height="32" fill="none" xmlns="http://www.w3.org/2000/svg"><g filter="url(#filter0_i_112_17437)"><path d="M21.286 11.43A5.286 5.286 0 1016 16.713a5.292 5.292 0 005.286-5.285zm-8.572 0a3.285 3.285 0 116.57-.003 3.285 3.285 0 01-6.57.002z" fill="#C41DE5"/><path d="M20.938 21.544l.248-.3c.578-.71 1.229-1.406 1.859-2.078l.62-.666a10.436 10.436 0 10-15.322 0l.638.691c.654.7 1.33 1.43 1.936 2.177l.147.18C7.53 22.358 5.4 24 5.4 26c0 3.248 5.46 5 10.6 5 5.139 0 10.6-1.752 10.6-5 0-2-2.13-3.64-5.662-4.456zm-10.491-3.719l-.633-.684A8.412 8.412 0 0115 3.063a8.332 8.332 0 016.609 2.07 8.424 8.424 0 01.587 12l-.611.655c-.653.7-1.328 1.418-1.948 2.18L16 24.42l-3.534-4.32c-.645-.795-1.343-1.547-2.02-2.275zM16 29c-5.25 0-8.6-1.777-8.6-3 0-.93 1.907-2.146 5.105-2.694l2.72 3.327a1 1 0 001.549 0l2.726-3.327c3.2.548 5.1 1.764 5.1 2.694 0 1.223-3.35 3-8.6 3z" fill="#2937F9"/></g><defs><filter id="filter0_i_112_17437" x="-.487" y="0" width="32.487" height="32.487" filterUnits="userSpaceOnUse" color-interpolation-filters="sRGB"><feFlood flood-opacity="0" result="BackgroundImageFix"/><feBlend in="SourceGraphic" in2="BackgroundImageFix" result="shape"/><feColorMatrix in="SourceAlpha" values="0 0 0 0 0 0 0 0 0 0 0 0 0 0 0 0 0 0 127 0" result="hardAlpha"/><feOffset dx="-.487" dy=".975"/><feGaussianBlur stdDeviation=".244"/><feComposite in2="hardAlpha" operator="arithmetic" k2="-1" k3="1"/><feColorMatrix values="0 0 0 0 1 0 0 0 0 1 0 0 0 0 1 0 0 0 0.5 0"/><feBlend in2="shape" result="effect1_innerShadow_112_17437"/></filter></defs></svg>