<svg width="50" height="52" fill="none" xmlns="http://www.w3.org/2000/svg"><g clip-path="url(#clip0_170_2290)" filter="url(#filter0_f_170_2290)"><g style="mix-blend-mode:hard-light" filter="url(#filter1_f_170_2290)"><ellipse cx="25.5" cy="26.5" rx="22.5" ry="25.5" fill="#FF3780" fill-opacity=".2"/></g><path d="M36.64 33.703a4.688 4.688 0 00-6.64 0l-2.266 2.266a40.847 40.847 0 01-7.047-5.657 41.595 41.595 0 01-5.656-7.046L17.297 21a4.686 4.686 0 000-6.64l-4.422-4.407a4.578 4.578 0 00-3.297-1.375A4.688 4.688 0 006.25 9.953l-2.125 2.11a9.953 9.953 0 00-2.563 8.203c.5 5.859 4.344 12.906 10.266 18.843 5.922 5.938 13.047 9.766 18.906 10.328.438.024.876.024 1.313 0a9.484 9.484 0 006.89-2.562l2.11-2.125a4.688 4.688 0 001.375-3.328 4.578 4.578 0 00-1.375-3.297l-4.406-4.422zm2.204 8.844l-2.125 2.11a7.14 7.14 0 01-5.72 1.562c-5.077-.438-11.546-4.032-16.89-9.375C8.766 31.5 5.172 25.078 4.687 20a7.078 7.078 0 011.563-5.719l2.203-2.125a1.562 1.562 0 011.11-.453 1.563 1.563 0 011.109.453l4.422 4.469a1.563 1.563 0 010 2.203l-3.125 3.125a1.563 1.563 0 00-.25 1.89 42.954 42.954 0 006.765 8.72 42.954 42.954 0 008.72 6.765 1.562 1.562 0 001.89-.25l3.125-3.125a1.563 1.563 0 012.203 0l4.422 4.422a1.562 1.562 0 01.453 1.11c-.01.398-.172.779-.453 1.062z" fill="#C41DE5"/><g style="mix-blend-mode:hard-light" filter="url(#filter2_f_170_2290)"><path d="M39.258 42.798l-.003.002-2.125 2.11-.018.017-.018.015a7.696 7.696 0 01-6.142 1.687c-5.255-.46-11.828-4.148-17.214-9.533-5.386-5.386-9.071-11.911-9.58-17.164a7.632 7.632 0 011.688-6.147l.019-.022.02-.02 2.201-2.123a2.116 2.116 0 011.497-.61m29.675 31.788L9.582 11.563m29.675 31.235c.38-.384.6-.9.613-1.44h0v-.01a2.113 2.113 0 00-.613-1.503l-.002-.002-4.422-4.421-.001-.002a2.117 2.117 0 00-2.984 0l-.002.002-3.125 3.125h0a1.007 1.007 0 01-1.22.163 42.397 42.397 0 01-8.604-6.678l-.003-.002a42.397 42.397 0 01-6.677-8.605m27.04 19.373L18.505 32.423a42.954 42.954 0 01-6.766-8.719M9.583 11.01h.003l-.003.554m0-.554H9.58l.003.554m0-.554a2.117 2.117 0 011.5.614l.003.004h0l4.421 4.468-.393.39.394-.39h0a2.116 2.116 0 010 2.984l-.002.001-3.125 3.125v.001a1.007 1.007 0 00-.163 1.219M9.583 11.563a1.561 1.561 0 011.11.454l4.421 4.468a1.562 1.562 0 010 2.204l-3.125 3.125a1.562 1.562 0 00-.25 1.89m.479-.279l-.001-.002-.478.281m.479-.279v.001l-.479.278m18.673 10.251h.001a4.134 4.134 0 015.856 0l4.406 4.422h0l.005.004a4.022 4.022 0 011.208 2.898v.005a4.134 4.134 0 01-1.212 2.934l-.002.002-2.102 2.118a8.929 8.929 0 01-6.481 2.406h-.053c-.414.023-.828.023-1.242.001-5.688-.55-12.694-4.29-18.555-10.167-5.869-5.884-9.62-12.816-10.106-18.5l-.001-.015-.003-.016a9.4 9.4 0 012.413-7.739l2.117-2.101h0l.002-.002a4.133 4.133 0 012.934-1.212h.005a4.024 4.024 0 012.897 1.208h0l.005.005 4.422 4.406s0 0 0 0a4.133 4.133 0 010 5.856h0l-2.266 2.266-.315.315.24.375a42.148 42.148 0 005.73 7.14 41.403 41.403 0 007.143 5.733l.375.238.314-.314 2.265-2.266z" stroke="#F32E7C" stroke-width="1.108"/></g><g style="mix-blend-mode:hard-light" filter="url(#filter3_f_170_2290)"><path d="M30.533 34.076v-.001a3.962 3.962 0 015.615 0l4.406 4.422h0l.006.006a3.856 3.856 0 011.158 2.775v.006a3.962 3.962 0 01-1.163 2.814l-.002.002-2.1 2.116a8.758 8.758 0 01-6.355 2.358l-.035-.002-.034.002c-.407.022-.814.022-1.22.001-5.636-.546-12.605-4.26-18.447-10.117C6.509 32.59 2.785 25.694 2.305 20.064l-.002-.02-.003-.022a9.228 9.228 0 012.366-7.595l2.115-2.1h0l.002-.002a3.963 3.963 0 012.814-1.162v0h.006a3.853 3.853 0 012.775 1.157h0l.006.007 4.422 4.406s0 0 0 0a3.964 3.964 0 010 5.614l-.001.001-2.266 2.266-.411.411.313.49a42.318 42.318 0 005.754 7.17 41.577 41.577 0 007.171 5.756l.49.311.411-.41 2.266-2.266zm8.842 8.846l.004-.004c.411-.415.648-.971.663-1.556h0v-.013a2.286 2.286 0 00-.663-1.624l-.002-.002-4.422-4.422-.002-.001a2.287 2.287 0 00-3.225 0l-.001.001-3.125 3.125-.001.001a.838.838 0 01-1.013.135 42.23 42.23 0 01-8.57-6.65l-.003-.003a42.23 42.23 0 01-6.65-8.57.838.838 0 01.135-1.012l.002-.001 3.125-3.125.001-.002a2.287 2.287 0 000-3.224s0 0 0 0l-4.42-4.468h0l-.005-.005a2.287 2.287 0 00-1.62-.663 2.287 2.287 0 00-1.616.66l-2.2 2.121-.027.026-.024.03a7.803 7.803 0 00-1.727 6.278c.516 5.306 4.23 11.864 9.628 17.263 5.399 5.398 12.005 9.114 17.314 9.582a7.865 7.865 0 006.272-1.726l.024-.02.023-.022 2.125-2.11z" stroke="#FF26C2" stroke-width="1.449"/></g><g style="mix-blend-mode:hard-light" filter="url(#filter4_ddi_170_2290)"><path d="M39.258 42.798l-.003.002-2.125 2.11-.018.017-.018.015a7.696 7.696 0 01-6.142 1.687c-5.255-.46-11.828-4.148-17.214-9.533-5.386-5.386-9.071-11.911-9.58-17.164a7.632 7.632 0 011.688-6.147l.019-.022.02-.02 2.201-2.123a2.116 2.116 0 011.497-.61m29.675 31.788L9.582 11.563m29.675 31.235c.38-.384.6-.9.613-1.44h0v-.01a2.113 2.113 0 00-.613-1.503l-.002-.002-4.422-4.421-.001-.002a2.117 2.117 0 00-2.984 0l-.002.002-3.125 3.125h0a1.007 1.007 0 01-1.22.163 42.397 42.397 0 01-8.604-6.678l-.003-.002a42.397 42.397 0 01-6.677-8.605m27.04 19.373L18.505 32.423a42.954 42.954 0 01-6.766-8.719M9.583 11.01h.003l-.003.554m0-.554H9.58l.003.554m0-.554a2.117 2.117 0 011.5.614l.003.004h0l4.421 4.468-.393.39.394-.39h0a2.116 2.116 0 010 2.984l-.002.001-3.125 3.125v.001a1.007 1.007 0 00-.163 1.219M9.583 11.563a1.561 1.561 0 011.11.454l4.421 4.468a1.562 1.562 0 010 2.204l-3.125 3.125a1.562 1.562 0 00-.25 1.89m.479-.279l-.001-.002-.478.281m.479-.279v.001l-.479.278m18.673 10.251h.001a4.134 4.134 0 015.856 0l4.406 4.422h0l.005.004a4.022 4.022 0 011.208 2.898v.005a4.134 4.134 0 01-1.212 2.934l-.002.002-2.102 2.118a8.929 8.929 0 01-6.481 2.406h-.053c-.414.023-.828.023-1.242.001-5.688-.55-12.694-4.29-18.555-10.167-5.869-5.884-9.62-12.816-10.106-18.5l-.001-.015-.003-.016a9.4 9.4 0 012.413-7.739l2.117-2.101h0l.002-.002a4.133 4.133 0 012.934-1.212h.005a4.024 4.024 0 012.897 1.208h0l.005.005 4.422 4.406s0 0 0 0a4.133 4.133 0 010 5.856h0l-2.266 2.266-.315.315.24.375a42.148 42.148 0 005.73 7.14 41.403 41.403 0 007.143 5.733l.375.238.314-.314 2.265-2.266z" stroke="#FB37FF" stroke-opacity=".2" stroke-width="1.108"/></g><g filter="url(#filter5_f_170_2290)"><path d="M9.583 11.223a1.903 1.903 0 00-1.348.55l-2.201 2.123-.013.013-.012.013a7.42 7.42 0 00-1.64 5.983c.5 5.185 4.15 11.67 9.52 17.04 5.37 5.37 11.902 9.02 17.09 9.473a7.48 7.48 0 005.979-1.64l.01-.009.011-.01 2.125-2.11.002-.002c.343-.345.54-.808.552-1.294h0v-.006a1.902 1.902 0 00-.552-1.352h0l-4.422-4.423h-.001a1.903 1.903 0 00-2.684 0h0l-3.126 3.125v.001a1.222 1.222 0 01-1.477.196 42.608 42.608 0 01-8.65-6.712v-.001a42.615 42.615 0 01-6.712-8.649 1.222 1.222 0 01.196-1.477h0l3.125-3.125.001-.001a1.903 1.903 0 000-2.684s0 0 0 0l-4.421-4.468h0l-.003-.002a1.903 1.903 0 00-1.349-.553zm0 0h-.002l.002.34.002-.34h-.002zm20.679 22.582h0a4.347 4.347 0 016.157 0l4.407 4.421.003.003A4.238 4.238 0 0142.1 41.28v.003a4.347 4.347 0 01-1.275 3.086v.001l-2.106 2.12a9.143 9.143 0 01-6.638 2.467h-.033c-.422.023-.846.023-1.269 0-5.754-.554-12.806-4.328-18.69-10.228-5.89-5.905-9.677-12.88-10.167-18.632l-.001-.01-.002-.01a9.612 9.612 0 012.47-7.917l2.12-2.104.002-.001a4.346 4.346 0 013.086-1.276H9.6a4.237 4.237 0 013.05 1.273h0l.004.003 4.422 4.406a4.345 4.345 0 010 6.158h0l-2.266 2.266-.194.193.147.231a41.93 41.93 0 005.702 7.104 41.181 41.181 0 007.106 5.704l.23.146.194-.193 2.266-2.265z" stroke="#FB37FF" stroke-width=".682"/></g><g filter="url(#filter6_f_170_2290)"><path d="M31.081 34.624l.002-.002a3.187 3.187 0 014.516 0l4.406 4.422.006.007.007.006a3.079 3.079 0 01.924 2.217h0v.012a3.185 3.185 0 01-.935 2.263l-.004.005-2.09 2.105a7.985 7.985 0 01-5.783 2.14l-.071-.003-.072.004c-.373.02-.747.02-1.12.002-5.397-.53-12.2-4.12-17.956-9.892C7.133 32.118 3.537 25.383 3.078 20l-.004-.044-.006-.044a8.453 8.453 0 012.156-6.946l2.103-2.087h0l.005-.005a3.187 3.187 0 012.263-.935v0h.012a3.079 3.079 0 012.217.925l.006.007.007.006 4.422 4.406s0 0 0 0a3.185 3.185 0 010 4.516l-.002.002-2.266 2.265-.851.852.647 1.015a43.089 43.089 0 005.86 7.3 42.34 42.34 0 007.304 5.864l1.015.644.85-.85 2.265-2.266zm8.84 8.848l.008-.008c.55-.555.869-1.3.888-2.082v-.03a3.063 3.063 0 00-.888-2.174l-.004-.004-4.422-4.422-.003-.003a3.062 3.062 0 00-4.318 0l-.003.003-3.125 3.125-.003.002a.063.063 0 01-.074.011 41.456 41.456 0 01-8.408-6.525h0l-.007-.007a41.456 41.456 0 01-6.526-8.408.063.063 0 01.01-.074l.004-.003 3.125-3.125.003-.003a3.063 3.063 0 00.001-4.317l-.001-.001-4.42-4.466h0l-.01-.01a3.064 3.064 0 00-2.165-.889 3.062 3.062 0 00-2.157.88l-2.197 2.119-.056.055-.051.06a8.579 8.579 0 00-1.902 6.877c.549 5.549 4.39 12.252 9.85 17.71 5.457 5.459 12.21 9.305 17.767 9.805a8.64 8.64 0 006.863-1.9l.05-.042.046-.046 2.125-2.11h0z" stroke="#fff" stroke-width="3"/></g><path d="M41.563 9.422A23.312 23.312 0 0025 2.562a1.563 1.563 0 000 3.125 20.313 20.313 0 0120.313 20.485 1.562 1.562 0 103.124 0 23.299 23.299 0 00-6.874-16.75z" fill="#C41DE5"/><g style="mix-blend-mode:hard-light" filter="url(#filter7_f_170_2290)"><path d="M41.386 9.686h-.002a22.972 22.972 0 00-16.32-6.76h-.002a1.223 1.223 0 100 2.445l16.324 4.315zm0 0a22.957 22.957 0 016.774 16.506h0M41.386 9.686l6.774 16.506m0 0v.003m0-.003v.003m0 0a1.222 1.222 0 01-2.445.002A20.653 20.653 0 0025.062 5.37L48.16 26.195z" stroke="#F32E7C" stroke-width=".679"/></g><g style="mix-blend-mode:hard-light" filter="url(#filter8_f_170_2290)"><path d="M25.063 5.267a1.118 1.118 0 110-2.237h0A22.869 22.869 0 0141.31 9.76l.002.001a22.853 22.853 0 016.744 16.431h0v.004a1.118 1.118 0 01-2.237.002M25.062 5.267v.444m0-.444v.444m0-.444a20.756 20.756 0 0120.757 20.93M25.062 5.71a20.313 20.313 0 0120.313 20.484M25.062 5.711a1.563 1.563 0 010-3.125 23.312 23.312 0 0116.563 6.86l6.875 16.75a1.563 1.563 0 01-3.125 0m.444 0v.003l-.444-.004m.444.002v-.002h-.444" stroke="#FF26C2" stroke-width=".888"/></g><g style="mix-blend-mode:hard-light" filter="url(#filter9_ddi_170_2290)"><path d="M41.386 9.686h-.002a22.972 22.972 0 00-16.32-6.76h-.002a1.223 1.223 0 100 2.445l16.324 4.315zm0 0a22.957 22.957 0 016.774 16.506h0M41.386 9.686l6.774 16.506m0 0v.003m0-.003v.003m0 0a1.222 1.222 0 01-2.445.002A20.653 20.653 0 0025.062 5.37L48.16 26.195z" stroke="#FB37FF" stroke-opacity=".2" stroke-width=".679"/></g><g filter="url(#filter10_f_170_2290)"><path d="M41.478 9.594l-.001-.001a23.103 23.103 0 00-16.414-6.798h0a1.353 1.353 0 100 2.707l16.415 4.092zm0 0a23.087 23.087 0 016.813 16.6v.001M41.478 9.594l6.813 16.601m0 0a1.353 1.353 0 01-2.707.001A20.522 20.522 0 0025.062 5.502l23.229 20.693z" stroke="#FB37FF" stroke-width=".418"/></g><g filter="url(#filter11_f_170_2290)"><path d="M40.568 10.51l-.006-.006h0a21.813 21.813 0 00-15.496-6.418h-.003a.062.062 0 00-.045.107l-1.06 1.06 1.06-1.06a.062.062 0 00.044.018m15.506 6.298l4.807 15.686M40.568 10.51A21.797 21.797 0 0147 26.181v.014a.063.063 0 01-.018.044l1.06 1.061m-7.474-16.79l7.474 16.79M25.062 4.21v1.5-1.5zm0 0a21.812 21.812 0 0121.813 21.987m0 0v.011l-1.5-.013m1.5.002v-.002h-1.5m1.5.002c0 .016.007.031.018.043l-1.06 1.06m-.458-1.105c0 .415.165.812.458 1.105m0 0l1.06-1.06a.063.063 0 00.089 0l1.06 1.06m-2.21 0h2.21" stroke="#fff" stroke-width="3"/></g><path d="M33.172 17.922a9.376 9.376 0 012.766 6.734 1.562 1.562 0 103.124 0A12.5 12.5 0 0026.563 12a1.563 1.563 0 000 3.125 9.375 9.375 0 016.61 2.797z" fill="#C41DE5"/><g style="mix-blend-mode:hard-light" filter="url(#filter12_f_170_2290)"><path d="M35.938 24.656a1.562 1.562 0 103.124 0l-2.933.001m-.191 0l.191.001s0 0 0 0m-.191-.002a9.376 9.376 0 00-2.766-6.734l2.766 6.734zm.191.001a1.37 1.37 0 002.742 0v-.003h0A12.307 12.307 0 0026.562 12.19h0a1.37 1.37 0 100 2.742h.002a9.567 9.567 0 016.744 2.854 9.566 9.566 0 012.821 6.87z" stroke="#F32E7C" stroke-width=".383"/></g><g style="mix-blend-mode:hard-light" filter="url(#filter13_f_170_2290)"><path d="M38.812 24.653h0v.003a1.312 1.312 0 01-2.624.001 9.625 9.625 0 00-2.839-6.912 9.627 9.627 0 00-6.785-2.87v0h-.002a1.312 1.312 0 010-2.625h0a12.25 12.25 0 0112.25 12.403z" stroke="#FF26C2" stroke-width=".501"/></g><g style="mix-blend-mode:hard-light" filter="url(#filter14_ddi_170_2290)"><path d="M35.938 24.656a1.562 1.562 0 103.124 0l-2.933.001m-.191 0l.191.001s0 0 0 0m-.191-.002a9.376 9.376 0 00-2.766-6.734l2.766 6.734zm.191.001a1.37 1.37 0 002.742 0v-.003h0A12.307 12.307 0 0026.562 12.19h0a1.37 1.37 0 100 2.742h.002a9.567 9.567 0 016.744 2.854 9.566 9.566 0 012.821 6.87z" stroke="#FB37FF" stroke-opacity=".2" stroke-width=".383"/></g><g filter="url(#filter15_f_170_2290)"><path d="M38.945 24.655h0v.001a1.444 1.444 0 01-2.89 0 9.492 9.492 0 00-2.8-6.817 9.494 9.494 0 00-6.692-2.832v0h0a1.444 1.444 0 110-2.89h0a12.381 12.381 0 0112.382 12.538z" stroke="#FB37FF" stroke-width=".236"/></g><g filter="url(#filter16_f_170_2290)"><path d="M37.563 24.637v.02a.062.062 0 01-.126.001 10.875 10.875 0 00-3.202-7.794 10.877 10.877 0 00-7.661-3.239h0-.012a.063.063 0 110-.125h0a11 11 0 0111 11.137z" stroke="#fff" stroke-width="3"/></g></g><defs><filter id="filter0_f_170_2290" x="-.13" y=".87" width="50.26" height="50.26" filterUnits="userSpaceOnUse" color-interpolation-filters="sRGB"><feFlood flood-opacity="0" result="BackgroundImageFix"/><feBlend in="SourceGraphic" in2="BackgroundImageFix" result="shape"/><feGaussianBlur stdDeviation=".065" result="effect1_foregroundBlur_170_2290"/></filter><filter id="filter1_f_170_2290" x="-12" y="-14" width="75" height="81" filterUnits="userSpaceOnUse" color-interpolation-filters="sRGB"><feFlood flood-opacity="0" result="BackgroundImageFix"/><feBlend in="SourceGraphic" in2="BackgroundImageFix" result="shape"/><feGaussianBlur stdDeviation="7.5" result="effect1_foregroundBlur_170_2290"/></filter><filter id="filter2_f_170_2290" x="-3.634" y="3.323" width="51.192" height="51.107" filterUnits="userSpaceOnUse" color-interpolation-filters="sRGB"><feFlood flood-opacity="0" result="BackgroundImageFix"/><feBlend in="SourceGraphic" in2="BackgroundImageFix" result="shape"/><feGaussianBlur stdDeviation="2.557" result="effect1_foregroundBlur_170_2290"/></filter><filter id="filter3_f_170_2290" x="-.225" y="6.733" width="44.372" height="44.287" filterUnits="userSpaceOnUse" color-interpolation-filters="sRGB"><feFlood flood-opacity="0" result="BackgroundImageFix"/><feBlend in="SourceGraphic" in2="BackgroundImageFix" result="shape"/><feGaussianBlur stdDeviation=".852" result="effect1_foregroundBlur_170_2290"/></filter><filter id="filter4_ddi_170_2290" x="-.736" y="7.927" width="45.395" height="45.31" filterUnits="userSpaceOnUse" color-interpolation-filters="sRGB"><feFlood flood-opacity="0" result="BackgroundImageFix"/><feColorMatrix in="SourceAlpha" values="0 0 0 0 0 0 0 0 0 0 0 0 0 0 0 0 0 0 127 0" result="hardAlpha"/><feOffset dy="1.108"/><feGaussianBlur stdDeviation=".426"/><feColorMatrix values="0 0 0 0 0.3 0 0 0 0 0 0 0 0 0 0.26 0 0 0 0.7 0"/><feBlend mode="multiply" in2="BackgroundImageFix" result="effect1_dropShadow_170_2290"/><feColorMatrix in="SourceAlpha" values="0 0 0 0 0 0 0 0 0 0 0 0 0 0 0 0 0 0 127 0" result="hardAlpha"/><feOffset dy="1.705"/><feGaussianBlur stdDeviation="1.108"/><feColorMatrix values="0 0 0 0 0.6 0 0 0 0 0 0 0 0 0 0.6 0 0 0 1 0"/><feBlend mode="color-dodge" in2="effect1_dropShadow_170_2290" result="effect2_dropShadow_170_2290"/><feBlend in="SourceGraphic" in2="effect2_dropShadow_170_2290" result="shape"/><feColorMatrix in="SourceAlpha" values="0 0 0 0 0 0 0 0 0 0 0 0 0 0 0 0 0 0 127 0" result="hardAlpha"/><feOffset dx="-.111" dy=".222"/><feGaussianBlur stdDeviation=".055"/><feComposite in2="hardAlpha" operator="arithmetic" k2="-1" k3="1"/><feColorMatrix values="0 0 0 0 1 0 0 0 0 1 0 0 0 0 1 0 0 0 0.5 0"/><feBlend in2="shape" result="effect3_innerShadow_170_2290"/></filter><filter id="filter5_f_170_2290" x="1.31" y="8.268" width="41.303" height="41.218" filterUnits="userSpaceOnUse" color-interpolation-filters="sRGB"><feFlood flood-opacity="0" result="BackgroundImageFix"/><feBlend in="SourceGraphic" in2="BackgroundImageFix" result="shape"/><feGaussianBlur stdDeviation=".085" result="effect1_foregroundBlur_170_2290"/></filter><filter id="filter6_f_170_2290" x="1.367" y="8.325" width="41.189" height="41.104" filterUnits="userSpaceOnUse" color-interpolation-filters="sRGB"><feFlood flood-opacity="0" result="BackgroundImageFix"/><feBlend in="SourceGraphic" in2="BackgroundImageFix" result="shape"/><feGaussianBlur stdDeviation=".057" result="effect1_foregroundBlur_170_2290"/></filter><filter id="filter7_f_170_2290" x="20.364" y="-.55" width="31.273" height="31.444" filterUnits="userSpaceOnUse" color-interpolation-filters="sRGB"><feFlood flood-opacity="0" result="BackgroundImageFix"/><feBlend in="SourceGraphic" in2="BackgroundImageFix" result="shape"/><feGaussianBlur stdDeviation="1.568" result="effect1_foregroundBlur_170_2290"/></filter><filter id="filter8_f_170_2290" x="22.455" y="1.541" width="27.091" height="27.262" filterUnits="userSpaceOnUse" color-interpolation-filters="sRGB"><feFlood flood-opacity="0" result="BackgroundImageFix"/><feBlend in="SourceGraphic" in2="BackgroundImageFix" result="shape"/><feGaussianBlur stdDeviation=".523" result="effect1_foregroundBlur_170_2290"/></filter><filter id="filter9_ddi_170_2290" x="22.141" y="2.272" width="27.719" height="27.89" filterUnits="userSpaceOnUse" color-interpolation-filters="sRGB"><feFlood flood-opacity="0" result="BackgroundImageFix"/><feColorMatrix in="SourceAlpha" values="0 0 0 0 0 0 0 0 0 0 0 0 0 0 0 0 0 0 127 0" result="hardAlpha"/><feOffset dy=".679"/><feGaussianBlur stdDeviation=".261"/><feColorMatrix values="0 0 0 0 0.3 0 0 0 0 0 0 0 0 0 0.26 0 0 0 0.7 0"/><feBlend mode="multiply" in2="BackgroundImageFix" result="effect1_dropShadow_170_2290"/><feColorMatrix in="SourceAlpha" values="0 0 0 0 0 0 0 0 0 0 0 0 0 0 0 0 0 0 127 0" result="hardAlpha"/><feOffset dy="1.045"/><feGaussianBlur stdDeviation=".679"/><feColorMatrix values="0 0 0 0 0.6 0 0 0 0 0 0 0 0 0 0.6 0 0 0 1 0"/><feBlend mode="color-dodge" in2="effect1_dropShadow_170_2290" result="effect2_dropShadow_170_2290"/><feBlend in="SourceGraphic" in2="effect2_dropShadow_170_2290" result="shape"/><feColorMatrix in="SourceAlpha" values="0 0 0 0 0 0 0 0 0 0 0 0 0 0 0 0 0 0 127 0" result="hardAlpha"/><feOffset dx="-.068" dy=".136"/><feGaussianBlur stdDeviation=".034"/><feComposite in2="hardAlpha" operator="arithmetic" k2="-1" k3="1"/><feColorMatrix values="0 0 0 0 1 0 0 0 0 1 0 0 0 0 1 0 0 0 0.5 0"/><feBlend in2="shape" result="effect3_innerShadow_170_2290"/></filter><filter id="filter10_f_170_2290" x="23.395" y="2.481" width="25.21" height="25.381" filterUnits="userSpaceOnUse" color-interpolation-filters="sRGB"><feFlood flood-opacity="0" result="BackgroundImageFix"/><feBlend in="SourceGraphic" in2="BackgroundImageFix" result="shape"/><feGaussianBlur stdDeviation=".052" result="effect1_foregroundBlur_170_2290"/></filter><filter id="filter11_f_170_2290" x="23.43" y="2.516" width="25.14" height="25.311" filterUnits="userSpaceOnUse" color-interpolation-filters="sRGB"><feFlood flood-opacity="0" result="BackgroundImageFix"/><feBlend in="SourceGraphic" in2="BackgroundImageFix" result="shape"/><feGaussianBlur stdDeviation=".035" result="effect1_foregroundBlur_170_2290"/></filter><filter id="filter12_f_170_2290" x="23.232" y="10.232" width="17.599" height="17.754" filterUnits="userSpaceOnUse" color-interpolation-filters="sRGB"><feFlood flood-opacity="0" result="BackgroundImageFix"/><feBlend in="SourceGraphic" in2="BackgroundImageFix" result="shape"/><feGaussianBlur stdDeviation=".884" result="effect1_foregroundBlur_170_2290"/></filter><filter id="filter13_f_170_2290" x="24.411" y="11.411" width="15.242" height="15.397" filterUnits="userSpaceOnUse" color-interpolation-filters="sRGB"><feFlood flood-opacity="0" result="BackgroundImageFix"/><feBlend in="SourceGraphic" in2="BackgroundImageFix" result="shape"/><feGaussianBlur stdDeviation=".295" result="effect1_foregroundBlur_170_2290"/></filter><filter id="filter14_ddi_170_2290" x="24.234" y="11.823" width="15.595" height="15.751" filterUnits="userSpaceOnUse" color-interpolation-filters="sRGB"><feFlood flood-opacity="0" result="BackgroundImageFix"/><feColorMatrix in="SourceAlpha" values="0 0 0 0 0 0 0 0 0 0 0 0 0 0 0 0 0 0 127 0" result="hardAlpha"/><feOffset dy=".383"/><feGaussianBlur stdDeviation=".147"/><feColorMatrix values="0 0 0 0 0.3 0 0 0 0 0 0 0 0 0 0.26 0 0 0 0.7 0"/><feBlend mode="multiply" in2="BackgroundImageFix" result="effect1_dropShadow_170_2290"/><feColorMatrix in="SourceAlpha" values="0 0 0 0 0 0 0 0 0 0 0 0 0 0 0 0 0 0 127 0" result="hardAlpha"/><feOffset dy=".589"/><feGaussianBlur stdDeviation=".383"/><feColorMatrix values="0 0 0 0 0.6 0 0 0 0 0 0 0 0 0 0.6 0 0 0 1 0"/><feBlend mode="color-dodge" in2="effect1_dropShadow_170_2290" result="effect2_dropShadow_170_2290"/><feBlend in="SourceGraphic" in2="effect2_dropShadow_170_2290" result="shape"/><feColorMatrix in="SourceAlpha" values="0 0 0 0 0 0 0 0 0 0 0 0 0 0 0 0 0 0 127 0" result="hardAlpha"/><feOffset dx="-.038" dy=".077"/><feGaussianBlur stdDeviation=".019"/><feComposite in2="hardAlpha" operator="arithmetic" k2="-1" k3="1"/><feColorMatrix values="0 0 0 0 1 0 0 0 0 1 0 0 0 0 1 0 0 0 0.5 0"/><feBlend in2="shape" result="effect3_innerShadow_170_2290"/></filter><filter id="filter15_f_170_2290" x="24.941" y="11.941" width="14.181" height="14.337" filterUnits="userSpaceOnUse" color-interpolation-filters="sRGB"><feFlood flood-opacity="0" result="BackgroundImageFix"/><feBlend in="SourceGraphic" in2="BackgroundImageFix" result="shape"/><feGaussianBlur stdDeviation=".029" result="effect1_foregroundBlur_170_2290"/></filter><filter id="filter16_f_170_2290" x="24.961" y="11.961" width="14.142" height="14.297" filterUnits="userSpaceOnUse" color-interpolation-filters="sRGB"><feFlood flood-opacity="0" result="BackgroundImageFix"/><feBlend in="SourceGraphic" in2="BackgroundImageFix" result="shape"/><feGaussianBlur stdDeviation=".02" result="effect1_foregroundBlur_170_2290"/></filter><clipPath id="clip0_170_2290"><path fill="#fff" transform="translate(0 1)" d="M0 0h50v50H0z"/></clipPath></defs></svg>