<svg width="50" height="50" fill="none" xmlns="http://www.w3.org/2000/svg"><g clip-path="url(#clip0_112_17428)"><path d="M6.371 23.46l9.438 4.703c.365.18.796.167 1.145-.037l8.4-4.884-5.085 4.506a1.21 1.21 0 00-.406.904v10.975c0 1.157 1.477 1.645 2.17.725l4.08-5.424 10.089 5.745a1.206 1.206 0 001.778-.81l6.293-31.357c.188-.942-.75-1.71-1.621-1.36L6.47 21.256c-.971.38-1.034 1.739-.1 2.203zm35.103-13.265l-5.53 27.557-9.56-5.445a1.209 1.209 0 00-1.56.323l-2.55 3.388v-6.824l13.75-12.183c1.09-.963-.162-2.675-1.404-1.945L16.304 25.713l-6.42-3.198 31.59-12.321z" fill="#C41DE5"/><g style="mix-blend-mode:hard-light" filter="url(#filter0_f_112_17428)"><path d="M6.652 22.832h0l9.436 4.702s0 0 0 0a.575.575 0 00.543-.015l.002-.001 8.4-4.884.74 1.024-5.084 4.505s0 0 0 0a.573.573 0 00-.193.43v10.974c0 .543.7.78 1.029.343l4.08-5.423.335-.447.486.277 10.088 5.745.003.002c.33.19.76 0 .84-.386 0 0 0 0 0 0l6.291-31.355L6.652 22.832zm0 0a.573.573 0 01.048-1.044m-.048 1.044l.048-1.044m0 0l36.18-14.11h0l.007-.003c.401-.161.85.197.762.647L6.7 21.788zm0 0s0 0 0 0m0 0h0M42.095 10.26l.229-1.138-1.082.422-31.59 12.32-1.334.521 1.282.64 6.42 3.198.306.152.296-.172 18.315-10.648.003-.002c.583-.342 1.174.471.663.923h0L21.852 28.66l-.215.19v9.01l1.142-1.519 2.548-3.386s0 0 0 0a.574.574 0 01.74-.155h.001l9.56 5.445.764.435.172-.862 5.53-27.557z" stroke="#F32E7C" stroke-width="1.27"/></g><g style="mix-blend-mode:hard-light" filter="url(#filter1_f_112_17428)"><path d="M6.74 22.657h0a.377.377 0 01.031-.687s0 0 0 0l36.18-14.11h0l.009-.003c.256-.104.556.129.497.427L37.165 39.64s0 0 0 0a.376.376 0 01-.55.255l-.004-.001-10.089-5.746-.635-.361-.439.584-4.08 5.423c-.217.289-.677.128-.677-.226V28.592c0-.107.046-.21.128-.282 0 0 0 0 0 0l5.084-4.506-.968-1.339-8.4 4.884-.002.001a.38.38 0 01-.358.01v-.001L6.74 22.657zm35.547-12.358l.299-1.489-1.415.552-31.59 12.32-1.745.681 1.677.836 6.42 3.198.4.2.387-.225 18.315-10.648.003-.002c.123-.072.207-.068.264-.053a.42.42 0 01.221.163c.066.09.09.185.086.259-.003.058-.025.141-.136.239h0l-13.75 12.183-.28.248v9.682l1.493-1.985 2.548-3.387s0 0 0 0a.379.379 0 01.488-.103h0l9.56 5.445.999.57.226-1.127 5.53-27.557z" stroke="#FF26C2" stroke-width="1.66"/></g><g style="mix-blend-mode:hard-light" filter="url(#filter2_ddi_112_17428)"><path d="M6.652 22.832h0l9.436 4.702s0 0 0 0a.575.575 0 00.543-.015l.002-.001 8.4-4.884.74 1.024-5.084 4.505s0 0 0 0a.573.573 0 00-.193.43v10.974c0 .543.7.78 1.029.343l4.08-5.423.335-.447.486.277 10.088 5.745.003.002c.33.19.76 0 .84-.386 0 0 0 0 0 0l6.291-31.355L6.652 22.832zm0 0a.573.573 0 01.048-1.044m-.048 1.044l.048-1.044m0 0l36.18-14.11h0l.007-.003c.401-.161.85.197.762.647L6.7 21.788zm0 0s0 0 0 0m0 0h0M42.095 10.26l.229-1.138-1.082.422-31.59 12.32-1.334.521 1.282.64 6.42 3.198.306.152.296-.172 18.315-10.648.003-.002c.583-.342 1.174.471.663.923h0L21.852 28.66l-.215.19v9.01l1.142-1.519 2.548-3.386s0 0 0 0a.574.574 0 01.74-.155h.001l9.56 5.445.764.435.172-.862 5.53-27.557z" stroke="#FB37FF" stroke-opacity=".2" stroke-width="1.27"/></g><g filter="url(#filter3_f_112_17428)"><path d="M6.544 23.05h0l9.436 4.703s0 0 0 0c.25.123.541.113.775-.024h0l8.401-4.884.456.63-5.085 4.506s0 0 0 0a.817.817 0 00-.275.611v10.975c0 .78.998 1.113 1.468.49L6.544 23.05zm0 0c-.63-.313-.59-1.233.068-1.49l36.18-14.11h0l.004-.001c.582-.234 1.22.282 1.092.921l-6.292 31.356L6.544 23.05zm19.255 11.584l-4.08 5.423 15.877-.33a.815.815 0 01-1.201.548h-.001l-10.09-5.746-.298-.17-.207.275zm16.057-24.422l.14-.7-.665.26-31.59 12.32-.821.32.789.394 6.42 3.198.188.094.182-.106 18.315-10.648.002-.001c.837-.492 1.682.668.949 1.316h0l-13.75 12.183-.133.116v8.17l.703-.934 2.548-3.388s0 0 0 0a.818.818 0 011.056-.22h0l9.56 5.446.47.267.107-.53 5.53-27.557z" stroke="#FB37FF" stroke-width=".781"/></g><g filter="url(#filter4_f_112_17428)"><path d="M6.457 23.225h0l9.437 4.703s0 0 0 0c.307.152.668.14.96-.03h0l8.4-4.884.228.315-5.084 4.506a1.012 1.012 0 00-.342.757v10.975c0 .969 1.239 1.38 1.82.608l4.08-5.424.103-.137.15.085 10.088 5.745h0c.592.34 1.352 0 1.49-.679l-31.33-16.54zm0 0c-.782-.389-.73-1.528.083-1.846l36.181-14.11.002-.001M6.457 23.225L42.723 7.268m0 0c.727-.293 1.514.35 1.357 1.14l-1.357-1.14zm1.357 1.14l-6.293 31.357L44.08 8.409zm-2.415 1.766l.07-.35-.333.13-31.59 12.32-.41.16.394.197 6.42 3.198.094.047.09-.053 18.316-10.648h0c1.04-.611 2.089.824 1.178 1.63h0l-13.75 12.183-.066.058v7.497l.351-.467 2.549-3.388s0 0 0 0c.31-.41.872-.52 1.308-.271h0l9.56 5.445.235.134.053-.265 5.53-27.557z" stroke="#fff" stroke-width=".391"/></g></g><defs><filter id="filter0_f_112_17428" x="-.156" y="1.14" width="50.311" height="45.493" filterUnits="userSpaceOnUse" color-interpolation-filters="sRGB"><feFlood flood-opacity="0" result="BackgroundImageFix"/><feBlend in="SourceGraphic" in2="BackgroundImageFix" result="shape"/><feGaussianBlur stdDeviation="2.93" result="effect1_foregroundBlur_112_17428"/></filter><filter id="filter1_f_112_17428" x="3.75" y="5.047" width="42.498" height="37.68" filterUnits="userSpaceOnUse" color-interpolation-filters="sRGB"><feFlood flood-opacity="0" result="BackgroundImageFix"/><feBlend in="SourceGraphic" in2="BackgroundImageFix" result="shape"/><feGaussianBlur stdDeviation=".977" result="effect1_foregroundBlur_112_17428"/></filter><filter id="filter2_ddi_112_17428" x="3.164" y="6.414" width="43.67" height="38.852" filterUnits="userSpaceOnUse" color-interpolation-filters="sRGB"><feFlood flood-opacity="0" result="BackgroundImageFix"/><feColorMatrix in="SourceAlpha" values="0 0 0 0 0 0 0 0 0 0 0 0 0 0 0 0 0 0 127 0" result="hardAlpha"/><feOffset dy="1.27"/><feGaussianBlur stdDeviation=".488"/><feColorMatrix values="0 0 0 0 0.3 0 0 0 0 0 0 0 0 0 0.26 0 0 0 0.7 0"/><feBlend mode="multiply" in2="BackgroundImageFix" result="effect1_dropShadow_112_17428"/><feColorMatrix in="SourceAlpha" values="0 0 0 0 0 0 0 0 0 0 0 0 0 0 0 0 0 0 127 0" result="hardAlpha"/><feOffset dy="1.953"/><feGaussianBlur stdDeviation="1.27"/><feColorMatrix values="0 0 0 0 0.6 0 0 0 0 0 0 0 0 0 0.6 0 0 0 1 0"/><feBlend mode="color-dodge" in2="effect1_dropShadow_112_17428" result="effect2_dropShadow_112_17428"/><feBlend in="SourceGraphic" in2="effect2_dropShadow_112_17428" result="shape"/><feColorMatrix in="SourceAlpha" values="0 0 0 0 0 0 0 0 0 0 0 0 0 0 0 0 0 0 127 0" result="hardAlpha"/><feOffset dx="-.127" dy=".254"/><feGaussianBlur stdDeviation=".063"/><feComposite in2="hardAlpha" operator="arithmetic" k2="-1" k3="1"/><feColorMatrix values="0 0 0 0 1 0 0 0 0 1 0 0 0 0 1 0 0 0 0.5 0"/><feBlend in2="shape" result="effect3_innerShadow_112_17428"/></filter><filter id="filter3_f_112_17428" x="5.508" y="6.805" width="38.982" height="34.164" filterUnits="userSpaceOnUse" color-interpolation-filters="sRGB"><feFlood flood-opacity="0" result="BackgroundImageFix"/><feBlend in="SourceGraphic" in2="BackgroundImageFix" result="shape"/><feGaussianBlur stdDeviation=".098" result="effect1_foregroundBlur_112_17428"/></filter><filter id="filter4_f_112_17428" x="5.573" y="6.87" width="38.852" height="34.034" filterUnits="userSpaceOnUse" color-interpolation-filters="sRGB"><feFlood flood-opacity="0" result="BackgroundImageFix"/><feBlend in="SourceGraphic" in2="BackgroundImageFix" result="shape"/><feGaussianBlur stdDeviation=".065" result="effect1_foregroundBlur_112_17428"/></filter><clipPath id="clip0_112_17428"><path fill="#fff" d="M0 0h50v50H0z"/></clipPath></defs></svg>