<svg width="32" height="32" fill="none" xmlns="http://www.w3.org/2000/svg"><g filter="url(#filter0_i_112_17441)"><path d="M17.024 15.576V7.313a1.024 1.024 0 00-2.048 0v8.686c0 .272.108.532.3.725l5.36 5.36a1.022 1.022 0 001.448 0c.4-.4.4-1.048 0-1.448l-5.06-5.06z" fill="#C41DE5"/><path d="M32 16v-.014C31.99 7.169 24.816 0 16 0 7.177 0 0 7.178 0 16c0 8.823 7.177 16 16 16 8.817 0 15.991-7.169 16-15.985V16zM17.024 29.914v-1.591a1.024 1.024 0 10-2.048 0v1.591c-6.879-.501-12.39-6.012-12.89-12.89h1.591a1.023 1.023 0 100-2.048H2.085c.502-6.879 6.012-12.39 12.89-12.89v1.591a1.024 1.024 0 002.049 0V2.085c6.879.502 12.389 6.013 12.89 12.891h-1.591a1.024 1.024 0 100 2.048h1.591c-.501 6.878-6.011 12.39-12.89 12.89z" fill="#2937F9"/></g><defs><filter id="filter0_i_112_17441" x="-.487" y="0" width="32.487" height="32.487" filterUnits="userSpaceOnUse" color-interpolation-filters="sRGB"><feFlood flood-opacity="0" result="BackgroundImageFix"/><feBlend in="SourceGraphic" in2="BackgroundImageFix" result="shape"/><feColorMatrix in="SourceAlpha" values="0 0 0 0 0 0 0 0 0 0 0 0 0 0 0 0 0 0 127 0" result="hardAlpha"/><feOffset dx="-.487" dy=".975"/><feGaussianBlur stdDeviation=".244"/><feComposite in2="hardAlpha" operator="arithmetic" k2="-1" k3="1"/><feColorMatrix values="0 0 0 0 1 0 0 0 0 1 0 0 0 0 1 0 0 0 0.5 0"/><feBlend in2="shape" result="effect1_innerShadow_112_17441"/></filter></defs></svg>