<svg width="50" height="50" fill="none" xmlns="http://www.w3.org/2000/svg"><g clip-path="url(#clip0_112_17419)"><path d="M25.264 38.625c6.318 0 4.065-4 4.553-5.15-.007-.859-.014-1.685.015-2.188.4.113 1.345.592 3.295 2.488 3.012 3.04 3.782 4.85 6.215 4.85h4.479c1.42 0 2.158-.588 2.528-1.08.356-.478.706-1.315.323-2.618-.999-3.137-6.826-8.555-7.188-9.126.055-.106.142-.246.188-.319h-.004c1.15-1.52 5.54-8.096 6.185-10.728a.035.035 0 00.004-.014c.35-1.201.03-1.98-.302-2.42-.499-.66-1.292-.992-2.364-.992h-4.479c-1.5 0-2.637.755-3.212 2.133-.962 2.447-3.666 7.48-5.694 9.262a116.58 116.58 0 01.013-5.883c.066-2.793.277-5.512-2.622-5.512h-7.04c-1.816 0-3.554 1.983-1.672 4.338 1.645 2.064.591 3.214.946 8.94-1.383-1.484-3.843-5.49-5.583-10.609-.488-1.385-1.226-2.668-3.307-2.668H6.063c-1.816 0-2.9.99-2.9 2.648 0 3.724 8.241 24.648 22.1 24.648zM10.54 14.06c.395 0 .435 0 .728.832 1.782 5.246 5.778 13.01 8.697 13.01 2.193 0 2.193-2.248 2.193-3.094l-.002-6.737c-.12-2.23-.931-3.34-1.465-4.013l6.384.008c.004.03-.036 7.452.019 9.25 0 2.553 2.027 4.016 5.192.813 3.339-3.769 5.648-9.403 5.741-9.632.137-.328.255-.439.684-.439h4.499l-.003.017c-.41 1.91-4.452 8-5.804 9.89-.022.03-.042.06-.062.091-.595.972-1.079 2.046.082 3.556h.002c.106.128.38.426.78.841 1.245 1.285 5.515 5.678 5.893 7.425-.25.04-.524.011-4.755.02-.9 0-1.605-1.346-4.293-4.058-2.417-2.351-3.985-3.312-5.414-3.312-2.773 0-2.571 2.251-2.546 4.973.01 2.952-.009 2.019.011 2.204-.162.064-.626.191-1.836.191-11.547 0-19.066-18.327-19.356-21.83.1-.01 1.478-.004 4.633-.006z" fill="#C41DE5"/><g style="mix-blend-mode:hard-light" filter="url(#filter0_f_112_17419)"><path d="M38.98 25.705h-.418l.667-.882c.56-.741 1.935-2.749 3.251-4.902a51.72 51.72 0 001.807-3.173c.504-.978.867-1.815 1.02-2.404v-.01l.018-.063.009-.035.003-.007c.285-1.008.009-1.6-.221-1.906-.365-.482-.97-.773-1.925-.773h-4.479c-1.277 0-2.212.621-2.702 1.79-.494 1.256-1.424 3.15-2.483 4.953-1.052 1.79-2.272 3.562-3.358 4.516l-.884.777-.029-1.177c-.062-2.537-.02-4.475.013-5.91h0l.009-.368c.033-1.291.061-2.422-.186-3.268-.13-.441-.322-.753-.59-.959-.265-.205-.667-.354-1.305-.354h-7.04c-.72 0-1.415.398-1.738.997-.301.558-.336 1.407.496 2.448h0c.448.562.73 1.085.891 1.656.16.563.193 1.14.186 1.79-.004.351-.019.728-.036 1.145-.046 1.138-.104 2.581.024 4.657l.095 1.532-1.046-1.122c-1.453-1.558-3.945-5.64-5.7-10.803-.237-.671-.51-1.238-.921-1.64-.392-.383-.954-.658-1.867-.658H6.063c-.812 0-1.39.22-1.76.558-.364.332-.59.835-.59 1.54 0 .39.112 1.066.361 1.983a30.72 30.72 0 001.104 3.235 45.48 45.48 0 004.295 8.197c3.768 5.658 9.15 10.682 15.79 10.682 1.533 0 2.468-.244 3.036-.57.542-.31.783-.715.895-1.157.118-.473.09-.996.046-1.538l-.008-.105a8.798 8.798 0 01-.041-.672c-.003-.199.008-.43.075-.65-.007-.816-.013-1.622.017-2.127l.04-.683.658.185c.541.153 1.569.717 3.53 2.623l.007.007h0a53.774 53.774 0 011.92 2.06l.044.051c.519.58.944 1.056 1.35 1.443.806.77 1.478 1.133 2.51 1.133h4.479c1.239 0 1.817-.5 2.087-.86L38.98 25.705zm0 0l.04.063c.08.126.254.317.435.509.172.184.395.415.65.68l.118.123c.612.637 1.4 1.46 2.206 2.36.808.903 1.627 1.876 2.304 2.813.681.942 1.19 1.81 1.413 2.507.328 1.122.022 1.78-.238 2.127L38.98 25.705zM10.542 13.18h0-3.463c-.376 0-.657 0-.85.002-.175 0-.315.001-.37.006l-.544.05.045.543c.08.968.634 2.839 1.563 5.056a44.713 44.713 0 003.984 7.434c3.377 5.046 8.288 9.846 14.357 9.846 1.237 0 1.781-.129 2.038-.23l.39-.153-.045-.417h0c0-.009-.003-.026-.006-.047 0-.201.003-.737-.002-2.1v-.003l-.005-.484c-.007-.507-.013-.977.002-1.418.02-.577.077-1.053.2-1.431.12-.369.293-.62.538-.788.251-.171.639-.298 1.261-.298 1.182 0 2.604.797 5.027 3.153.941.95 1.625 1.718 2.174 2.334.23.257.435.488.626.695.314.34.603.629.886.833.293.21.617.356.994.356h.001c1.74-.004 2.809-.001 3.484 0l.384.001c.605.001.792 0 .973-.028l.574-.092-.123-.568c-.12-.555-.519-1.237-.992-1.915-.488-.699-1.11-1.468-1.75-2.213-1.257-1.462-2.616-2.865-3.255-3.524l-.037-.038s0 0 0 0a19.773 19.773 0 01-.753-.81l-.016-.019c-.492-.652-.597-1.154-.561-1.563.038-.44.245-.856.535-1.33l.036-.054h0l.008-.01a98.82 98.82 0 003.276-4.97 51.54 51.54 0 001.677-2.899c.452-.859.814-1.652.937-2.212l.232-.696h-5.26c-.244 0-.52.027-.762.192-.242.166-.356.408-.43.585h0l-.002.005c-.092.229-2.368 5.771-5.633 9.463-1.543 1.558-2.627 1.788-3.216 1.603-.564-.178-1.024-.865-1.024-2.04v-.017c-.027-.888-.031-3.182-.028-5.27.001-1.041.004-2.028.006-2.756l.003-.873v-.366a.777.777 0 00-.003-.032l-.057-.486h-.489l-6.384-.007-1.139-.002.707.893c.49.62 1.232 1.62 1.346 3.687l.002 6.722s0 0 0 0c0 .435-.006 1.102-.233 1.655-.109.265-.26.48-.465.629-.201.146-.495.259-.945.259-.5 0-1.161-.348-1.951-1.135-.77-.766-1.572-1.86-2.354-3.14-1.562-2.556-2.99-5.77-3.87-8.362h0l-.003-.006a7.972 7.972 0 00-.196-.518 1.417 1.417 0 00-.244-.4c-.266-.288-.61-.283-.772-.28h-.035zm16.75 22.683a.54.54 0 01-.223.035 1.154 1.154 0 00.262-.052.517.517 0 01-.04.017z" stroke="#F32E7C" stroke-width="1.1"/></g><g style="mix-blend-mode:hard-light" filter="url(#filter1_f_112_17419)"><path d="M36.167 13.403c-.499 1.267-1.432 3.168-2.494 4.975-1.053 1.792-2.285 3.585-3.392 4.558l-1.156 1.016-.038-1.539c-.062-2.541-.02-4.482.013-5.917h0l.009-.36c.032-1.303.06-2.407-.18-3.225-.123-.419-.3-.695-.53-.873-.229-.177-.59-.319-1.202-.319h-7.04c-.663 0-1.298.369-1.59.909-.262.486-.319 1.262.48 2.261v.001c.459.575.753 1.118.922 1.715.166.586.2 1.183.192 1.838-.003.357-.019.737-.036 1.157-.046 1.137-.104 2.566.024 4.633l.124 2.002-1.368-1.467c-1.474-1.58-3.977-5.685-5.737-10.863-.234-.664-.496-1.2-.879-1.574-.357-.348-.874-.61-1.748-.61H6.063c-.782 0-1.316.212-1.647.514-.322.295-.534.749-.534 1.415 0 .366.107 1.025.356 1.939.244.898.61 1.995 1.097 3.217a45.309 45.309 0 004.28 8.165c3.76 5.647 9.097 10.607 15.649 10.607 1.518 0 2.419-.243 2.95-.547.499-.286.714-.65.815-1.053.111-.442.087-.938.043-1.482l-.01-.104c-.018-.225-.038-.467-.04-.685a2.356 2.356 0 01.075-.676c-.007-.806-.013-1.606.016-2.113l.052-.893.862.242c.584.165 1.638.756 3.602 2.665l.01.01h0a51.55 51.55 0 011.924 2.066l.042.047c.522.583.943 1.055 1.343 1.437.787.75 1.42 1.086 2.394 1.086h4.479c1.183 0 1.712-.473 1.951-.793l-9.605-23.382zm0 0c.463-1.104 1.337-1.684 2.545-1.684h4.48c.918 0 1.465.279 1.789.706.2.266.46.8.198 1.742l-.005.01-.012.05-.024.083v.012c-.151.569-.505 1.383-1.001 2.348a51.13 51.13 0 01-1.801 3.162c-1.314 2.15-2.685 4.153-3.242 4.889l-.873 1.153h.666c.094.142.275.338.444.519.174.185.397.417.652.682l.118.123a89.39 89.39 0 012.202 2.356c.806.9 1.62 1.868 2.293 2.798.678.938 1.173 1.787 1.389 2.459.31 1.065.017 1.667-.212 1.974l-9.606-23.382zm-25.626-.39h0-4.313c-.168 0-.32.002-.385.008l-.71.064.058.711c.083.997.646 2.888 1.576 5.108a44.879 44.879 0 004 7.462c3.382 5.055 8.337 9.921 14.497 9.921 1.245 0 1.814-.129 2.1-.24l.51-.202-.059-.545v-.002l-.005-.04c.001-.211.003-.754-.001-2.087v-.005l-.006-.487c-.007-.506-.013-.97.002-1.407.02-.571.076-1.029.192-1.385.111-.343.266-.558.473-.7.214-.146.565-.268 1.165-.268 1.106 0 2.483.745 4.908 3.103.937.946 1.615 1.708 2.163 2.322.23.26.438.492.632.702.315.34.613.64.911.855.312.223.67.388 1.093.388h.002c1.738-.004 2.807-.001 3.482 0l.385.002c.597 0 .802 0 1-.031l.75-.12-.16-.743c-.129-.591-.546-1.298-1.02-1.976a28.651 28.651 0 00-1.76-2.226c-1.26-1.466-2.622-2.872-3.261-3.531l-.038-.039s0 0 0 0a19.68 19.68 0 01-.744-.8l-.013-.016c-.47-.624-.557-1.085-.526-1.443.035-.398.223-.784.51-1.255a.92.92 0 01.029-.043l.005-.006.004-.007a98.98 98.98 0 003.283-4.979 51.749 51.749 0 001.683-2.909c.45-.853.82-1.661.95-2.246l.304-.91h-5.495c-.253 0-.573.026-.858.222-.285.195-.414.478-.49.659h0l-.003.006c-.092.229-2.357 5.744-5.6 9.41-1.53 1.545-2.548 1.714-3.04 1.558-.46-.145-.907-.734-.907-1.879v-.022c-.027-.884-.03-3.175-.028-5.265.001-1.04.004-2.027.007-2.755l.003-.873v-.362l-.001-.015-.004-.043-.075-.635h-.639l-6.384-.008-1.49-.001.925 1.167c.478.604 1.197 1.57 1.31 3.586l.002 6.718s0 0 0 0c0 .439-.008 1.073-.22 1.59-.1.245-.235.43-.409.557-.168.122-.425.227-.845.227-.43 0-1.049-.305-1.832-1.085-.756-.753-1.55-1.834-2.329-3.108-1.554-2.545-2.978-5.748-3.854-8.33h0l-.003-.007a8.14 8.14 0 00-.201-.53 1.583 1.583 0 00-.275-.447c-.32-.346-.74-.338-.898-.335h-.033zm-4.628.777a3.115 3.115 0 01-.005-.053l19.356 21.83c-10.905 0-18.217-16.345-19.24-21.114h-.051l-.06-.663zm21.143 22.278a.77.77 0 01-.06-.006 1.459 1.459 0 00.456-.088.705.705 0 01-.396.094z" stroke="#FF26C2" stroke-width="1.439"/></g><g style="mix-blend-mode:hard-light" filter="url(#filter2_ddi_112_17419)"><path d="M38.98 25.705h-.418l.667-.882c.56-.741 1.935-2.749 3.251-4.902a51.72 51.72 0 001.807-3.173c.504-.978.867-1.815 1.02-2.404v-.01l.018-.063.009-.035.003-.007c.285-1.008.009-1.6-.221-1.906-.365-.482-.97-.773-1.925-.773h-4.479c-1.277 0-2.212.621-2.702 1.79-.494 1.256-1.424 3.15-2.483 4.953-1.052 1.79-2.272 3.562-3.358 4.516l-.884.777-.029-1.177c-.062-2.537-.02-4.475.013-5.91h0l.009-.368c.033-1.291.061-2.422-.186-3.268-.13-.441-.322-.753-.59-.959-.265-.205-.667-.354-1.305-.354h-7.04c-.72 0-1.415.398-1.738.997-.301.558-.336 1.407.496 2.448h0c.448.562.73 1.085.891 1.656.16.563.193 1.14.186 1.79-.004.351-.019.728-.036 1.145-.046 1.138-.104 2.581.024 4.657l.095 1.532-1.046-1.122c-1.453-1.558-3.945-5.64-5.7-10.803-.237-.671-.51-1.238-.921-1.64-.392-.383-.954-.658-1.867-.658H6.063c-.812 0-1.39.22-1.76.558-.364.332-.59.835-.59 1.54 0 .39.112 1.066.361 1.983a30.72 30.72 0 001.104 3.235 45.48 45.48 0 004.295 8.197c3.768 5.658 9.15 10.682 15.79 10.682 1.533 0 2.468-.244 3.036-.57.542-.31.783-.715.895-1.157.118-.473.09-.996.046-1.538l-.008-.105a8.798 8.798 0 01-.041-.672c-.003-.199.008-.43.075-.65-.007-.816-.013-1.622.017-2.127l.04-.683.658.185c.541.153 1.569.717 3.53 2.623l.007.007h0a53.774 53.774 0 011.92 2.06l.044.051c.519.58.944 1.056 1.35 1.443.806.77 1.478 1.133 2.51 1.133h4.479c1.239 0 1.817-.5 2.087-.86L38.98 25.705zm0 0l.04.063c.08.126.254.317.435.509.172.184.395.415.65.68l.118.123c.612.637 1.4 1.46 2.206 2.36.808.903 1.627 1.876 2.304 2.813.681.942 1.19 1.81 1.413 2.507.328 1.122.022 1.78-.238 2.127L38.98 25.705zM10.542 13.18h0-3.463c-.376 0-.657 0-.85.002-.175 0-.315.001-.37.006l-.544.05.045.543c.08.968.634 2.839 1.563 5.056a44.713 44.713 0 003.984 7.434c3.377 5.046 8.288 9.846 14.357 9.846 1.237 0 1.781-.129 2.038-.23l.39-.153-.045-.417h0c0-.009-.003-.026-.006-.047 0-.201.003-.737-.002-2.1v-.003l-.005-.484c-.007-.507-.013-.977.002-1.418.02-.577.077-1.053.2-1.431.12-.369.293-.62.538-.788.251-.171.639-.298 1.261-.298 1.182 0 2.604.797 5.027 3.153.941.95 1.625 1.718 2.174 2.334.23.257.435.488.626.695.314.34.603.629.886.833.293.21.617.356.994.356h.001c1.74-.004 2.809-.001 3.484 0l.384.001c.605.001.792 0 .973-.028l.574-.092-.123-.568c-.12-.555-.519-1.237-.992-1.915-.488-.699-1.11-1.468-1.75-2.213-1.257-1.462-2.616-2.865-3.255-3.524l-.037-.038s0 0 0 0a19.773 19.773 0 01-.753-.81l-.016-.019c-.492-.652-.597-1.154-.561-1.563.038-.44.245-.856.535-1.33l.036-.054h0l.008-.01a98.82 98.82 0 003.276-4.97 51.54 51.54 0 001.677-2.899c.452-.859.814-1.652.937-2.212l.232-.696h-5.26c-.244 0-.52.027-.762.192-.242.166-.356.408-.43.585h0l-.002.005c-.092.229-2.368 5.771-5.633 9.463-1.543 1.558-2.627 1.788-3.216 1.603-.564-.178-1.024-.865-1.024-2.04v-.017c-.027-.888-.031-3.182-.028-5.27.001-1.041.004-2.028.006-2.756l.003-.873v-.366a.777.777 0 00-.003-.032l-.057-.486h-.489l-6.384-.007-1.139-.002.707.893c.49.62 1.232 1.62 1.346 3.687l.002 6.722s0 0 0 0c0 .435-.006 1.102-.233 1.655-.109.265-.26.48-.465.629-.201.146-.495.259-.945.259-.5 0-1.161-.348-1.951-1.135-.77-.766-1.572-1.86-2.354-3.14-1.562-2.556-2.99-5.77-3.87-8.362h0l-.003-.006a7.972 7.972 0 00-.196-.518 1.417 1.417 0 00-.244-.4c-.266-.288-.61-.283-.772-.28h-.035zm16.75 22.683a.54.54 0 01-.223.035 1.154 1.154 0 00.262-.052.517.517 0 01-.04.017z" stroke="#FB37FF" stroke-opacity=".2" stroke-width="1.1"/></g><g filter="url(#filter3_f_112_17419)"><path d="M38.987 25.493h.109l.102.161c.067.105.225.28.411.478.172.183.393.413.648.678l.119.124a89.696 89.696 0 012.211 2.366c.81.905 1.634 1.884 2.317 2.829.686.948 1.211 1.839 1.445 2.57.348 1.191.025 1.918-.272 2.315-.308.41-.948.945-2.256.945h-4.479c-1.103 0-1.824-.398-2.657-1.192-.411-.392-.842-.874-1.357-1.45l-.049-.055a52.239 52.239 0 00-1.911-2.053h0l-.005-.004c-1.957-1.902-2.953-2.434-3.44-2.571l-.405-.114-.024.42c-.03.504-.023 1.316-.016 2.147a1.88 1.88 0 00-.076.616c.002.203.021.43.04.656l.01.106c.043.54.075 1.095-.053 1.606-.124.492-.398.947-.995 1.29-.613.351-1.59.598-3.14.598-6.752 0-12.19-5.104-15.967-10.777a45.69 45.69 0 01-4.316-8.235 31.06 31.06 0 01-1.111-3.258c-.25-.922-.37-1.62-.37-2.04 0-.751.244-1.316.66-1.695.42-.383 1.054-.614 1.903-.614h4.478c.962 0 1.579.293 2.014.719.448.437.734 1.042.973 1.721 1.75 5.147 4.23 9.2 5.656 10.728l.644.69-.059-.942c-.13-2.088-.07-3.548-.024-4.687.017-.415.032-.786.036-1.13.006-.642-.027-1.197-.178-1.73-.153-.54-.42-1.038-.853-1.582h0c-.875-1.094-.867-2.033-.517-2.68.362-.673 1.131-1.108 1.924-1.108h7.04c.671 0 1.122.156 1.435.397.313.242.525.598.663 1.068.257.88.227 2.044.195 3.324l-.01.376h0a116.972 116.972 0 00-.012 5.9l.017.724.545-.478c1.057-.93 2.263-2.675 3.314-4.464 1.056-1.797 1.98-3.682 2.47-4.926.523-1.249 1.536-1.921 2.898-1.921h4.48c1 0 1.677.307 2.093.857.27.359.563 1.024.25 2.11l-.001.003-.004.017-.011.038v.007c-.156.615-.532 1.48-1.044 2.473-.515 1-1.156 2.11-1.814 3.187-1.318 2.157-2.697 4.171-3.263 4.92l-.41.542zm-28.446-12.1h0H7.08l-.85.001c-.18 0-.307.002-.351.006l-.335.03.028.335c.077.932.62 2.777 1.548 4.992a44.499 44.499 0 003.964 7.397c3.37 5.037 8.225 9.752 14.18 9.752 1.228 0 1.741-.128 1.961-.214l.24-.095-.027-.257a.577.577 0 00-.008-.05c.001-.185.003-.71-.001-2.118v-.002l-.006-.48c-.007-.508-.013-.985.003-1.431.02-.584.078-1.083.21-1.49.13-.4.326-.695.62-.896.297-.203.73-.335 1.38-.335 1.277 0 2.755.86 5.176 3.214.946.954 1.638 1.73 2.187 2.348.228.256.432.485.62.687.313.34.589.614.854.805.27.194.551.316.87.316h0c1.74-.004 2.81-.001 3.485 0l.385.002c.613 0 .78 0 .939-.026l.353-.056-.076-.35c-.11-.51-.485-1.161-.958-1.839a29.442 29.442 0 00-1.737-2.196c-1.253-1.457-2.609-2.856-3.248-3.515l-.037-.038a19.742 19.742 0 01-.763-.822l-.019-.022c-.52-.688-.647-1.242-.606-1.713.043-.493.274-.946.567-1.425l.046-.068h0l.005-.006a98.554 98.554 0 003.268-4.957 51.286 51.286 0 001.67-2.887c.454-.863.803-1.636.919-2.164l.001-.007.143-.428h-4.968c-.233 0-.456.028-.643.156s-.282.32-.353.491l-.002.003c-.092.23-2.38 5.807-5.675 9.528-1.558 1.575-2.724 1.884-3.433 1.66-.694-.218-1.173-1.027-1.173-2.242h0v-.01c-.027-.892-.03-3.19-.028-5.277.001-1.042.004-2.028.007-2.756l.003-.873v-.353l-.001-.008-.001-.013-.035-.298h-.301l-6.384-.008h-.701l.435.549c.507.64 1.275 1.683 1.392 3.812l.002 6.728s0 0 0 0c0 .43-.004 1.138-.249 1.735-.12.292-.292.542-.537.72-.242.176-.581.3-1.069.3-.588 0-1.302-.4-2.1-1.197-.787-.783-1.6-1.892-2.386-3.179-1.571-2.572-3.006-5.801-3.89-8.405h0l-.001-.003a7.84 7.84 0 00-.191-.504 1.212 1.212 0 00-.206-.341c-.199-.216-.452-.214-.617-.213h-.034zm-4.628.397a3.115 3.115 0 01-.005-.053l20.855 21.729c-.282.052-.746.102-1.5.102-11.215 0-18.631-17.292-19.312-21.494h-.012l-.026-.284z" stroke="#FB37FF" stroke-width=".677"/></g><g filter="url(#filter4_f_112_17419)"><path d="M39.328 25.324h.044a2.576 2.576 0 00-.038.071l-.045.087.052.082c.056.088.2.249.392.452.17.183.39.412.646.677l.119.123a89.633 89.633 0 012.215 2.371c.812.907 1.64 1.891 2.328 2.842.69.954 1.228 1.862 1.47 2.62.365 1.247.029 2.03-.298 2.466-.339.452-1.028 1.013-2.392 1.013h-4.479c-1.16 0-1.92-.425-2.773-1.238-.417-.398-.851-.884-1.364-1.457l-.052-.058a52.162 52.162 0 00-1.905-2.047l-.003-.002c-1.954-1.9-2.924-2.404-3.367-2.529l-.203-.057-.012.21c-.03.503-.023 1.321-.015 2.166-.064.17-.08.374-.077.585.003.196.021.416.04.643l.009.107c.044.538.079 1.12-.057 1.661-.134.532-.434 1.028-1.075 1.396-.649.372-1.659.62-3.224.62-6.841 0-12.322-5.167-16.108-10.852a45.86 45.86 0 01-4.332-8.267 31.233 31.233 0 01-1.117-3.276c-.252-.925-.376-1.641-.376-2.083 0-.79.258-1.404.715-1.82.458-.42 1.138-.659 2.017-.659h4.478c1.001 0 1.662.307 2.133.767.476.465.773 1.101 1.014 1.787 1.745 5.133 4.215 9.162 5.62 10.668l.322.345-.03-.471c-.13-2.098-.07-3.572-.024-4.712.017-.412.032-.78.035-1.118.007-.637-.026-1.172-.171-1.682-.146-.514-.4-.992-.823-1.522h0c-.907-1.136-.921-2.148-.534-2.867.395-.73 1.224-1.197 2.075-1.197h7.039c.698 0 1.189.164 1.538.433.35.27.578.662.722 1.154.266.907.235 2.1.202 3.37l-.01.382h0a116.905 116.905 0 00-.012 5.892l.009.362.272-.24c1.036-.91 2.23-2.634 3.28-4.422 1.053-1.792 1.974-3.67 2.46-4.903.548-1.314 1.623-2.028 3.054-2.028h4.48c1.035 0 1.77.32 2.228.925.3.4.608 1.124.275 2.27l-.001.004h0v.002l-.006.018v.003c-.157.637-.544 1.525-1.062 2.53a52.083 52.083 0 01-1.82 3.198c-1.32 2.16-2.703 4.18-3.273 4.933l-.206.272zM10.54 13.562h0-3.46l-.85.001a7.818 7.818 0 00-.336.005l-.167.016.014.167c.074.904.608 2.727 1.535 4.94a44.332 44.332 0 003.949 7.37c3.365 5.027 8.175 9.676 14.04 9.676 1.218 0 1.707-.128 1.898-.203l.12-.047-.014-.129a.35.35 0 00-.006-.043h0l-.002-.007c0-.165.003-.675-.002-2.136h0l-.005-.476c-.007-.51-.013-.992.002-1.443.021-.589.08-1.107.219-1.536.138-.426.353-.757.685-.984.334-.228.805-.364 1.476-.364 1.353 0 2.876.91 5.295 3.263.95.958 1.648 1.741 2.198 2.36.227.254.43.48.614.68.313.339.579.603.829.782.252.182.5.285.771.285h0c1.74-.004 2.811-.001 3.486 0l.384.001c.621.002.77 0 .912-.023l.177-.029-.038-.174c-.103-.474-.46-1.1-.932-1.778a28.885 28.885 0 00-1.727-2.183c-1.249-1.453-2.602-2.849-3.24-3.508l-.037-.038c-.401-.415-.672-.71-.773-.831l-.02-.025c-.542-.716-.688-1.311-.643-1.832.047-.537.297-1.018.593-1.5a.916.916 0 01.054-.08h0l.002-.004a98.478 98.478 0 003.261-4.947c.617-1 1.205-2.003 1.665-2.877.456-.865.795-1.62.904-2.124a.227.227 0 00.002-.01v-.003l.072-.213h-4.732c-.223 0-.403.027-.547.126-.144.098-.223.248-.293.416v.002c-.093.229-2.392 5.835-5.709 9.58-1.57 1.588-2.802 1.96-3.608 1.706-.799-.252-1.291-1.158-1.291-2.404h0v-.005c-.027-.896-.031-3.197-.028-5.282.001-1.042.004-2.029.006-2.757l.003-.873.001-.244v-.099l-.001-.01-.018-.15h-.15l-6.384-.007h-.35l.217.275c.52.657 1.31 1.733 1.428 3.912l.002 6.733s0 0 0 0c0 .426-.002 1.167-.261 1.8a1.795 1.795 0 01-.594.792c-.276.2-.65.332-1.169.332-.659 0-1.414-.443-2.22-1.246-.8-.796-1.62-1.918-2.41-3.21-1.58-2.585-3.019-5.826-3.906-8.44h0v-.001a7.72 7.72 0 00-.187-.492 1.052 1.052 0 00-.175-.294c-.147-.16-.328-.16-.5-.159h-.027zM39.343 35.57c-.581 0-1.08-.561-2.084-1.687a55.808 55.808 0 00-2.209-2.372c-2.417-2.35-3.985-3.312-5.414-3.312-2.611 0-2.585 1.996-2.551 4.502l.005.472c.004 1.196.003 1.754.002 2.007l12.251.39zm4.585-.005a.802.802 0 01.005.02l.165-.035-.026-.168a.508.508 0 01-.018.003c-.582-1.825-4.561-5.932-5.812-7.223l-.036-.037c-.4-.415-.675-.714-.781-.841l6.503 8.281zM5.913 13.79a3.115 3.115 0 01-.005-.053L26.93 35.43c-.252.063-.74.138-1.665.138-11.373 0-18.839-17.78-19.338-21.663h-.003s0 0 0 0l-.01-.115z" stroke="#fff" stroke-width=".339"/></g></g><defs><filter id="filter0_f_112_17419" x="-1.916" y="5.922" width="53.833" height="37.454" filterUnits="userSpaceOnUse" color-interpolation-filters="sRGB"><feFlood flood-opacity="0" result="BackgroundImageFix"/><feBlend in="SourceGraphic" in2="BackgroundImageFix" result="shape"/><feGaussianBlur stdDeviation="2.539" result="effect1_foregroundBlur_112_17419"/></filter><filter id="filter1_f_112_17419" x="1.469" y="9.307" width="47.062" height="30.683" filterUnits="userSpaceOnUse" color-interpolation-filters="sRGB"><feFlood flood-opacity="0" result="BackgroundImageFix"/><feBlend in="SourceGraphic" in2="BackgroundImageFix" result="shape"/><feGaussianBlur stdDeviation=".846" result="effect1_foregroundBlur_112_17419"/></filter><filter id="filter2_ddi_112_17419" x=".962" y="10.492" width="48.077" height="31.698" filterUnits="userSpaceOnUse" color-interpolation-filters="sRGB"><feFlood flood-opacity="0" result="BackgroundImageFix"/><feColorMatrix in="SourceAlpha" values="0 0 0 0 0 0 0 0 0 0 0 0 0 0 0 0 0 0 127 0" result="hardAlpha"/><feOffset dy="1.1"/><feGaussianBlur stdDeviation=".423"/><feColorMatrix values="0 0 0 0 0.3 0 0 0 0 0 0 0 0 0 0.26 0 0 0 0.7 0"/><feBlend mode="multiply" in2="BackgroundImageFix" result="effect1_dropShadow_112_17419"/><feColorMatrix in="SourceAlpha" values="0 0 0 0 0 0 0 0 0 0 0 0 0 0 0 0 0 0 127 0" result="hardAlpha"/><feOffset dy="1.693"/><feGaussianBlur stdDeviation="1.1"/><feColorMatrix values="0 0 0 0 0.6 0 0 0 0 0 0 0 0 0 0.6 0 0 0 1 0"/><feBlend mode="color-dodge" in2="effect1_dropShadow_112_17419" result="effect2_dropShadow_112_17419"/><feBlend in="SourceGraphic" in2="effect2_dropShadow_112_17419" result="shape"/><feColorMatrix in="SourceAlpha" values="0 0 0 0 0 0 0 0 0 0 0 0 0 0 0 0 0 0 127 0" result="hardAlpha"/><feOffset dx="-.11" dy=".22"/><feGaussianBlur stdDeviation=".055"/><feComposite in2="hardAlpha" operator="arithmetic" k2="-1" k3="1"/><feColorMatrix values="0 0 0 0 1 0 0 0 0 1 0 0 0 0 1 0 0 0 0.5 0"/><feBlend in2="shape" result="effect3_innerShadow_112_17419"/></filter><filter id="filter3_f_112_17419" x="2.993" y="10.831" width="44.015" height="27.636" filterUnits="userSpaceOnUse" color-interpolation-filters="sRGB"><feFlood flood-opacity="0" result="BackgroundImageFix"/><feBlend in="SourceGraphic" in2="BackgroundImageFix" result="shape"/><feGaussianBlur stdDeviation=".085" result="effect1_foregroundBlur_112_17419"/></filter><filter id="filter4_f_112_17419" x="3.049" y="10.887" width="43.902" height="27.523" filterUnits="userSpaceOnUse" color-interpolation-filters="sRGB"><feFlood flood-opacity="0" result="BackgroundImageFix"/><feBlend in="SourceGraphic" in2="BackgroundImageFix" result="shape"/><feGaussianBlur stdDeviation=".056" result="effect1_foregroundBlur_112_17419"/></filter><clipPath id="clip0_112_17419"><path fill="#fff" d="M0 0h50v50H0z"/></clipPath></defs></svg>